<svg width="81" height="17" viewBox="0 0 81 17" fill="none" xmlns="http://www.w3.org/2000/svg">
<path d="M32.6283 10.9945C32.6283 13.4891 30.6277 14.9496 26.8645 14.9496C25.3863 14.9496 23.6735 14.6973 22.9272 14.3775V2.78235H27.9128C30.2475 2.78235 31.5658 3.99054 31.5658 5.78507C31.5658 6.67344 31.0577 7.57959 30.3576 7.9918C31.5481 8.32583 32.6283 9.37411 32.6283 10.991V10.9945ZM27.7529 4.81496H25.1979V7.4339H27.7849C28.8332 7.4339 29.2632 6.81558 29.2632 6.10133C29.2632 5.38707 28.8332 4.81496 27.7565 4.81496H27.7529ZM30.2759 10.9767C30.2759 10.0564 29.6896 9.31015 28.4032 9.31015H25.1944V12.6753C25.6706 12.8352 26.5127 12.9134 27.1311 12.9134C29.4799 12.9134 30.2759 12.1032 30.2759 10.9767Z" fill="#BBBBBB"/>
<path d="M33.6553 3.18042C33.6553 2.45195 34.2096 2.05396 35.0838 2.05396C35.958 2.05396 36.5123 2.45195 36.5123 3.18042C36.5123 3.90889 35.9899 4.29267 35.0838 4.29267C34.1776 4.29267 33.6553 3.89467 33.6553 3.18042ZM33.9431 5.99125H36.2138V14.6938H33.9431V5.99125Z" fill="#BBBBBB"/>
<path d="M47.0876 9.35645V14.6903H44.785V9.89303C44.785 8.46452 44.0849 7.6401 42.8625 7.6401C41.6401 7.6401 40.638 8.60666 40.638 10.1311V14.6903H38.3353V5.98772H40.5278V7.29186C41.004 6.44968 42.1305 5.74963 43.4986 5.74963C45.6911 5.74963 47.0876 7.13195 47.0876 9.35289V9.35645Z" fill="#BBBBBB"/>
<path d="M57.9969 10.2306C57.9969 12.8495 55.982 14.9461 53.3453 14.9461C50.7086 14.9461 48.772 12.8815 48.772 10.1347V2.30627H50.9467V7.03955C51.5828 6.2791 52.5032 5.75318 53.7575 5.75318C56.1562 5.75318 57.9969 7.70761 57.9969 10.2306ZM55.8044 10.3585C55.8044 8.86606 54.8023 7.72183 53.3738 7.72183C51.9453 7.72183 50.865 8.88027 50.865 10.3727C50.865 11.8652 51.8955 12.9917 53.3738 12.9917C54.852 12.9917 55.8044 11.8155 55.8044 10.355V10.3585Z" fill="#BBBBBB"/>
<path d="M59.4219 2.30627H61.6926V12.0074C61.6926 12.6115 62.0906 12.8815 62.5028 12.8815C62.7551 12.8815 62.9647 12.8176 63.1211 12.7216V14.6441C62.8368 14.836 62.3286 14.9461 61.8347 14.9461C60.2143 14.9461 59.4219 13.8197 59.4219 12.3592V2.30627Z" fill="#BBBBBB"/>
<path d="M64.1552 10.5823V5.99475H66.4401V10.7422C66.4401 12.0748 67.0761 12.9987 68.4585 12.9987C69.8408 12.9987 70.4733 12.0926 70.4733 10.7422V5.99475H72.7582V10.6001C72.7582 13.283 71.2338 14.9496 68.4549 14.9496C65.6761 14.9496 64.1516 13.2652 64.1516 10.5823H64.1552Z" fill="#BBBBBB"/>
<path d="M80.6505 5.86333V8.13403C80.3484 8.0061 79.9824 7.91371 79.5062 7.91371C78.1097 7.91371 77.0117 8.73812 77.0117 10.3443V14.6938H74.709V5.99126H76.8375V7.5015C77.2995 6.49941 78.4082 5.75317 79.7763 5.75317C80.0783 5.75317 80.4266 5.79937 80.6505 5.86333Z" fill="#BBBBBB"/>
<path d="M4.62667 5.11706H0.490385C0.220318 5.11706 0 4.89674 0 4.62667V0.490385C0 0.220318 0.220318 0 0.490385 0H4.13629C4.52007 0.383779 4.73328 0.59699 5.11706 0.980769V4.62667C5.11706 4.89674 4.89674 5.11706 4.62667 5.11706Z" fill="#BBBBBB"/>
<path d="M10.5681 5.11706H6.43179C6.16172 5.11706 5.94141 4.89674 5.94141 4.62667V0.490385C5.94141 0.220318 6.16172 0 6.43179 0H10.0777L11.0585 0.980769V4.62667C11.0585 4.89674 10.8381 5.11706 10.5681 5.11706Z" fill="#BBBBBB"/>
<path d="M16.5096 5.11706H12.3733C12.1033 5.11706 11.8829 4.89674 11.8829 4.62667V0.490385C11.8829 0.220318 12.1033 0 12.3733 0H16.0192C16.403 0.383779 16.6162 0.59699 17 0.980769V4.62667C17 4.89674 16.7797 5.11706 16.5096 5.11706Z" fill="#BBBBBB"/>
<path d="M4.62667 11.0585H0.490385C0.220318 11.0585 0 10.8381 0 10.5681V6.43179C0 6.16172 0.220318 5.94141 0.490385 5.94141H4.13629C4.52007 6.32519 4.73328 6.5384 5.11706 6.92218V10.5681C5.11706 10.8381 4.89674 11.0585 4.62667 11.0585Z" fill="#BBBBBB"/>
<path d="M10.5681 11.0585H6.43179C6.16172 11.0585 5.94141 10.8381 5.94141 10.5681V6.43179C5.94141 6.16172 6.16172 5.94141 6.43179 5.94141H10.0777L11.0585 6.92218V10.5681C11.0585 10.8381 10.8381 11.0585 10.5681 11.0585Z" fill="#BBBBBB"/>
<path d="M16.5096 11.0585H12.3733C12.1033 11.0585 11.8829 10.8381 11.8829 10.5681V6.43179C11.8829 6.16172 12.1033 5.94141 12.3733 5.94141H16.0192C16.403 6.32519 16.6162 6.5384 17 6.92218V10.5681C17 10.8381 16.7797 11.0585 16.5096 11.0585Z" fill="#BBBBBB"/>
<path d="M4.62667 17H0.490385C0.220318 17 0 16.7797 0 16.5096V12.3733C0 12.1033 0.220318 11.8829 0.490385 11.8829H4.13629C4.52007 12.2667 4.73328 12.4799 5.11706 12.8637V16.5096C5.11706 16.7797 4.89674 17 4.62667 17Z" fill="#BBBBBB"/>
<path d="M10.5681 17H6.43179C6.16172 17 5.94141 16.7797 5.94141 16.5096V12.3733C5.94141 12.1033 6.16172 11.8829 6.43179 11.8829H10.0777C10.4615 12.2667 10.6747 12.4799 11.0585 12.8637V16.5096C11.0585 16.7797 10.8381 17 10.5681 17Z" fill="#BBBBBB"/>
<path d="M16.5096 17H12.3733C12.1033 17 11.8829 16.7797 11.8829 16.5096V12.3733C11.8829 12.1033 12.1033 11.8829 12.3733 11.8829H16.0192C16.403 12.2667 16.6162 12.4799 17 12.8637V16.5096C17 16.7797 16.7797 17 16.5096 17Z" fill="#BBBBBB"/>
</svg>
