<svg width="55" height="55" viewBox="0 0 55 55" fill="none" xmlns="http://www.w3.org/2000/svg">
<circle cx="27.5" cy="27.5" r="27" stroke="#BBBBBB"/>
<path d="M29.2543 17L29.0483 32.1591H26.6591L26.4531 17H29.2543ZM27.8537 38.2557C27.3456 38.2557 26.9097 38.0737 26.5458 37.7099C26.1819 37.346 26 36.91 26 36.402C26 35.8939 26.1819 35.458 26.5458 35.0941C26.9097 34.7302 27.3456 34.5483 27.8537 34.5483C28.3617 34.5483 28.7977 34.7302 29.1616 35.0941C29.5254 35.458 29.7074 35.8939 29.7074 36.402C29.7074 36.7384 29.6216 37.0473 29.4499 37.3288C29.2852 37.6103 29.062 37.8369 28.7805 38.0085C28.5059 38.1733 28.197 38.2557 27.8537 38.2557Z" fill="#BBBBBB"/>
</svg>
