<svg width="15" height="13" viewBox="0 0 15 13" fill="none" xmlns="http://www.w3.org/2000/svg">
<path d="M5.38916 10.5436C5.38916 11.3555 4.72964 12.0118 3.9184 12.0118C3.10717 12.0118 2.44763 11.3534 2.44763 10.5436C2.44763 9.73373 3.10717 9.07532 3.9184 9.07532C4.72964 9.07532 5.38916 9.73373 5.38916 10.5436Z" stroke="#999999" stroke-linecap="round" stroke-linejoin="round"/>
<path d="M11.2111 12.0118C12.0234 12.0118 12.6819 11.3545 12.6819 10.5436C12.6819 9.73269 12.0234 9.07532 11.2111 9.07532C10.3988 9.07532 9.74036 9.73269 9.74036 10.5436C9.74036 11.3545 10.3988 12.0118 11.2111 12.0118Z" stroke="#999999" stroke-linecap="round" stroke-linejoin="round"/>
<path d="M12.4205 3.45268C12.4205 3.06564 12.0349 2.67859 11.5102 2.67859H9.46631" stroke="#999999" stroke-linecap="round" stroke-linejoin="round"/>
<path d="M12.6628 10.2851H13.9461C14.1884 10.2851 14.3886 10.0873 14.3886 9.84334V6.16847C14.3886 5.92657 14.1884 5.78564 13.9461 5.78564" stroke="#999999" stroke-linecap="round" stroke-linejoin="round"/>
<path d="M9.77412 10.2847H5.32812" stroke="#999999" stroke-linecap="round" stroke-linejoin="round"/>
<path d="M10.834 5.78557H13.843C13.843 4.61812 13.2235 3.45276 12.1172 3.45276H10.8319V5.78557H10.834Z" stroke="#999999" stroke-linecap="round" stroke-linejoin="round"/>
<path d="M9.41579 10.2849V1.44173C9.41579 1.19773 9.21772 1 8.9733 1H1.44249C1.20017 1 1 1.19773 1 1.44173V9.84321C1 10.0872 1.19806 10.2849 1.44249 10.2849H2.52133" stroke="#999999" stroke-linecap="round" stroke-linejoin="round"/>
<path d="M13.2781 6.98669V7.78183" stroke="#999999" stroke-linecap="round" stroke-linejoin="round"/>
</svg>
