<svg width="10" height="11" viewBox="0 0 10 11" fill="none" xmlns="http://www.w3.org/2000/svg">
<path d="M8.50004 1H2.35004C2.04076 1 1.79004 1.25072 1.79004 1.56V9.8C1.79004 10.1093 2.04076 10.36 2.35004 10.36H8.50004C8.80932 10.36 9.06004 10.1093 9.06004 9.8V1.56C9.06004 1.25072 8.80932 1 8.50004 1Z" stroke="#ddd" stroke-width="0.4" stroke-miterlimit="10"/>
<path d="M1 2.82996H2.45" stroke="#ddd" stroke-width="0.4" stroke-miterlimit="10" stroke-linecap="round"/>
<path d="M1 4.15002H2.45" stroke="#ddd" stroke-width="0.4" stroke-miterlimit="10" stroke-linecap="round"/>
<path d="M1 5.47998H2.45" stroke="#ddd" stroke-width="0.4" stroke-miterlimit="10" stroke-linecap="round"/>
<path d="M1 6.80005H2.45" stroke="#ddd" stroke-width="0.4" stroke-miterlimit="10" stroke-linecap="round"/>
<path d="M1 8.13H2.45" stroke="#ddd" stroke-width="0.4" stroke-miterlimit="10" stroke-linecap="round"/>
<path d="M6.61999 4.12993C6.61999 4.78993 6.08999 5.31993 5.42999 5.31993C4.76999 5.31993 4.23999 4.78993 4.23999 4.12993C4.23999 3.46993 4.76999 2.93994 5.42999 2.93994C6.08999 2.93994 6.61999 3.46993 6.61999 4.12993Z" stroke="#ddd" stroke-width="0.4" stroke-miterlimit="10"/>
<path d="M7.43999 8.03995C7.51999 8.24995 7.4 8.41995 7.17 8.41995H3.67999C3.45999 8.41995 3.32999 8.24995 3.40999 8.03995L4.25999 5.69995C4.33999 5.48995 4.57999 5.31995 4.80999 5.31995H6.03999C6.25999 5.31995 6.50999 5.48995 6.58999 5.69995L7.43999 8.03995Z" stroke="#ddd" stroke-width="0.4" stroke-miterlimit="10"/>
</svg>
