<svg width="13" height="13" viewBox="0 0 13 13" fill="none" xmlns="http://www.w3.org/2000/svg">
<path d="M12.9948 7.53014V5.45948H11.3653C11.2355 4.8523 10.9968 4.28663 10.6699 3.78323L11.822 2.63114L10.3585 1.16766L9.20639 2.31976C8.70299 1.99281 8.13733 1.75409 7.53014 1.62435V0H5.45948V1.62954C4.8523 1.75928 4.28663 1.998 3.78323 2.32495L2.63114 1.17285L1.16766 2.63633L2.31976 3.78842C1.99281 4.29182 1.75409 4.85749 1.62435 5.46467H0V7.53533H1.62954C1.75928 8.14252 1.998 8.70818 2.32495 9.21158L1.17285 10.3637L2.63633 11.8271L3.78842 10.675C4.29182 11.002 4.85749 11.2407 5.46467 11.3705V13H7.53533V11.3705C8.14252 11.2407 8.70818 11.002 9.21158 10.675L10.3637 11.8271L11.8271 10.3637L10.675 9.21158C11.002 8.70818 11.2407 8.14252 11.3705 7.53533H13L12.9948 7.53014Z" fill="#666666"/>
<path d="M6.57283 7.55081C7.2908 7.55081 7.87283 6.96878 7.87283 6.25081C7.87283 5.53284 7.2908 4.95081 6.57283 4.95081C5.85486 4.95081 5.27283 5.53284 5.27283 6.25081C5.27283 6.96878 5.85486 7.55081 6.57283 7.55081Z" fill="white"/>
</svg>
