<svg width="15" height="18" viewBox="0 0 15 18" fill="none" xmlns="http://www.w3.org/2000/svg">
<path d="M13.383 5.8811H1.61699C1.27624 5.8811 1 6.15704 1 6.49743V15.8964C1 16.2368 1.27624 16.5127 1.61699 16.5127H13.383C13.7238 16.5127 14 16.2368 14 15.8964V6.49743C14 6.15704 13.7238 5.8811 13.383 5.8811Z" stroke="#333333" stroke-linecap="round" stroke-linejoin="round"/>
<path d="M4.35022 5.88129V4.14326C4.35022 2.40522 5.76311 1 7.49686 1C9.23677 1 10.6435 2.41139 10.6435 4.14326V5.88129" stroke="#333333" stroke-linecap="round" stroke-linejoin="round"/>
<path d="M7.64489 10.7687C7.64489 11.0892 7.38576 11.348 7.06492 11.348C6.74409 11.348 6.48499 11.0892 6.48499 10.7687C6.48499 10.4482 6.74409 10.1893 7.06492 10.1893C7.38576 10.1893 7.64489 10.4482 7.64489 10.7687Z" stroke="#333333" stroke-linecap="round" stroke-linejoin="round"/>
</svg>
