<svg width="20" height="20" viewBox="0 0 20 20" fill="none" xmlns="http://www.w3.org/2000/svg">
<mask id="path-1-inside-1_348_5496" fill="white">
<rect y="2" width="20" height="18" rx="1"/>
</mask>
<rect y="2" width="20" height="18" rx="1" stroke="#333333" stroke-width="3" mask="url(#path-1-inside-1_348_5496)"/>
<mask id="path-2-inside-2_348_5496" fill="white">
<rect y="2" width="20" height="7" rx="1"/>
</mask>
<rect y="2" width="20" height="7" rx="1" stroke="#333333" stroke-width="3" mask="url(#path-2-inside-2_348_5496)"/>
<rect x="5.5" y="0.5" width="1" height="5" rx="0.5" fill="#333333" stroke="#333333"/>
<rect x="13.5" y="0.5" width="1" height="5" rx="0.5" fill="#333333" stroke="#333333"/>
<path d="M13.7561 15.9999V12.2749H15.1211C15.9161 12.2749 16.5761 12.5499 16.5761 13.4499C16.5761 14.3249 15.9161 14.6899 15.1211 14.6899H14.6511V15.9999H13.7561ZM14.6511 13.9849H15.0511C15.4761 13.9849 15.7061 13.7999 15.7061 13.4499C15.7061 13.0999 15.4761 12.9849 15.0511 12.9849H14.6511V13.9849ZM15.7661 15.9999L14.9611 14.4599L15.5661 13.8749L16.7661 15.9999H15.7661Z" fill="#333333"/>
<path d="M10.0853 15.9999L11.2403 12.2749H12.3103L13.4653 15.9999H12.5253L12.0603 14.1399C11.9603 13.7699 11.8653 13.3249 11.7653 12.9449H11.7453C11.6553 13.3349 11.5553 13.7699 11.4603 14.1399L10.9953 15.9999H10.0853ZM10.8703 15.1449V14.4549H12.6703V15.1449H10.8703Z" fill="#333333"/>
<path d="M7.50586 15.9999V12.2749H9.86586V13.0199H8.40086V13.7099H9.64586V14.4599H8.40086V15.2499H9.92086V15.9999H7.50586Z" fill="#333333"/>
<path d="M5.20887 15.9999V14.6849L4.08887 12.2749H5.03887L5.34887 13.1049C5.44887 13.3849 5.54387 13.6449 5.64887 13.9349H5.66887C5.77387 13.6449 5.87387 13.3849 5.97887 13.1049L6.28887 12.2749H7.22387L6.09887 14.6849V15.9999H5.20887Z" fill="#333333"/>
</svg>
