<svg width="11" height="15" viewBox="0 0 11 15" fill="none" xmlns="http://www.w3.org/2000/svg">
<path d="M4.25 12.9166C4.25 13.5134 4.73437 14 5.33333 14C5.9323 14 6.41667 13.5156 6.41667 12.9166" stroke="#999999" stroke-linecap="round" stroke-linejoin="round"/>
<path d="M7.09867 10.75C7.37753 10.75 7.60791 10.5206 7.60791 10.2375V9.21245C7.60791 9.16852 7.59335 9.12704 7.58123 9.08555C8.83006 8.31921 9.66667 6.9403 9.66667 5.36126C9.66667 2.95244 7.72673 1 5.33333 1C2.93994 1 1 2.95244 1 5.36126C1 6.9403 1.83659 8.31921 3.08543 9.08555C3.07573 9.12704 3.05876 9.16608 3.05876 9.21245V10.2375C3.05876 10.5181 3.28669 10.75 3.56798 10.75" stroke="#999999" stroke-linecap="round" stroke-linejoin="round"/>
<path d="M7.49996 11.4766V11.2068C7.49996 10.9545 7.28294 10.75 7.01514 10.75H3.65144C3.38594 10.75 3.16663 10.9545 3.16663 11.2068V11.4766C3.16663 11.6245 3.24511 11.7485 3.36286 11.8333C3.24742 11.9182 3.16663 12.0422 3.16663 12.1901V12.4598C3.16663 12.71 3.38363 12.9167 3.65144 12.9167H7.01514C7.28063 12.9167 7.49996 12.7122 7.49996 12.4598V12.1901C7.49996 12.0422 7.41915 11.9182 7.30372 11.8333C7.41915 11.7507 7.49996 11.6245 7.49996 11.4766Z" stroke="#999999" stroke-linecap="round" stroke-linejoin="round"/>
<path d="M3.16663 11.8334H6.41663" stroke="#999999" stroke-width="0.5" stroke-linecap="round" stroke-linejoin="round"/>
</svg>
