<svg width="20" height="20" viewBox="0 0 20 20" fill="none" xmlns="http://www.w3.org/2000/svg">
<mask id="path-1-inside-1_348_5472" fill="white">
<rect y="2" width="20" height="18" rx="1"/>
</mask>
<rect y="2" width="20" height="18" rx="1" stroke="#333333" stroke-width="3" mask="url(#path-1-inside-1_348_5472)"/>
<mask id="path-2-inside-2_348_5472" fill="white">
<rect y="2" width="20" height="7" rx="1"/>
</mask>
<rect y="2" width="20" height="7" rx="1" stroke="#333333" stroke-width="3" mask="url(#path-2-inside-2_348_5472)"/>
<rect x="5.5" y="0.5" width="1" height="5" rx="0.5" fill="#333333" stroke="#333333"/>
<rect x="13.5" y="0.5" width="1" height="5" rx="0.5" fill="#333333" stroke="#333333"/>
<path d="M14.4958 15.9999V12.2749H15.3908V13.7499H15.4058L16.4608 12.2749H17.4408L16.3158 13.7699L17.6508 15.9999H16.6758L15.7958 14.4749L15.3908 15.0249V15.9999H14.4958Z" fill="#333333"/>
<path d="M11.4464 15.9999V12.2749H13.8064V13.0199H12.3414V13.7099H13.5864V14.4599H12.3414V15.2499H13.8614V15.9999H11.4464Z" fill="#333333"/>
<path d="M8.39697 15.9999V12.2749H10.757V13.0199H9.29197V13.7099H10.537V14.4599H9.29197V15.2499H10.812V15.9999H8.39697Z" fill="#333333"/>
<path d="M4.14412 15.9999L3.46912 12.2749H4.37912L4.61412 13.9749C4.66412 14.3649 4.71412 14.7549 4.76412 15.1549H4.78412C4.85412 14.7549 4.92912 14.3599 5.00412 13.9749L5.38412 12.2749H6.13912L6.52412 13.9749C6.59912 14.3549 6.66412 14.7549 6.73912 15.1549H6.76412C6.80912 14.7549 6.85912 14.3599 6.90412 13.9749L7.14912 12.2749H7.99412L7.34912 15.9999H6.22412L5.88912 14.3799C5.82912 14.0949 5.77912 13.7949 5.74412 13.5149H5.72412C5.67412 13.7949 5.62912 14.0949 5.57412 14.3799L5.24912 15.9999H4.14412Z" fill="#333333"/>
</svg>
