<svg width="12" height="15" viewBox="0 0 12 15" fill="none" xmlns="http://www.w3.org/2000/svg">
<path d="M11 11.4H2.30435C1.58696 11.4 1 11.985 1 12.7M1 12.7C1 13.415 1.58696 14 2.30435 14H11V1H2.30435C1.58696 1 1 1.585 1 2.3V12.7Z" stroke="#666666" stroke-linecap="round" stroke-linejoin="round"/>
<path d="M2.30444 11.4V1" stroke="#666666" stroke-linecap="round" stroke-linejoin="round"/>
<path d="M6.21728 1V5.25533L4.89989 3.39416L3.60858 5.25533L3.58032 1" stroke="#666666" stroke-linecap="round" stroke-linejoin="round"/>
<path d="M8.50002 13.2C8.22388 13.2 8.00002 12.9761 8.00002 12.7C8.00002 12.4238 8.22388 12.2 8.50002 12.2V13.2ZM10.4565 12.2H10.9565V13.2H10.4565V12.2ZM8.50002 12.2H10.4565V13.2H8.50002V12.2Z" fill="#666666"/>
</svg>
