<svg width="14" height="14" viewBox="0 0 14 14" fill="none" xmlns="http://www.w3.org/2000/svg">
<path d="M2.89027 13.9156C2.79866 13.8904 2.70946 13.8477 2.63232 13.7873C2.3816 13.5936 2.27312 13.2591 2.35991 12.9471L3.51707 8.78658L0.27942 6.07492C0.035933 5.87117 -0.0604974 5.53158 0.0383437 5.22217C0.137185 4.91277 0.409601 4.70148 0.720589 4.69142L4.86951 4.55307L6.34007 0.500666C6.45097 0.196295 6.73061 -0.0049387 7.0416 9.22179e-05C7.10187 9.22179e-05 7.16214 0.00763767 7.22 0.0227304C7.45625 0.0856168 7.65153 0.266725 7.7359 0.51324L9.14379 4.58828L13.2927 4.79455C13.3433 4.79455 13.3915 4.80461 13.4398 4.81719C13.6857 4.88259 13.8882 5.07628 13.9653 5.33537C14.0593 5.64477 13.9581 5.98436 13.7122 6.18308L10.4335 8.8394L11.5256 13.0176C11.6076 13.332 11.4943 13.6666 11.2411 13.8552C11.0603 13.9911 10.8337 14.0313 10.624 13.976C10.542 13.9533 10.4625 13.9181 10.3901 13.8653L6.95482 11.4303L3.48332 13.8074C3.30492 13.9307 3.09037 13.9634 2.89268 13.9106L2.89027 13.9156Z" fill="white"/>
</svg>
