<svg width="13" height="12" viewBox="0 0 13 12" fill="none" xmlns="http://www.w3.org/2000/svg">
<path d="M7.15309 9.52718V8.33325H1V9.52718C1 10.7863 1.52884 10.9999 2.37154 10.9999H8.44146C7.66624 10.9999 7.15152 10.5257 7.15152 9.52718H7.15309Z" stroke="#333333" stroke-width="0.7" stroke-linecap="round" stroke-linejoin="round"/>
<path d="M9.83503 8.56531V9.52742C9.83503 10.6259 9.15241 11.0001 8.44153 11.0001" stroke="#333333" stroke-width="0.7" stroke-linecap="round" stroke-linejoin="round"/>
<path d="M9.83486 8.56512V2.66666C9.83486 2.10909 9.76425 1 10.891 1" stroke="#333333" stroke-width="0.7" stroke-linecap="round" stroke-linejoin="round"/>
<path d="M9.87113 3.97727H12.0242V2.66666C12.0242 1.62576 11.6962 1 10.5757 1H3.91263C3.00403 1 2.33081 1.56818 2.33081 2.66666V8.19239" stroke="#333333" stroke-width="0.7" stroke-linecap="round" stroke-linejoin="round"/>
<path d="M4.30725 3.20483H7.61448" stroke="#333333" stroke-width="0.5" stroke-linecap="round"/>
<path d="M4.30725 4.30725H7.61448" stroke="#333333" stroke-width="0.5" stroke-linecap="round"/>
<path d="M4.30725 5.40967H7.61448" stroke="#333333" stroke-width="0.5" stroke-linecap="round"/>
<path d="M4.30725 6.51208H6.51207" stroke="#333333" stroke-width="0.5" stroke-linecap="round"/>
</svg>
