<svg width="22" height="18" viewBox="0 0 22 18" fill="none" xmlns="http://www.w3.org/2000/svg">
<path d="M7.55655 15.2562C7.55655 16.4691 6.57135 17.4495 5.35952 17.4495C4.14769 17.4495 3.16248 16.4659 3.16248 15.2562C3.16248 14.0464 4.14769 13.0629 5.35952 13.0629C6.57135 13.0629 7.55655 14.0464 7.55655 15.2562Z" stroke="white" stroke-linecap="round" stroke-linejoin="round"/>
<path d="M16.2534 17.4495C17.4668 17.4495 18.4504 16.4675 18.4504 15.2562C18.4504 14.0449 17.4668 13.0629 16.2534 13.0629C15.04 13.0629 14.0564 14.0449 14.0564 15.2562C14.0564 16.4675 15.04 17.4495 16.2534 17.4495Z" stroke="white" stroke-linecap="round" stroke-linejoin="round"/>
<path d="M18.0601 4.66379C18.0601 4.08562 17.484 3.50745 16.7003 3.50745H13.6471" stroke="white" stroke-linecap="round" stroke-linejoin="round"/>
<path d="M18.422 14.87H20.3389C20.7009 14.87 20.9999 14.5746 20.9999 14.2101V8.72056C20.9999 8.3592 20.7009 8.14868 20.3389 8.14868" stroke="white" stroke-linecap="round" stroke-linejoin="round"/>
<path d="M14.1068 14.8696H7.46533" stroke="white" stroke-linecap="round" stroke-linejoin="round"/>
<path d="M15.69 8.14871H20.1848C20.1848 6.40476 19.2594 4.66394 17.6069 4.66394H15.6869V8.14871H15.69Z" stroke="white" stroke-linecap="round" stroke-linejoin="round"/>
<path d="M13.5715 14.8699V1.65987C13.5715 1.29536 13.2757 1 12.9106 1H1.66099C1.29902 1 1 1.29536 1 1.65987V14.21C1 14.5745 1.29587 14.8699 1.66099 14.8699H3.27258" stroke="white" stroke-linecap="round" stroke-linejoin="round"/>
<path d="M19.3412 9.94299V11.1308" stroke="white" stroke-linecap="round" stroke-linejoin="round"/>
</svg>
