<svg width="20" height="17" viewBox="0 0 20 17" fill="none" xmlns="http://www.w3.org/2000/svg">
<path d="M17.6096 4.03699H1.94006V16.4882H17.6096V4.03699Z" stroke="#333" stroke-linejoin="bevel"/>
<path d="M1.00623 1H4.51116V6.25758C4.51116 7.21632 3.72675 8.00186 2.75558 8.00186C1.79063 8.00186 1 7.2225 1 6.25758V1H1.00623Z" fill="#fff" stroke="#333" stroke-linejoin="bevel"/>
<path d="M4.51758 1H8.02251V6.25758C8.02251 7.21632 7.23811 8.00186 6.26693 8.00186C5.30199 8.00186 4.51135 7.2225 4.51135 6.25758V1H4.51758Z" fill="#fff" stroke="#333" stroke-linejoin="bevel"/>
<path d="M8.02234 1H11.5273V6.25758C11.5273 7.21632 10.7429 8.00186 9.77169 8.00186C8.80675 8.00186 8.01611 7.2225 8.01611 6.25758V1H8.02234Z" fill="#fff" stroke="#333" stroke-linejoin="bevel"/>
<path d="M11.5271 1H15.032V6.25758C15.032 7.21632 14.2476 8.00186 13.2765 8.00186C12.3115 8.00186 11.5209 7.2225 11.5209 6.25758V1H11.5271Z" fill="#fff" stroke="#333" stroke-linejoin="bevel"/>
<path d="M15.0322 1H18.5372V6.25758C18.5372 7.21632 17.7528 8.00186 16.7816 8.00186C15.8166 8.00186 15.026 7.2225 15.026 6.25758V1H15.0322Z" fill="#fff" stroke="#333" stroke-linejoin="bevel"/>
<path d="M14.254 10.5563H10.749V16.4881H14.254V10.5563Z" stroke="#333" stroke-linejoin="bevel"/>
</svg>
