<svg width="20" height="18" viewBox="0 0 20 18" fill="none" xmlns="http://www.w3.org/2000/svg">
<path d="M18.3999 17.393H7.59999C7.27142 17.393 7 17.1469 7 16.8433V2.54975C7 2.2487 7.26856 2 7.59999 2H16.3685L19 4.75399V16.8433C19 17.1469 18.7314 17.393 18.3999 17.393Z" stroke="#BBBBBB" stroke-linecap="round" stroke-linejoin="round"/>
<path d="M16.3685 2V4.75399H19L16.3685 2Z" stroke="#BBBBBB" stroke-linecap="round" stroke-linejoin="round"/>
<path d="M3 1V6" stroke="#BBBBBB" stroke-linecap="round"/>
<path d="M5 4L3 6" stroke="#BBBBBB" stroke-linecap="round"/>
<path d="M1 4L3 6" stroke="#BBBBBB" stroke-linecap="round"/>
<rect x="1" y="7" width="16" height="9" rx="1" fill="#BBBBBB"/>
<path d="M14.379 10.4179C14.3566 10.2084 14.2622 10.0453 14.0959 9.92849C13.9311 9.81173 13.7168 9.75335 13.4529 9.75335C13.2674 9.75335 13.1082 9.78134 12.9754 9.83732C12.8427 9.8933 12.7411 9.96928 12.6707 10.0652C12.6004 10.1612 12.5644 10.2708 12.5628 10.3939C12.5628 10.4963 12.586 10.5851 12.6324 10.6602C12.6803 10.7354 12.7451 10.7994 12.8267 10.8522C12.9083 10.9034 12.9986 10.9466 13.0978 10.9817C13.197 11.0169 13.2969 11.0465 13.3977 11.0705L13.8584 11.1857C14.0439 11.2289 14.2222 11.2872 14.3934 11.3608C14.5661 11.4344 14.7205 11.5272 14.8564 11.6391C14.994 11.7511 15.1027 11.8862 15.1827 12.0446C15.2627 12.2029 15.3027 12.3885 15.3027 12.6012C15.3027 12.8891 15.2291 13.1426 15.0819 13.3617C14.9348 13.5793 14.7221 13.7496 14.4438 13.8728C14.1671 13.9943 13.832 14.0551 13.4385 14.0551C13.0562 14.0551 12.7243 13.9959 12.4428 13.8776C12.1629 13.7592 11.9438 13.5865 11.7854 13.3593C11.6287 13.1322 11.5439 12.8555 11.5311 12.5292H12.4068C12.4196 12.7004 12.4724 12.8427 12.5652 12.9563C12.658 13.0698 12.7787 13.1546 12.9275 13.2106C13.0778 13.2666 13.2458 13.2946 13.4313 13.2946C13.6248 13.2946 13.7944 13.2658 13.9399 13.2082C14.0871 13.149 14.2022 13.0674 14.2854 12.9635C14.3686 12.8579 14.411 12.7348 14.4126 12.594C14.411 12.466 14.3734 12.3605 14.2998 12.2773C14.2262 12.1925 14.1231 12.1222 13.9903 12.0662C13.8592 12.0086 13.7056 11.9574 13.5297 11.9126L12.9706 11.7687C12.566 11.6647 12.2461 11.5072 12.011 11.296C11.7774 11.0833 11.6607 10.801 11.6607 10.4491C11.6607 10.1596 11.7391 9.9061 11.8958 9.68857C12.0542 9.47104 12.2693 9.3023 12.5412 9.18234C12.8131 9.06078 13.121 9 13.4649 9C13.8136 9 14.1191 9.06078 14.3814 9.18234C14.6453 9.3023 14.8524 9.46944 15.0028 9.68377C15.1531 9.8965 15.2307 10.1412 15.2355 10.4179H14.379Z" fill="white"/>
<path d="M7.88196 13.9807V9.06714H8.77206V13.2346H10.9361V13.9807H7.88196Z" fill="white"/>
<path d="M3.96097 9.06714L5.04301 10.8665H5.0814L6.16824 9.06714H7.1831L5.6692 11.5239L7.20709 13.9807H6.17544L5.0814 12.1933H5.04301L3.94898 13.9807H2.92212L4.4744 11.5239L2.94131 9.06714H3.96097Z" fill="white"/>
</svg>
