<svg width="15" height="15" viewBox="0 0 15 15" fill="none" xmlns="http://www.w3.org/2000/svg">
<path d="M5.86013 4.13965C5.6286 4.13965 5.43994 4.32797 5.43994 4.55911C5.43994 4.79025 5.6286 4.97859 5.86013 4.97859C6.09167 4.97859 6.28031 4.79025 6.28031 4.55911C6.28031 4.32797 6.09167 4.13965 5.86013 4.13965Z" fill="#333333"/>
<path d="M10.9127 4.13965C10.6812 4.13965 10.4926 4.32797 10.4926 4.55911C10.4926 4.79025 10.6812 4.97859 10.9127 4.97859C11.1443 4.97859 11.3329 4.79025 11.3329 4.55911C11.3329 4.32797 11.1443 4.13965 10.9127 4.13965Z" fill="#333333"/>
<path d="M2.63782 7.17656V3.51045C2.63782 3.26862 2.83719 3.06958 3.07944 3.06958H13.6913C13.9336 3.06958 14.133 3.26862 14.133 3.51045V13.2225C14.133 13.4644 13.9336 13.6634 13.6913 13.6634H9.40585" stroke="#333333" stroke-linecap="round" stroke-linejoin="round"/>
<path d="M5.86011 4.2766V2.76564C5.86011 1.794 6.65546 1 7.62876 1H9.14229C10.1156 1 10.9109 1.794 10.9109 2.76564V4.2766" stroke="#333333" stroke-linecap="round" stroke-linejoin="round"/>
<path d="M11.1416 13.4968L14.1328 10.5056" stroke="#333333" stroke-linecap="round" stroke-linejoin="round"/>
<path d="M6.3424 9.24817H1.32586C1.14793 9.24817 1 9.10263 1 8.92286V7.62377C1 7.44614 1.14578 7.29846 1.32586 7.29846H9.45093C9.62887 7.29846 9.77678 7.444 9.77678 7.62377V8.92286C9.77678 9.10049 9.63101 9.24817 9.45093 9.24817H6.35739" stroke="#333333" stroke-linecap="round" stroke-linejoin="round"/>
<path d="M9.38025 9.32093V13.8859C9.38025 14.0635 9.23446 14.2112 9.05438 14.2112H1.7204C1.54246 14.2112 1.39453 14.0657 1.39453 13.8859V9.24817" stroke="#333333" stroke-linecap="round" stroke-linejoin="round"/>
<path d="M4.16211 6.51733C4.16211 6.51733 5.15918 7.70076 5.15918 7.54707V14.4939" stroke="#333333" stroke-linecap="round" stroke-linejoin="round"/>
<path d="M6.15625 6.51733L5.15918 7.5144" stroke="#333333" stroke-linecap="round" stroke-linejoin="round"/>
</svg>
