<svg width="11" height="13" viewBox="0 0 11 13" fill="none" xmlns="http://www.w3.org/2000/svg">
<path d="M0 1C0 0.447715 0.447715 0 1 0H10C10.5523 0 11 0.447715 11 1V12C11 12.5523 10.5523 13 10 13H1C0.447715 13 0 12.5523 0 12V1Z" fill="white"/>
<path d="M1 2.13949C1 1.53564 1.53111 1.06955 2.12984 1.14796L6.12984 1.67177C6.62769 1.73696 7 2.16121 7 2.6633V10.3367C7 10.8388 6.62769 11.263 6.12984 11.3282L2.12984 11.852C1.53111 11.9304 1 11.4644 1 10.8605V2.13949Z" fill="#A4A4A4"/>
<rect x="5" y="6" width="1" height="0.5" fill="white"/>
</svg>
