<svg width="18" height="17" viewBox="0 0 18 17" fill="none" xmlns="http://www.w3.org/2000/svg">
<path d="M4.24874 15.9382C4.14576 15.9112 4.0455 15.8653 3.95879 15.8005C3.67698 15.5926 3.55504 15.2334 3.65259 14.8986L4.95327 10.4323L1.31407 7.52134C1.04039 7.30262 0.931999 6.93807 1.0431 6.60593C1.1542 6.2738 1.4604 6.04697 1.80996 6.03617L6.47344 5.88766L8.12639 1.53746C8.25104 1.21072 8.56537 0.994698 8.91493 1.0001C8.98267 1.0001 9.05041 1.0082 9.11545 1.0244C9.381 1.09191 9.6005 1.28633 9.69534 1.55096L11.2778 5.92546L15.9413 6.14689C15.9982 6.14689 16.0524 6.15769 16.1066 6.17119C16.383 6.2414 16.6106 6.44932 16.6973 6.72745C16.803 7.05959 16.6892 7.42413 16.4128 7.63745L12.7275 10.489L13.9551 14.9742C14.0472 15.3117 13.9198 15.6709 13.6353 15.8734C13.4321 16.0192 13.1774 16.0624 12.9416 16.003C12.8495 15.9787 12.7601 15.9409 12.6788 15.8842L8.81738 13.2703L4.91533 15.8221C4.71481 15.9544 4.47364 15.9895 4.25144 15.9328L4.24874 15.9382Z" fill="#FFDA58" stroke="#666666" stroke-linecap="round" stroke-linejoin="round"/>
</svg>
