<svg width="12" height="16" viewBox="0 0 12 16" fill="none" xmlns="http://www.w3.org/2000/svg">
<path d="M2.79492 5.07202L8.69233 5.11783" stroke="#666666" stroke-linecap="round" stroke-linejoin="round"/>
<path d="M2.79492 7.01892L8.69233 7.06473" stroke="#666666" stroke-linecap="round" stroke-linejoin="round"/>
<path d="M2.79492 9.0014L8.69233 8.97595" stroke="#666666" stroke-linecap="round" stroke-linejoin="round"/>
<path d="M2.79492 10.9254L6.12824 10.9483" stroke="#666666" stroke-linecap="round" stroke-linejoin="round"/>
<path d="M10.6769 14.9974L1.23594 14.9261C1.10517 14.9261 0.997481 14.8193 1.00004 14.6869L1.10004 1.23418C1.10004 1.10438 1.20774 0.9975 1.34107 1.00004L8.73591 1.05603C8.80514 1.05603 8.86924 1.08657 8.91539 1.14002L10.9436 3.4992C10.9821 3.54247 11 3.59846 11 3.65445L10.9154 14.7658C10.9154 14.8956 10.8077 15.0025 10.6744 15L10.6769 14.9974Z" stroke="#666666" stroke-linecap="round" stroke-linejoin="round"/>
<path d="M8.69226 1.05859L8.67432 3.30835C8.67432 3.43814 8.77944 3.54503 8.91021 3.54758L10.864 3.56285L8.6897 1.06114L8.69226 1.05859Z" stroke="#666666" stroke-linecap="round" stroke-linejoin="round"/>
</svg>
