<svg width="22" height="18" viewBox="0 0 22 18" fill="none" xmlns="http://www.w3.org/2000/svg">
<path d="M7.55655 14.777C7.55655 15.99 6.57135 16.9703 5.35952 16.9703C4.14769 16.9703 3.16248 15.9868 3.16248 14.777C3.16248 13.5673 4.14769 12.5837 5.35952 12.5837C6.57135 12.5837 7.55655 13.5673 7.55655 14.777Z" stroke="#333333" stroke-linecap="round" stroke-linejoin="round"/>
<path d="M16.2534 16.9703C17.4668 16.9703 18.4504 15.9884 18.4504 14.777C18.4504 13.5657 17.4668 12.5837 16.2534 12.5837C15.04 12.5837 14.0564 13.5657 14.0564 14.777C14.0564 15.9884 15.04 16.9703 16.2534 16.9703Z" stroke="#333333" stroke-linecap="round" stroke-linejoin="round"/>
<path d="M18.0601 4.18467C18.0601 3.60649 17.484 3.02832 16.7003 3.02832H13.6471" stroke="#333333" stroke-linecap="round" stroke-linejoin="round"/>
<path d="M18.422 14.3908H20.3389C20.7009 14.3908 20.9999 14.0955 20.9999 13.731V8.24143C20.9999 7.88007 20.7009 7.66956 20.3389 7.66956" stroke="#333333" stroke-linecap="round" stroke-linejoin="round"/>
<path d="M14.1068 14.3905H7.46533" stroke="#333333" stroke-linecap="round" stroke-linejoin="round"/>
<path d="M15.69 7.66958H20.1848C20.1848 5.92563 19.2594 4.18481 17.6069 4.18481H15.6869V7.66958H15.69Z" stroke="#333333" stroke-linecap="round" stroke-linejoin="round"/>
<path d="M13.5715 14.3908V1.18074C13.5715 0.816238 13.2757 0.520874 12.9106 0.520874H1.66099C1.29902 0.520874 1 0.816238 1 1.18074V13.7309C1 14.0954 1.29587 14.3908 1.66099 14.3908H3.27258" stroke="#333333" stroke-linecap="round" stroke-linejoin="round"/>
<path d="M19.3412 9.46387V10.6516" stroke="#333333" stroke-linecap="round" stroke-linejoin="round"/>
</svg>
