<svg width="20" height="18" viewBox="0 0 20 18" fill="none" xmlns="http://www.w3.org/2000/svg">
<path fill-rule="evenodd" clip-rule="evenodd" d="M6.17855 0.846924C5.35013 0.846924 4.67855 1.5185 4.67855 2.34692V4.31631H2.32141C1.49298 4.31631 0.821411 4.98788 0.821411 5.81631V12.8367C0.821411 13.6651 1.49298 14.3367 2.32141 14.3367H4.5357V17C4.5357 17.5523 4.98341 18 5.5357 18H14.4643C15.0166 18 15.4643 17.5523 15.4643 17V14.3367H17.6786C18.507 14.3367 19.1786 13.6651 19.1786 12.8367V5.81631C19.1786 4.98788 18.507 4.31631 17.6786 4.31631H15.3214V2.34692C15.3214 1.5185 14.6498 0.846924 13.8214 0.846924H6.17855ZM14.3214 4.31631V2.34692C14.3214 2.07078 14.0976 1.84692 13.8214 1.84692H6.17855C5.90241 1.84692 5.67855 2.07078 5.67855 2.34692V4.31631H14.3214ZM17.6786 13.3367H15.4643V10.6735C15.4643 10.1212 15.0166 9.67345 14.4643 9.67345H5.5357C4.98341 9.67345 4.5357 10.1212 4.5357 10.6735V13.3367H2.32141C2.04527 13.3367 1.82141 13.1129 1.82141 12.8367V5.81631C1.82141 5.54017 2.04527 5.31631 2.32141 5.31631H17.6786C17.9547 5.31631 18.1786 5.54017 18.1786 5.81631V12.8367C18.1786 13.1129 17.9547 13.3367 17.6786 13.3367ZM14.4643 10.6735L5.5357 10.6735V17H14.4643L14.4643 10.6735Z" fill="#666666"/>
<rect x="7.10718" y="12.449" width="5.78571" height="0.693878" rx="0.346939" fill="#666666"/>
<rect x="7.10718" y="14.5306" width="5.78571" height="0.693878" rx="0.346939" fill="#666666"/>
<rect x="13.5358" y="6.89795" width="2.57143" height="0.693878" rx="0.346939" fill="#666666"/>
</svg>
