<svg width="12" height="14" viewBox="0 0 12 14" fill="none" xmlns="http://www.w3.org/2000/svg">
<path d="M4.82654 5.62878L9.39219 5.66461" stroke="#999999" stroke-width="0.7" stroke-linecap="round" stroke-linejoin="round"/>
<path d="M4.82654 7.15149L9.39219 7.18731" stroke="#999999" stroke-width="0.7" stroke-linecap="round" stroke-linejoin="round"/>
<path d="M4.82654 8.70179L9.39219 8.68188" stroke="#999999" stroke-width="0.7" stroke-linecap="round" stroke-linejoin="round"/>
<path d="M4.82654 10.2064L7.40712 10.2243" stroke="#999999" stroke-width="0.7" stroke-linecap="round" stroke-linejoin="round"/>
<path d="M10.9286 13.391L3.61955 13.3353C3.51831 13.3353 3.43494 13.2517 3.43692 13.1482L3.51434 2.62735C3.51434 2.52585 3.59771 2.44226 3.70094 2.44425L9.42587 2.48804C9.47946 2.48804 9.52909 2.51192 9.56482 2.55371L11.135 4.39874C11.1648 4.43257 11.1787 4.47636 11.1787 4.52015L11.1132 13.2099C11.1132 13.3114 11.0298 13.395 10.9266 13.393L10.9286 13.391Z" stroke="#999999" stroke-width="0.7" stroke-linecap="round" stroke-linejoin="round"/>
<path d="M9.39219 2.48999L9.3783 4.24943C9.3783 4.35094 9.45968 4.43453 9.56092 4.43652L11.0735 4.44846L9.39021 2.49198L9.39219 2.48999Z" stroke="#999999" stroke-width="0.7" stroke-linecap="round" stroke-linejoin="round"/>
<path d="M3.30394 12.3481L2.3531 12.4556C2.25186 12.4675 2.16055 12.3939 2.14863 12.2923L1.00127 2.02828C0.989356 1.92677 1.0628 1.83522 1.16404 1.82327L8.49092 1.00127C8.59216 0.989329 8.68744 1.06297 8.69935 1.16249L8.83434 2.36463" stroke="#999999" stroke-width="0.7" stroke-linecap="round" stroke-linejoin="round"/>
</svg>
