<svg width="18" height="14" viewBox="0 0 18 14" fill="none" xmlns="http://www.w3.org/2000/svg">
<path fill-rule="evenodd" clip-rule="evenodd" d="M7.96401 7.41484C8.3457 7.27806 8.76304 7.27806 9.14473 7.41484L15.9473 9.85257C17.7951 10.5147 17.3198 13.25 15.3569 13.25H1.75182C-0.211024 13.25 -0.686313 10.5147 1.16146 9.85257L7.96401 7.41484ZM8.63871 8.82691C8.58418 8.80737 8.52456 8.80737 8.47004 8.82691L1.66749 11.2646C1.57763 11.2968 1.54409 11.3399 1.52719 11.3718C1.50562 11.4127 1.49343 11.4733 1.50551 11.5428C1.51759 11.6123 1.5495 11.6652 1.58359 11.6964C1.61028 11.7208 1.65637 11.75 1.75182 11.75H15.3569C15.4524 11.75 15.4985 11.7208 15.5252 11.6964C15.5592 11.6652 15.5912 11.6123 15.6032 11.5428C15.6153 11.4733 15.6031 11.4127 15.5816 11.3718C15.5647 11.3399 15.5311 11.2968 15.4413 11.2646L8.63871 8.82691Z" fill="#999999"/>
<path d="M8.65023 4.69084C9.62956 4.69084 10.4235 3.86462 10.4235 2.84542C10.4235 1.82622 9.62956 1 8.65023 1C8.11826 1 7.05432 1.36908 7.05432 2.84542" stroke="#999999" stroke-width="1.2" stroke-linecap="round"/>
<path d="M8.65027 4.6908V7.27438" stroke="#999999" stroke-width="1.2" stroke-linecap="round"/>
</svg>
