<svg width="20" height="20" viewBox="0 0 20 20" fill="none" xmlns="http://www.w3.org/2000/svg">
<mask id="path-1-inside-1_348_5460" fill="white">
<rect y="2" width="20" height="18" rx="1"/>
</mask>
<rect y="2" width="20" height="18" rx="1" stroke="#333333" stroke-width="3" mask="url(#path-1-inside-1_348_5460)"/>
<mask id="path-2-inside-2_348_5460" fill="white">
<rect y="2" width="20" height="7" rx="1"/>
</mask>
<rect y="2" width="20" height="7" rx="1" stroke="#333333" stroke-width="3" mask="url(#path-2-inside-2_348_5460)"/>
<rect x="5.5" y="0.5" width="1" height="5" rx="0.5" fill="#333333" stroke="#333333"/>
<rect x="13.5" y="0.5" width="1" height="5" rx="0.5" fill="#333333" stroke="#333333"/>
<path d="M13.1007 15.9998V14.4218L11.7567 11.5298H12.8967L13.2687 12.5258C13.3887 12.8618 13.5027 13.1738 13.6287 13.5218H13.6527C13.7787 13.1738 13.8987 12.8618 14.0247 12.5258L14.3967 11.5298H15.5187L14.1687 14.4218V15.9998H13.1007Z" fill="#333333"/>
<path d="M8.0918 15.9998L9.4778 11.5298H10.7618L12.1478 15.9998H11.0198L10.4618 13.7678C10.3418 13.3238 10.2278 12.7898 10.1078 12.3338H10.0838C9.9758 12.8018 9.8558 13.3238 9.7418 13.7678L9.1838 15.9998H8.0918ZM9.0338 14.9738V14.1458H11.1938V14.9738H9.0338Z" fill="#333333"/>
<path d="M4.51599 15.9998V11.5298H5.79999C7.16199 11.5298 8.06199 12.1898 8.06199 13.7438C8.06199 15.2978 7.16199 15.9998 5.85999 15.9998H4.51599ZM5.58999 15.1358H5.73399C6.45399 15.1358 6.96399 14.8058 6.96399 13.7438C6.96399 12.6818 6.45399 12.3878 5.73399 12.3878H5.58999V15.1358Z" fill="#333333"/>
</svg>
