<svg width="9" height="7" viewBox="0 0 9 7" fill="none" xmlns="http://www.w3.org/2000/svg">
<path d="M8.08118 6.94164L7.60906 6H1.40221L1.04883 6.94164H8.08118Z" fill="#FFBB33"/>
<path d="M4.53038 0.9109C4.84265 0.9109 5.0958 0.706988 5.0958 0.45545C5.0958 0.203912 4.84265 0 4.53038 0C4.21811 0 3.96497 0.203912 3.96497 0.45545C3.96497 0.706988 4.21811 0.9109 4.53038 0.9109Z" fill="#FFBB33"/>
<path d="M0.565416 2.61879C0.877686 2.61879 1.13083 2.41487 1.13083 2.16334C1.13083 1.9118 0.877686 1.70789 0.565416 1.70789C0.253145 1.70789 0 1.9118 0 2.16334C0 2.41487 0.253145 2.61879 0.565416 2.61879Z" fill="#FFBB33"/>
<path d="M8.43456 2.61879C8.74683 2.61879 8.99997 2.41487 8.99997 2.16334C8.99997 1.9118 8.74683 1.70789 8.43456 1.70789C8.12229 1.70789 7.86914 1.9118 7.86914 2.16334C7.86914 2.41487 8.12229 2.61879 8.43456 2.61879Z" fill="#FFBB33"/>
<path d="M7.60908 5.52915L8.15753 2.7418C8.21549 2.63704 8.07696 2.53115 7.95823 2.58922L6.06691 3.51264C5.99341 3.54908 5.8987 3.52175 5.86478 3.45571L4.65902 1.04866C4.61096 0.951878 4.447 0.951878 4.39894 1.04866L3.19318 3.45571C3.16067 3.52175 3.06597 3.54794 2.99105 3.51264L1.09973 2.58922C0.979583 2.53115 0.842474 2.6359 0.900429 2.7418L1.40082 5.52915" fill="#FFBB33"/>
</svg>
