<svg width="14" height="13" viewBox="0 0 14 13" fill="none" xmlns="http://www.w3.org/2000/svg">
<path d="M12.7662 3.1947H1.25977C1.13066 3.1947 1.026 3.29936 1.026 3.42846V12.0129C1.026 12.142 1.13066 12.2466 1.25977 12.2466H12.7662C12.8953 12.2466 13 12.142 13 12.0129V3.42846C13 3.29936 12.8953 3.1947 12.7662 3.1947Z" stroke="#333333" stroke-miterlimit="10"/>
<path d="M12.987 5.11694H9.1818C8.92206 5.11694 8.66232 5.22084 8.45453 5.41564C8.25973 5.61045 8.15583 5.88317 8.15583 6.14291V6.29876C8.15583 6.46759 8.09089 6.64941 7.96102 6.77928C7.83115 6.90915 7.66232 6.97408 7.48051 6.97408H6.50648C6.33765 6.97408 6.15584 6.90915 6.02597 6.77928C5.8961 6.64941 5.83116 6.48058 5.83116 6.29876V6.14291C5.83116 5.88317 5.72726 5.62344 5.53246 5.41564C5.33765 5.22084 5.06493 5.11694 4.80519 5.11694H1" stroke="#333333" stroke-miterlimit="10"/>
<path d="M4.54541 3.1948V1.74026C4.54541 1.55844 4.62333 1.36364 4.76619 1.22078C4.90905 1.07792 5.09087 1 5.28567 1H8.59735C8.79216 1 8.98696 1.07792 9.1428 1.22078C9.29865 1.37663 9.36359 1.57143 9.36359 1.76623V3.18181" stroke="#333333" stroke-miterlimit="10"/>
</svg>
