<svg width="12" height="12" viewBox="0 0 12 12" fill="none" xmlns="http://www.w3.org/2000/svg">
<path d="M8.4 10.8V1.2H1.2V10.2C1.2 10.5314 1.46863 10.8 1.8 10.8H8.4ZM10.2 12H1.8C0.80589 12 0 11.1941 0 10.2V0.6C0 0.268632 0.268632 0 0.6 0H9C9.33138 0 9.6 0.268632 9.6 0.6V4.8H12V10.2C12 11.1941 11.1941 12 10.2 12ZM9.6 6V10.2C9.6 10.5314 9.86862 10.8 10.2 10.8C10.5314 10.8 10.8 10.5314 10.8 10.2V6H9.6ZM2.4 2.4H6V6H2.4V2.4ZM3.6 3.6V4.8H4.8V3.6H3.6ZM2.4 6.6H7.2V7.8H2.4V6.6ZM2.4 8.4H7.2V9.6H2.4V8.4Z" fill="#999999"/>
</svg>
