<svg width="14" height="13" viewBox="0 0 14 13" fill="none" xmlns="http://www.w3.org/2000/svg">
<path d="M7.63635 0V0.684211H12.0909V2.05263H7.63635V11.6316H10.1818V13H3.81819V11.6316H6.36362V2.05263H1.9091V0.684211H6.36362V0H7.63635ZM2.54546 2.97163L4.34537 4.90686C4.80601 5.40214 5.09092 6.08633 5.09092 6.84211C5.09092 8.35359 3.95128 9.57895 2.54546 9.57895C1.13964 9.57895 0 8.35359 0 6.84211C0 6.08633 0.284909 5.40214 0.745548 4.90686L2.54546 2.97163ZM11.4545 2.97163L13.2545 4.90686C13.7151 5.40214 14 6.08633 14 6.84211C14 8.35359 12.8604 9.57895 11.4545 9.57895C10.0487 9.57895 8.90908 8.35359 8.90908 6.84211C8.90908 6.08633 9.19404 5.40214 9.65464 4.90686L11.4545 2.97163ZM2.54546 4.90686L1.6455 5.8745C1.40753 6.13032 1.27273 6.47304 1.27273 6.84211C1.27273 7.59788 1.84255 8.21053 2.54546 8.21053C3.24837 8.21053 3.81819 7.59788 3.81819 6.84211C3.81819 6.47304 3.68338 6.13032 3.44542 5.8745L2.54546 4.90686ZM11.4545 4.90686L10.5546 5.8745C10.3167 6.13032 10.1818 6.47304 10.1818 6.84211C10.1818 7.59788 10.7517 8.21053 11.4545 8.21053C12.1575 8.21053 12.7273 7.59788 12.7273 6.84211C12.7273 6.47304 12.5925 6.13032 12.3546 5.8745L11.4545 4.90686Z" fill="#999999"/>
</svg>
