<svg width="20" height="20" viewBox="0 0 20 20" fill="none" xmlns="http://www.w3.org/2000/svg">
<mask id="path-1-inside-1_348_5484" fill="white">
<rect y="2" width="20" height="18" rx="1"/>
</mask>
<rect y="2" width="20" height="18" rx="1" stroke="#333333" stroke-width="3" mask="url(#path-1-inside-1_348_5484)"/>
<mask id="path-2-inside-2_348_5484" fill="white">
<rect y="2" width="20" height="7" rx="1"/>
</mask>
<rect y="2" width="20" height="7" rx="1" stroke="#333333" stroke-width="3" mask="url(#path-2-inside-2_348_5484)"/>
<rect x="5.5" y="0.5" width="1" height="5" rx="0.5" fill="#333333" stroke="#333333"/>
<rect x="13.5" y="0.5" width="1" height="5" rx="0.5" fill="#333333" stroke="#333333"/>
<path d="M14.7681 14.9995V12.0195H15.4841V13.1555H16.4641V12.0195H17.1761V14.9995H16.4641V13.7755H15.4841V14.9995H14.7681Z" fill="#333333"/>
<path d="M12.8654 14.9995V12.6155H12.0614V12.0195H14.3894V12.6155H13.5814V14.9995H12.8654Z" fill="#333333"/>
<path d="M9.3147 14.9995V12.0195H10.0427L10.7827 13.4475L11.0747 14.1075H11.0947C11.0587 13.7915 10.9987 13.3635 10.9987 13.0075V12.0195H11.6787V14.9995H10.9507L10.2147 13.5635L9.9227 12.9115H9.9027C9.9347 13.2435 9.9947 13.6515 9.9947 14.0115V14.9995H9.3147Z" fill="#333333"/>
<path d="M7.47826 15.0558C6.66626 15.0558 6.11426 14.4718 6.11426 13.4958C6.11426 12.5198 6.66626 11.9678 7.47826 11.9678C8.29026 11.9678 8.84226 12.5238 8.84226 13.4958C8.84226 14.4718 8.29026 15.0558 7.47826 15.0558ZM7.47826 14.4398C7.87026 14.4398 8.11426 14.0718 8.11426 13.4958C8.11426 12.9198 7.87026 12.5798 7.47826 12.5798C7.08626 12.5798 6.84626 12.9198 6.84626 13.4958C6.84626 14.0718 7.08626 14.4398 7.47826 14.4398Z" fill="#333333"/>
<path d="M2.82239 14.9995V12.0195H3.59439L4.06639 13.3075C4.12639 13.4795 4.17439 13.6675 4.23039 13.8475H4.25039C4.31039 13.6675 4.35839 13.4795 4.41439 13.3075L4.87039 12.0195H5.64639V14.9995H4.99439V13.9795C4.99439 13.6835 5.05039 13.2395 5.09039 12.9475H5.07039L4.82239 13.6595L4.42239 14.7475H4.03039L3.62639 13.6595L3.38639 12.9475H3.37039C3.40639 13.2395 3.46239 13.6835 3.46239 13.9795V14.9995H2.82239Z" fill="#333333"/>
</svg>
