<svg width="13" height="12" viewBox="0 0 13 12" fill="none" xmlns="http://www.w3.org/2000/svg">
<path d="M11.724 2.96094H1.60693V11.0001H11.724V2.96094Z" stroke="#333333" stroke-linejoin="bevel"/>
<path d="M1.00402 1H3.26699V4.39458C3.26699 5.01359 2.76054 5.52078 2.1335 5.52078C1.51048 5.52078 1 5.01758 1 4.39458V1H1.00402Z" fill="white" stroke="#333333" stroke-linejoin="bevel"/>
<path d="M3.27111 1H5.53408V4.39458C5.53408 5.01359 5.02763 5.52078 4.40059 5.52078C3.77757 5.52078 3.26709 5.01758 3.26709 4.39458V1H3.27111Z" fill="white" stroke="#333333" stroke-linejoin="bevel"/>
<path d="M5.53405 1H7.79702V4.39458C7.79702 5.01359 7.29057 5.52078 6.66353 5.52078C6.0405 5.52078 5.53003 5.01758 5.53003 4.39458V1H5.53405Z" fill="white" stroke="#333333" stroke-linejoin="bevel"/>
<path d="M7.79687 1H10.0598V4.39458C10.0598 5.01359 9.55338 5.52078 8.92634 5.52078C8.30332 5.52078 7.79285 5.01758 7.79285 4.39458V1H7.79687Z" fill="white" stroke="#333333" stroke-linejoin="bevel"/>
<path d="M10.0599 1H12.3229V4.39458C12.3229 5.01359 11.8164 5.52078 11.1894 5.52078C10.5664 5.52078 10.0559 5.01758 10.0559 4.39458V1H10.0599Z" fill="white" stroke="#333333" stroke-linejoin="bevel"/>
<path d="M9.55753 7.17004H7.29456V10.9999H9.55753V7.17004Z" stroke="#333333" stroke-linejoin="bevel"/>
</svg>
