<svg width="15" height="14" viewBox="0 0 15 14" fill="none" xmlns="http://www.w3.org/2000/svg">
<path d="M13.6299 10.9603H3.60516V1H1" stroke="#999999" stroke-linecap="round" stroke-linejoin="bevel"/>
<path d="M11.9271 2.69165H5.30774V9.26838H11.9271V2.69165Z" stroke="#999999" stroke-linejoin="bevel"/>
<path d="M4.81833 12.8211C5.33555 12.8211 5.75483 12.4046 5.75483 11.8907C5.75483 11.3768 5.33555 10.9602 4.81833 10.9602C4.30112 10.9602 3.88184 11.3768 3.88184 11.8907C3.88184 12.4046 4.30112 12.8211 4.81833 12.8211Z" fill="white" stroke="#999999" stroke-linejoin="bevel"/>
<path d="M12.4167 12.8211C12.9339 12.8211 13.3532 12.4046 13.3532 11.8907C13.3532 11.3768 12.9339 10.9602 12.4167 10.9602C11.8995 10.9602 11.4802 11.3768 11.4802 11.8907C11.4802 12.4046 11.8995 12.8211 12.4167 12.8211Z" fill="white" stroke="#999999" stroke-linejoin="bevel"/>
<path d="M9.46252 2.69165H7.76831V4.82751H9.46252V2.69165Z" fill="white" stroke="#999999" stroke-linejoin="bevel"/>
</svg>
