<svg width="16" height="18" viewBox="0 0 16 18" fill="none" xmlns="http://www.w3.org/2000/svg">
<path d="M2.51343 12.2593H10.8378V12.8519H2.51343V12.2593Z" fill="#666666"/>
<path d="M4.0271 14.037H9.3244V14.6296H4.0271V14.037Z" fill="#666666"/>
<rect x="2.51343" y="3.37036" width="6.05405" height="0.592592" fill="#666666"/>
<path d="M2.51343 5.14819H10.8378V5.74079H2.51343V5.14819Z" fill="#666666"/>
<rect x="6.29736" y="6.9259" width="4.54054" height="0.592593" fill="#666666"/>
<rect x="8.56763" y="8.70374" width="2.27027" height="0.592592" fill="#666666"/>
<rect x="8.56763" y="10.4814" width="2.27027" height="0.592592" fill="#666666"/>
<rect x="2.51343" y="6.9259" width="3.02703" height="0.592593" fill="#666666"/>
<rect x="2.76343" y="8.95374" width="4.7973" height="1.87037" stroke="#666666" stroke-width="0.5"/>
<rect x="9.32422" y="3.37036" width="1.51351" height="0.592592" fill="#666666"/>
<path d="M13.8649 1C10.5512 1 2.63735 1.00001 2.16953 1.00001C1 1.00001 1 1.88889 1 2.18519V17L2.51351 16.4074L3.64865 17L5.16216 16.4074L6.67568 17L8.18919 16.4074L9.7027 17L11.2162 16.4074L12.6953 17V9M13.8649 1C13.3971 1 12.7297 1 12.6953 1.88889V9M13.8649 1C15 1 15 1.59259 15 1.88889C15 2.12593 15 7.22222 15 9H12.6953" stroke="#666666" stroke-linecap="round"/>
</svg>
