<svg width="15" height="15" viewBox="0 0 15 15" fill="none" xmlns="http://www.w3.org/2000/svg">
<path d="M13.9948 8.53014V6.45948H12.3653C12.2355 5.8523 11.9968 5.28663 11.6699 4.78323L12.822 3.63114L11.3585 2.16766L10.2064 3.31976C9.70299 2.99281 9.13733 2.75409 8.53014 2.62435V1H6.45948V2.62954C5.8523 2.75928 5.28663 2.998 4.78323 3.32495L3.63114 2.17285L2.16766 3.63633L3.31976 4.78842C2.99281 5.29182 2.75409 5.85749 2.62435 6.46467H1V8.53533H2.62954C2.75928 9.14252 2.998 9.70818 3.32495 10.2116L2.17285 11.3637L3.63633 12.8271L4.78842 11.675C5.29182 12.002 5.85749 12.2407 6.46467 12.3705V14H8.53533V12.3705C9.14252 12.2407 9.70818 12.002 10.2116 11.675L11.3637 12.8271L12.8271 11.3637L11.675 10.2116C12.002 9.70818 12.2407 9.14252 12.3705 8.53533H14L13.9948 8.53014Z" stroke="#333333" stroke-width="1.2" stroke-linecap="round" stroke-linejoin="round"/>
<path d="M7.57283 8.55081C8.2908 8.55081 8.87283 7.96878 8.87283 7.25081C8.87283 6.53284 8.2908 5.95081 7.57283 5.95081C6.85486 5.95081 6.27283 6.53284 6.27283 7.25081C6.27283 7.96878 6.85486 8.55081 7.57283 8.55081Z" stroke="#333333" stroke-width="1.2" stroke-linecap="round" stroke-linejoin="round"/>
</svg>
