<svg width="95" height="21" viewBox="0 0 95 21" fill="none" xmlns="http://www.w3.org/2000/svg">
<path d="M38.4337 12.9507C38.4337 15.8891 36.0771 17.6094 31.6444 17.6094C29.9031 17.6094 27.8856 17.3123 27.0066 16.9355V3.2774H32.8792C35.6293 3.2774 37.1822 4.70056 37.1822 6.81437C37.1822 7.86081 36.5836 8.92818 35.759 9.41373C37.1612 9.80719 38.4337 11.042 38.4337 12.9465V12.9507ZM32.6909 5.67166H29.6813V8.75656H32.7285C33.9633 8.75656 34.4698 8.02824 34.4698 7.1869C34.4698 6.34557 33.9633 5.67166 32.695 5.67166H32.6909ZM35.6627 12.9298C35.6627 11.8457 34.9721 10.9666 33.4568 10.9666H29.6771V14.9306C30.238 15.1189 31.23 15.211 31.9583 15.211C34.7251 15.211 35.6627 14.2566 35.6627 12.9298Z" fill="white"/>
<path d="M39.6434 3.74626C39.6434 2.88818 40.2964 2.41937 41.3261 2.41937C42.3558 2.41937 43.0088 2.88818 43.0088 3.74626C43.0088 4.60434 42.3935 5.0564 41.3261 5.0564C40.2587 5.0564 39.6434 4.5876 39.6434 3.74626ZM39.9825 7.05719H42.6572V17.3081H39.9825V7.05719Z" fill="white"/>
<path d="M55.4655 11.0211V17.3039H52.7532V11.6531C52.7532 9.97044 51.9286 8.99935 50.4887 8.99935C49.0488 8.99935 47.8684 10.1379 47.8684 11.9336V17.3039H45.156V7.05297H47.7386V8.58914C48.2995 7.59712 49.6264 6.77252 51.2379 6.77252C53.8205 6.77252 55.4655 8.40078 55.4655 11.0169V11.0211Z" fill="white"/>
<path d="M68.3159 12.0508C68.3159 15.1357 65.9426 17.6053 62.8368 17.6053C59.7309 17.6053 57.4497 15.1734 57.4497 11.9378V2.71655H60.0114V8.29198C60.7606 7.39623 61.8448 6.77674 63.3223 6.77674C66.1477 6.77674 68.3159 9.07891 68.3159 12.0508ZM65.7333 12.2015C65.7333 10.4435 64.5529 9.09565 62.8703 9.09565C61.1876 9.09565 59.9151 10.4602 59.9151 12.2182C59.9151 13.9762 61.129 15.3031 62.8703 15.3031C64.6115 15.3031 65.7333 13.9176 65.7333 12.1973V12.2015Z" fill="white"/>
<path d="M69.9943 2.71655H72.669V14.1437C72.669 14.8553 73.1378 15.1734 73.6233 15.1734C73.9205 15.1734 74.1675 15.098 74.3516 14.985V17.2495C74.0168 17.4755 73.4182 17.6053 72.8364 17.6053C70.9277 17.6053 69.9943 16.2784 69.9943 14.5581V2.71655Z" fill="white"/>
<path d="M75.5696 12.4652V7.0614H78.2611V12.6536C78.2611 14.2232 79.0103 15.3115 80.6386 15.3115C82.2668 15.3115 83.0119 14.2442 83.0119 12.6536V7.0614H85.7033V12.4861C85.7033 15.6464 83.9076 17.6095 80.6344 17.6095C77.3611 17.6095 75.5654 15.6255 75.5654 12.4652H75.5696Z" fill="white"/>
<path d="M95.0001 6.90643V9.58113C94.6443 9.43044 94.2131 9.32161 93.6522 9.32161C92.0072 9.32161 90.7138 10.2927 90.7138 12.1847V17.308H88.0015V7.05712H90.5087V8.83607C91.0529 7.65568 92.3588 6.77667 93.9704 6.77667C94.3261 6.77667 94.7364 6.83109 95.0001 6.90643Z" fill="white"/>
<path d="M5.44986 6.02749H0.577635C0.259517 6.02749 0 5.76798 0 5.44986V0.577635C0 0.259517 0.259517 0 0.577635 0H4.87222C5.32429 0.452062 5.57543 0.703207 6.02749 1.15527V5.44986C6.02749 5.76798 5.76798 6.02749 5.44986 6.02749Z" fill="white"/>
<path d="M12.4483 6.02749H7.57605C7.25793 6.02749 6.99841 5.76798 6.99841 5.44986V0.577635C6.99841 0.259517 7.25793 0 7.57605 0H11.8706L13.0259 1.15527V5.44986C13.0259 5.76798 12.7664 6.02749 12.4483 6.02749Z" fill="#CCE2F2"/>
<path d="M19.4471 6.02749H14.5748C14.2567 6.02749 13.9972 5.76798 13.9972 5.44986V0.577635C13.9972 0.259517 14.2567 0 14.5748 0H18.8694C19.3215 0.452062 19.5726 0.703207 20.0247 1.15527V5.44986C20.0247 5.76798 19.7652 6.02749 19.4471 6.02749Z" fill="#66A9D9"/>
<path d="M5.44986 13.0261H0.577635C0.259517 13.0261 0 12.7666 0 12.4485V7.57623C0 7.25811 0.259517 6.9986 0.577635 6.9986H4.87222C5.32429 7.45066 5.57543 7.7018 6.02749 8.15387V12.4485C6.02749 12.7666 5.76798 13.0261 5.44986 13.0261Z" fill="#CCE2F2"/>
<path d="M12.4483 13.0261H7.57605C7.25793 13.0261 6.99841 12.7666 6.99841 12.4485V7.57623C6.99841 7.25811 7.25793 6.9986 7.57605 6.9986H11.8706L13.0259 8.15387V12.4485C13.0259 12.7666 12.7664 13.0261 12.4483 13.0261Z" fill="#CCE2F2"/>
<path d="M19.4471 13.0261H14.5748C14.2567 13.0261 13.9972 12.7666 13.9972 12.4485V7.57623C13.9972 7.25811 14.2567 6.9986 14.5748 6.9986H18.8694C19.3215 7.45066 19.5726 7.7018 20.0247 8.15387V12.4485C20.0247 12.7666 19.7652 13.0261 19.4471 13.0261Z" fill="#66A9D9"/>
<path d="M5.44986 20.0247H0.577635C0.259517 20.0247 0 19.7652 0 19.447V14.5748C0 14.2567 0.259517 13.9972 0.577635 13.9972H4.87222C5.32429 14.4493 5.57543 14.7004 6.02749 15.1525V19.447C6.02749 19.7652 5.76798 20.0247 5.44986 20.0247Z" fill="#66A9D9"/>
<path d="M12.4483 20.0247H7.57605C7.25793 20.0247 6.99841 19.7652 6.99841 19.447V14.5748C6.99841 14.2567 7.25793 13.9972 7.57605 13.9972H11.8706C12.3227 14.4493 12.5738 14.7004 13.0259 15.1525V19.447C13.0259 19.7652 12.7664 20.0247 12.4483 20.0247Z" fill="#66A9D9"/>
<path d="M19.4471 20.0247H14.5748C14.2567 20.0247 13.9972 19.7652 13.9972 19.447V14.5748C13.9972 14.2567 14.2567 13.9972 14.5748 13.9972H18.8694C19.3215 14.4493 19.5726 14.7004 20.0247 15.1525V19.447C20.0247 19.7652 19.7652 20.0247 19.4471 20.0247Z" fill="#66A9D9"/>
</svg>
