<svg width="11" height="11" viewBox="0 0 11 11" fill="none" xmlns="http://www.w3.org/2000/svg">
<path d="M2.87163 3.17599H0.304366C0.136744 3.17599 0 3.03925 0 2.87163V0.304366C0 0.136744 0.136744 0 0.304366 0H2.56726C2.80546 0.2382 2.93779 0.370533 3.17599 0.608732V2.87163C3.17599 3.03925 3.03925 3.17599 2.87163 3.17599Z" fill="white"/>
<path d="M6.55925 3.17599H3.99199C3.82437 3.17599 3.68762 3.03925 3.68762 2.87163V0.304366C3.68762 0.136744 3.82437 0 3.99199 0H6.25488L6.86362 0.608732V2.87163C6.86362 3.03925 6.72687 3.17599 6.55925 3.17599Z" fill="#CCE2F2"/>
<path d="M10.247 3.17599H7.67973C7.51211 3.17599 7.37537 3.03925 7.37537 2.87163V0.304366C7.37537 0.136744 7.51211 0 7.67973 0H9.94263C10.1808 0.2382 10.3132 0.370533 10.5514 0.608732V2.87163C10.5514 3.03925 10.4146 3.17599 10.247 3.17599Z" fill="#66A9D9"/>
<path d="M2.87163 6.86362H0.304366C0.136744 6.86362 0 6.72687 0 6.55925V3.99199C0 3.82437 0.136744 3.68762 0.304366 3.68762H2.56726C2.80546 3.92582 2.93779 4.05815 3.17599 4.29635V6.55925C3.17599 6.72687 3.03925 6.86362 2.87163 6.86362Z" fill="#CCE2F2"/>
<path d="M6.55925 6.86362H3.99199C3.82437 6.86362 3.68762 6.72687 3.68762 6.55925V3.99199C3.68762 3.82437 3.82437 3.68762 3.99199 3.68762H6.25488L6.86362 4.29635V6.55925C6.86362 6.72687 6.72687 6.86362 6.55925 6.86362Z" fill="#CCE2F2"/>
<path d="M10.247 6.86362H7.67973C7.51211 6.86362 7.37537 6.72687 7.37537 6.55925V3.99199C7.37537 3.82437 7.51211 3.68762 7.67973 3.68762H9.94263C10.1808 3.92582 10.3132 4.05815 10.5514 4.29635V6.55925C10.5514 6.72687 10.4146 6.86362 10.247 6.86362Z" fill="#66A9D9"/>
<path d="M2.87163 10.5514H0.304366C0.136744 10.5514 0 10.4146 0 10.247V7.67973C0 7.51211 0.136744 7.37537 0.304366 7.37537H2.56726C2.80546 7.61357 2.93779 7.7459 3.17599 7.9841V10.247C3.17599 10.4146 3.03925 10.5514 2.87163 10.5514Z" fill="#66A9D9"/>
<path d="M6.55925 10.5514H3.99199C3.82437 10.5514 3.68762 10.4146 3.68762 10.247V7.67973C3.68762 7.51211 3.82437 7.37537 3.99199 7.37537H6.25488C6.49308 7.61357 6.62542 7.7459 6.86362 7.9841V10.247C6.86362 10.4146 6.72687 10.5514 6.55925 10.5514Z" fill="#66A9D9"/>
<path d="M10.247 10.5514H7.67973C7.51211 10.5514 7.37537 10.4146 7.37537 10.247V7.67973C7.37537 7.51211 7.51211 7.37537 7.67973 7.37537H9.94263C10.1808 7.61357 10.3132 7.7459 10.5514 7.9841V10.247C10.5514 10.4146 10.4146 10.5514 10.247 10.5514Z" fill="#66A9D9"/>
</svg>
