<svg width="119" height="25" viewBox="0 0 119 25" fill="none" xmlns="http://www.w3.org/2000/svg">
<g clip-path="url(#clip0_35_191)">
<path d="M33.824 24.5558V24.1273C33.9655 24.2213 34.1595 24.305 34.406 24.305C34.8254 24.305 35.0037 24.0959 35.0037 23.8869C35.0037 23.7092 34.8988 23.5681 34.6681 23.4584L34.3535 23.3068C34.0389 23.1553 33.8345 22.9358 33.8345 22.6223C33.8345 22.1833 34.2225 21.8698 34.8359 21.8698C35.0561 21.8698 35.2396 21.9116 35.3288 21.9638V22.3923C35.2187 22.3244 35.0299 22.2669 34.8412 22.2669C34.4951 22.2669 34.3063 22.408 34.3063 22.617C34.3063 22.7581 34.3902 22.8574 34.5895 22.9515L34.9041 23.103C35.2763 23.2807 35.4494 23.5315 35.4494 23.8712C35.4494 24.305 35.1453 24.7073 34.4322 24.7073C34.1805 24.7073 33.9708 24.6394 33.824 24.5506V24.5558Z" fill="#0070C0"/>
<path d="M38.6268 24.655L38.3646 22.9253L37.447 24.4094H37.3579L36.4194 22.9148L36.152 24.655H35.7063L36.152 21.8854H36.2306L37.4051 23.7405L38.5534 21.8854H38.632L39.0724 24.655H38.6268Z" fill="#0070C0"/>
<path d="M41.0596 24.0855H39.9218L39.6806 24.6551H39.1772L40.4618 21.8698H40.5195L41.8041 24.6551H41.3007L41.0596 24.0855ZM40.4933 22.7372L40.0843 23.6988H40.897L40.4933 22.7372Z" fill="#0070C0"/>
<path d="M43.8123 24.6551L43.2775 23.7824C43.1831 23.7929 43.0888 23.7981 42.9891 23.7981C42.8109 23.7981 42.6798 23.7824 42.5644 23.7615V24.6551H42.1135V21.9064H43.1412C43.87 21.9064 44.2632 22.2408 44.2632 22.8052C44.2632 23.2285 44.0588 23.5159 43.7075 23.6675L44.3209 24.6499H43.8123V24.6551ZM43.7861 22.8157C43.7861 22.5126 43.6183 22.314 43.1045 22.314H42.5644V23.3696C42.6745 23.3905 42.8109 23.4009 42.9839 23.4009C43.5502 23.4009 43.7861 23.1919 43.7861 22.8157Z" fill="#0070C0"/>
<path d="M45.1284 22.3192H44.4468V21.9064H46.2609V22.3192H45.5793V24.6499H45.1284V22.3192Z" fill="#0070C0"/>
<path d="M47.6451 21.9064H48.0908V24.6551H47.6451V21.9064Z" fill="#0070C0"/>
<path d="M51.2104 21.9063V24.6655H51.137L49.2128 22.8365V24.655H48.7671V21.8906H48.8353L50.7595 23.6987V21.9063H51.2052H51.2104Z" fill="#0070C0"/>
<path d="M52.3063 22.3192H51.6246V21.9064H53.4388V22.3192H52.7572V24.6499H52.3063V22.3192Z" fill="#0070C0"/>
<path d="M55.6462 24.2423V24.6551H53.8583V21.9064H55.6095V22.3192H54.2882V22.9881H55.5466V23.4009H54.2882V24.2371H55.6462V24.2423Z" fill="#0070C0"/>
<path d="M56.438 23.333C56.438 23.8869 56.8155 24.2945 57.4866 24.2945C57.6124 24.2945 57.7435 24.2631 57.8484 24.2266V23.2494H58.2941V24.4983C58.163 24.5976 57.8222 24.7126 57.4656 24.7126C56.5428 24.7126 55.9713 24.1116 55.9713 23.333C55.9713 22.5021 56.59 21.8698 57.5548 21.8698C57.8589 21.8698 58.1472 21.9377 58.3203 22.037V22.4655C58.1315 22.3714 57.8484 22.2826 57.5757 22.2826C56.8574 22.2826 56.4327 22.7163 56.4327 23.333H56.438Z" fill="#0070C0"/>
<path d="M60.5697 24.6551L60.0348 23.7824C59.9405 23.7929 59.8461 23.7981 59.7465 23.7981C59.5682 23.7981 59.4371 23.7824 59.3218 23.7615V24.6551H58.8708V21.9064H59.8985C60.6273 21.9064 61.0206 22.2408 61.0206 22.8052C61.0206 23.2285 60.8161 23.5159 60.4648 23.6675L61.0782 24.6499H60.5697V24.6551ZM60.5434 22.8157C60.5434 22.5126 60.3757 22.314 59.8618 22.314H59.3218V23.3696C59.4319 23.3905 59.5682 23.4009 59.7412 23.4009C60.3075 23.4009 60.5434 23.1919 60.5434 22.8157Z" fill="#0070C0"/>
<path d="M62.9501 24.0855H61.8123L61.5711 24.6551H61.0677L62.3523 21.8698H62.41L63.6946 24.6551H63.1912L62.9501 24.0855ZM62.3786 22.7372L61.9696 23.6988H62.7823L62.3786 22.7372Z" fill="#0070C0"/>
<path d="M64.0982 22.3192H63.4166V21.9064H65.2308V22.3192H64.5492V24.6499H64.0982V22.3192Z" fill="#0070C0"/>
<path d="M67.4382 24.2423V24.6551H65.6503V21.9064H67.4015V22.3192H66.0802V22.9881H67.3386V23.4009H66.0802V24.2371H67.4382V24.2423Z" fill="#0070C0"/>
<path d="M70.3429 23.2755C70.3429 24.1169 69.719 24.7126 68.7962 24.7126C68.4711 24.7126 68.1093 24.6499 67.952 24.582V21.9064H68.8276C69.7295 21.9064 70.3429 22.4864 70.3429 23.2703V23.2755ZM69.8815 23.2807C69.8815 22.7582 69.5093 22.3192 68.8276 22.3192H68.3925V24.258C68.5288 24.2893 68.6913 24.2998 68.8329 24.2998C69.5145 24.2998 69.8815 23.8451 69.8815 23.2807Z" fill="#0070C0"/>
<path d="M74.5638 24.655L74.3016 22.9253L73.3893 24.4094H73.3002L72.3616 22.9148L72.0942 24.655H71.6486L72.0942 21.8854H72.1729L73.3474 23.7405L74.4956 21.8854H74.5743L75.0147 24.655H74.569H74.5638Z" fill="#0070C0"/>
<path d="M76.9966 24.0855H75.8588L75.6176 24.6551H75.1143L76.3989 21.8698H76.4565L77.7411 24.6551H77.2378L76.9966 24.0855ZM76.4303 22.7372L76.0213 23.6988H76.834L76.4303 22.7372Z" fill="#0070C0"/>
<path d="M80.4886 21.9063V24.6655H80.4152L78.491 22.8365V24.655H78.0453V21.8906H78.1134L80.0377 23.6987V21.9063H80.4834H80.4886Z" fill="#0070C0"/>
<path d="M82.675 24.0855H81.5373L81.2961 24.6551H80.7927L82.0773 21.8698H82.135L83.4196 24.6551H82.9162L82.675 24.0855ZM82.1035 22.7372L81.6946 23.6988H82.5073L82.1035 22.7372Z" fill="#0070C0"/>
<path d="M83.8547 23.333C83.8547 23.8869 84.2322 24.2945 84.9034 24.2945C85.0292 24.2945 85.1603 24.2631 85.2651 24.2266V23.2494H85.7108V24.4983C85.5797 24.5976 85.2389 24.7126 84.8824 24.7126C83.9596 24.7126 83.3881 24.1116 83.3881 23.333C83.3881 22.5021 84.0068 21.8698 84.9715 21.8698C85.2756 21.8698 85.564 21.9377 85.737 22.037V22.4655C85.5483 22.3714 85.2651 22.2826 84.9925 22.2826C84.2742 22.2826 83.8495 22.7163 83.8495 23.333H83.8547Z" fill="#0070C0"/>
<path d="M88.0703 24.2423V24.6551H86.2823V21.9064H88.0336V22.3192H86.7123V22.9881H87.9707V23.4009H86.7123V24.2371H88.0703V24.2423Z" fill="#0070C0"/>
<path d="M91.3106 24.655L91.0484 22.9253L90.1309 24.4094H90.0417L89.1032 22.9148L88.8358 24.655H88.3901L88.8358 21.8854H88.9145L90.0889 23.7405L91.2372 21.8854H91.3159L91.7563 24.655H91.3106Z" fill="#0070C0"/>
<path d="M94.0003 24.2423V24.6551H92.2124V21.9064H93.9636V22.3192H92.6423V22.9881H93.9007V23.4009H92.6423V24.2371H94.0003V24.2423Z" fill="#0070C0"/>
<path d="M96.9575 21.9063V24.6655H96.8841L94.9598 22.8365V24.655H94.5142V21.8906H94.5823L96.5066 23.6987V21.9063H96.9523H96.9575Z" fill="#0070C0"/>
<path d="M98.0533 22.3192H97.3717V21.9064H99.1859V22.3192H98.5042V24.6499H98.0533V22.3192Z" fill="#0070C0"/>
<path d="M100.428 24.5558V24.1273C100.57 24.2213 100.764 24.305 101.01 24.305C101.43 24.305 101.608 24.0959 101.608 23.8869C101.608 23.7092 101.503 23.5681 101.273 23.4584L100.958 23.3068C100.643 23.1553 100.439 22.9358 100.439 22.6223C100.439 22.1833 100.827 21.8698 101.44 21.8698C101.661 21.8698 101.844 21.9116 101.933 21.9638V22.3923C101.823 22.3244 101.634 22.2669 101.446 22.2669C101.1 22.2669 100.911 22.408 100.911 22.617C100.911 22.7581 100.995 22.8574 101.194 22.9515L101.509 23.103C101.881 23.2807 102.054 23.5315 102.054 23.8712C102.054 24.305 101.75 24.7073 101.037 24.7073C100.785 24.7073 100.575 24.6394 100.428 24.5506V24.5558Z" fill="#0070C0"/>
<path d="M102.321 23.2912C102.321 22.4864 102.935 21.8698 103.742 21.8698C104.55 21.8698 105.163 22.4864 105.163 23.2912C105.163 24.0959 104.555 24.7126 103.742 24.7126C102.93 24.7126 102.321 24.0959 102.321 23.2912ZM104.712 23.2912C104.712 22.7163 104.303 22.2826 103.747 22.2826C103.192 22.2826 102.783 22.7163 102.783 23.2912C102.783 23.866 103.186 24.2893 103.747 24.2893C104.308 24.2893 104.712 23.8555 104.712 23.2912Z" fill="#0070C0"/>
<path d="M107.019 24.2423V24.6551H105.635V21.9064H106.086V24.2371H107.014L107.019 24.2423Z" fill="#0070C0"/>
<path d="M107.281 23.495V21.9064H107.732V23.5107C107.732 23.9758 108.015 24.2893 108.482 24.2893C108.949 24.2893 109.232 23.9758 109.232 23.5107V21.9064H109.683V23.495C109.683 24.2423 109.206 24.7126 108.482 24.7126C107.759 24.7126 107.281 24.2423 107.281 23.495Z" fill="#0070C0"/>
<path d="M110.737 22.3192H110.055V21.9064H111.869V22.3192H111.188V24.6499H110.737V22.3192Z" fill="#0070C0"/>
<path d="M112.304 21.9064H112.75V24.6551H112.304V21.9064Z" fill="#0070C0"/>
<path d="M113.243 23.2912C113.243 22.4864 113.856 21.8698 114.664 21.8698C115.471 21.8698 116.085 22.4864 116.085 23.2912C116.085 24.0959 115.477 24.7126 114.664 24.7126C113.851 24.7126 113.243 24.0959 113.243 23.2912ZM115.629 23.2912C115.629 22.7163 115.22 22.2826 114.664 22.2826C114.108 22.2826 113.699 22.7163 113.699 23.2912C113.699 23.866 114.103 24.2893 114.664 24.2893C115.225 24.2893 115.629 23.8555 115.629 23.2912Z" fill="#0070C0"/>
<path d="M119 21.9063V24.6655H118.927L117.002 22.8365V24.655H116.557V21.8906H116.625L118.549 23.6987V21.9063H118.995H119Z" fill="#0070C0"/>
<path d="M48.1432 13.3361C48.1432 17.0046 45.1913 19.1524 39.6387 19.1524C37.4575 19.1524 34.9303 18.7814 33.8292 18.3111V1.26465H41.1855C44.6302 1.26465 46.5755 3.0414 46.5755 5.68041C46.5755 6.98685 45.8257 8.31941 44.7928 8.9256C46.5493 9.41682 48.1432 10.9584 48.1432 13.3361ZM40.9495 4.25378H37.1796V8.10516H40.9967C42.5434 8.10516 43.1779 7.19588 43.1779 6.1455C43.1779 5.09513 42.5434 4.25378 40.9548 4.25378H40.9495ZM44.6722 13.3152C44.6722 11.9618 43.8071 10.8644 41.909 10.8644H37.1744V15.8131C37.877 16.0483 39.1196 16.1633 40.0319 16.1633C43.4977 16.1633 44.6722 14.9718 44.6722 13.3152Z" fill="#0070C0"/>
<path d="M49.6584 1.84992C49.6584 0.778644 50.4764 0.193359 51.7662 0.193359C53.0561 0.193359 53.874 0.778644 53.874 1.84992C53.874 2.9212 53.1032 3.48558 51.7662 3.48558C50.4292 3.48558 49.6584 2.9003 49.6584 1.84992ZM50.0831 5.98349H53.4336V18.7814H50.0831V5.98349Z" fill="#0070C0"/>
<path d="M69.4779 10.9323V18.7762H66.0803V11.7214C66.0803 9.62067 65.0474 8.4083 63.2437 8.4083C61.44 8.4083 59.9614 9.8297 59.9614 12.0716V18.7762H56.5638V5.98355H59.7989V7.9014C60.5015 6.6629 62.1636 5.63342 64.1822 5.63342C67.4173 5.63342 69.4779 7.66624 69.4779 10.9323Z" fill="#0070C0"/>
<path d="M85.5745 12.2178C85.5745 16.0691 82.6016 19.1523 78.7111 19.1523C74.8207 19.1523 71.9631 16.1162 71.9631 12.0767V0.564331H75.172V7.52503C76.1105 6.40672 77.4685 5.63331 79.3194 5.63331C82.8585 5.63331 85.5745 8.50747 85.5745 12.2178ZM82.3395 12.4059C82.3395 10.2111 80.8609 8.52838 78.7531 8.52838C76.6453 8.52838 75.0514 10.232 75.0514 12.4268C75.0514 14.6216 76.5719 16.2782 78.7531 16.2782C80.9343 16.2782 82.3395 14.5484 82.3395 12.4007V12.4059Z" fill="#0070C0"/>
<path d="M87.677 0.564331H91.0274V14.8306C91.0274 15.719 91.6147 16.1162 92.2229 16.1162C92.5951 16.1162 92.9045 16.0221 93.1352 15.881V18.7081C92.7157 18.9903 91.9659 19.1523 91.2371 19.1523C88.8462 19.1523 87.677 17.4958 87.677 15.348V0.564331Z" fill="#0070C0"/>
<path d="M94.661 12.73V5.98352H98.0324V12.9651C98.0324 14.9248 98.9709 16.2835 101.011 16.2835C103.05 16.2835 103.983 14.9509 103.983 12.9651V5.98352H107.355V12.7561C107.355 16.7015 105.105 19.1524 101.005 19.1524C96.9051 19.1524 94.6558 16.6754 94.6558 12.73H94.661Z" fill="#0070C0"/>
<path d="M119 5.79542V9.13468C118.554 8.94655 118.014 8.81068 117.312 8.81068C115.251 8.81068 113.631 10.0231 113.631 12.3851V18.7814H110.233V5.98355H113.374V8.20449C114.056 6.73083 115.692 5.63342 117.71 5.63342C118.156 5.63342 118.67 5.70136 119 5.79542Z" fill="#0070C0"/>
<path d="M6.82667 7.52508H0.723564C0.325079 7.52508 0 7.20109 0 6.80393V0.721154C0 0.323997 0.325079 0 0.723564 0H6.1031C6.66937 0.564381 6.98396 0.877926 7.55023 1.44231V6.80393C7.55023 7.20109 7.22515 7.52508 6.82667 7.52508Z" fill="#0070C0"/>
<path d="M15.5933 7.52508H9.49017C9.09168 7.52508 8.7666 7.20109 8.7666 6.80393V0.721154C8.7666 0.323997 9.09168 0 9.49017 0H14.8697C15.436 0.564381 15.7506 0.877926 16.3168 1.44231V6.80393C16.3168 7.20109 15.9918 7.52508 15.5933 7.52508Z" fill="#338DCD"/>
<path d="M24.36 7.52508H18.2569C17.8584 7.52508 17.5333 7.20109 17.5333 6.80393V0.721154C17.5333 0.323997 17.8584 0 18.2569 0H23.6364C24.2027 0.564381 24.5173 0.877926 25.0836 1.44231V6.80393C25.0836 7.20109 24.7585 7.52508 24.36 7.52508Z" fill="#66A9D9"/>
<path d="M6.82667 16.2625H0.723564C0.325079 16.2625 0 15.9385 0 15.5414V9.45858C0 9.06142 0.325079 8.73743 0.723564 8.73743H6.1031C6.66937 9.30181 6.98396 9.61535 7.55023 10.1797V15.5414C7.55023 15.9385 7.22515 16.2625 6.82667 16.2625Z" fill="#338DCD"/>
<path d="M15.5933 16.2625H9.49017C9.09168 16.2625 8.7666 15.9385 8.7666 15.5414V9.45858C8.7666 9.06142 9.09168 8.73743 9.49017 8.73743H14.8697C15.436 9.30181 15.7506 9.61535 16.3168 10.1797V15.5414C16.3168 15.9385 15.9918 16.2625 15.5933 16.2625Z" fill="#338DCD"/>
<path d="M24.36 16.2625H18.2569C17.8584 16.2625 17.5333 15.9385 17.5333 15.5414V9.45858C17.5333 9.06142 17.8584 8.73743 18.2569 8.73743H23.6364C24.2027 9.30181 24.5173 9.61535 25.0836 10.1797V15.5414C25.0836 15.9385 24.7585 16.2625 24.36 16.2625Z" fill="#66A9D9"/>
<path d="M6.82667 25.0001H0.723564C0.325079 25.0001 0 24.6761 0 24.2789V18.1961C0 17.799 0.325079 17.475 0.723564 17.475H6.1031C6.66937 18.0394 6.98396 18.3529 7.55023 18.9173V24.2789C7.55023 24.6761 7.22515 25.0001 6.82667 25.0001Z" fill="#66A9D9"/>
<path d="M15.5933 25.0001H9.49017C9.09168 25.0001 8.7666 24.6761 8.7666 24.2789V18.1961C8.7666 17.799 9.09168 17.475 9.49017 17.475H14.8697C15.436 18.0394 15.7506 18.3529 16.3168 18.9173V24.2789C16.3168 24.6761 15.9918 25.0001 15.5933 25.0001Z" fill="#66A9D9"/>
<path d="M24.36 25.0001H18.2569C17.8584 25.0001 17.5333 24.6761 17.5333 24.2789V18.1961C17.5333 17.799 17.8584 17.475 18.2569 17.475H23.6364C24.2027 18.0394 24.5173 18.3529 25.0836 18.9173V24.2789C25.0836 24.6761 24.7585 25.0001 24.36 25.0001Z" fill="#66A9D9"/>
</g>
<defs>
<clipPath id="clip0_35_191">
<rect width="119" height="25" fill="white"/>
</clipPath>
</defs>
</svg>
