<svg width="37" height="9" viewBox="0 0 37 9" fill="none" xmlns="http://www.w3.org/2000/svg">
<path d="M6.25138 5.82396C6.25138 7.37226 5.00966 8.27874 2.67398 8.27874C1.75647 8.27874 0.69339 8.12214 0.230225 7.92364V0.726929H3.32462C4.77366 0.726929 5.59192 1.47682 5.59192 2.59062C5.59192 3.14201 5.27653 3.70442 4.84203 3.96027C5.58089 4.16759 6.25138 4.81823 6.25138 5.82175V5.82396ZM3.22536 1.9885H1.63957V3.614H3.24522C3.89585 3.614 4.16272 3.23023 4.16272 2.78691C4.16272 2.3436 3.89585 1.9885 3.22757 1.9885H3.22536ZM4.79131 5.81293C4.79131 5.24169 4.42739 4.77853 3.62898 4.77853H1.63737V6.86718C1.93291 6.96643 2.45563 7.01496 2.83939 7.01496C4.29726 7.01496 4.79131 6.51209 4.79131 5.81293Z" fill="white"/>
<path d="M6.88879 0.97394C6.88879 0.521802 7.23286 0.27478 7.77543 0.27478C8.31799 0.27478 8.66206 0.521802 8.66206 0.97394C8.66206 1.42608 8.33784 1.66428 7.77543 1.66428C7.21301 1.66428 6.88879 1.41726 6.88879 0.97394ZM7.06744 2.71853H8.47679V8.11993H7.06744V2.71853Z" fill="white"/>
<path d="M15.2257 4.80724V8.11777H13.7965V5.14028C13.7965 4.25364 13.362 3.74196 12.6033 3.74196C11.8446 3.74196 11.2227 4.34187 11.2227 5.28805V8.11777H9.79346V2.71638H11.1543V3.52581C11.4498 3.0031 12.149 2.5686 12.9981 2.5686C14.359 2.5686 15.2257 3.42656 15.2257 4.80503V4.80724Z" fill="white"/>
<path d="M21.9969 5.34978C21.9969 6.97527 20.7463 8.27654 19.1098 8.27654C17.4733 8.27654 16.2712 6.99512 16.2712 5.29023V0.431396H17.621V3.36919C18.0158 2.8972 18.5871 2.57078 19.3656 2.57078C20.8544 2.57078 21.9969 3.78384 21.9969 5.34978ZM20.636 5.42918C20.636 4.50284 20.0141 3.79266 19.1274 3.79266C18.2408 3.79266 17.5703 4.51167 17.5703 5.438C17.5703 6.36433 18.2099 7.06349 19.1274 7.06349C20.0449 7.06349 20.636 6.33345 20.636 5.42697V5.42918Z" fill="white"/>
<path d="M22.8812 0.431396H24.2906V6.45255C24.2906 6.8275 24.5376 6.99512 24.7934 6.99512C24.95 6.99512 25.0802 6.95542 25.1772 6.89587V8.08907C25.0008 8.20817 24.6854 8.27654 24.3788 8.27654C23.3731 8.27654 22.8812 7.57738 22.8812 6.6709V0.431396Z" fill="white"/>
<path d="M25.819 5.56807V2.7207H27.2371V5.66732C27.2371 6.4944 27.6319 7.06785 28.4899 7.06785C29.3479 7.06785 29.7405 6.50543 29.7405 5.66732V2.7207H31.1586V5.5791C31.1586 7.24429 30.2124 8.27869 28.4877 8.27869C26.763 8.27869 25.8168 7.23326 25.8168 5.56807H25.819Z" fill="white"/>
<path d="M36.0572 2.63917V4.04852C35.8697 3.96912 35.6425 3.91178 35.347 3.91178C34.4802 3.91178 33.7987 4.42346 33.7987 5.42037V8.11997H32.3695V2.71857H33.6906V3.65593C33.9774 3.03397 34.6655 2.5708 35.5146 2.5708C35.7021 2.5708 35.9182 2.59947 36.0572 2.63917Z" fill="white"/>
</svg>
