<svg width="203" height="329" viewBox="0 0 203 329" fill="none" xmlns="http://www.w3.org/2000/svg">
<path d="M36.128 308.004C36.5357 308.108 35.288 308.066 34.868 308.054C34.6173 308.054 34.3706 307.991 34.1239 307.961C32.7212 307.803 31.4857 307.468 30.0463 307.446C29.8628 307.446 28.7965 307.578 28.7781 307.225C28.7598 306.872 29.1859 305.792 28.4479 305.648C27.141 305.401 26.7149 306.984 26.1236 307.141C25.0777 307.428 22.5252 307.255 21.3875 307.105C19.206 306.818 17.9746 308.467 15.9603 308.617C14.9613 308.686 14.3925 307.843 13.2222 308.118C12.4332 308.304 12.737 309.364 12.1743 309.434C11.2181 309.557 10.3006 308.708 9.40966 309.073C9.09569 309.203 8.82049 309.619 8.52282 309.815C6.37598 311.228 5.20165 313.098 3.79693 315.117C3.28519 315.855 2.44927 316.25 2.04559 317.093C1.79482 317.617 1.88655 318.289 1.72549 318.827C1.58481 319.304 0.979305 319.327 0.822318 319.772C0.538927 320.569 0.787649 322.441 1.11793 323.211C1.44822 323.98 2.25152 323.952 2.77549 324.459C3.15063 324.821 3.10984 325.479 3.47274 325.872C3.59099 326.002 4.31474 326.004 4.52066 326.117C5.40549 326.608 5.5584 328.208 6.81837 328.111C7.65224 328.053 7.53602 326.897 7.78068 326.384C8.12319 325.667 8.95707 325.531 9.68492 325.441C10.1518 325.38 10.4556 326.147 10.8552 326.269C11.2548 326.39 11.5728 326.069 11.9194 326.191C12.4577 326.372 12.4373 327.188 13.0917 327.253C13.6605 327.309 14.0969 326.855 14.6963 326.974C15.0347 327.04 14.9817 327.572 15.261 327.616C15.8727 327.73 16.0765 326.859 16.6331 326.829C17.098 326.805 17.363 327.58 17.9583 327.479C18.4028 327.399 18.4008 326.986 18.6719 326.881C19.0919 326.731 20.0175 327.327 20.519 327.301C21.0899 327.273 21.2958 326.877 21.7912 326.775C22.4294 326.637 23.039 326.946 23.6649 326.942C23.9299 326.942 24.3112 326.743 24.5558 326.787C25.2633 326.921 25.6731 327.431 26.4499 327.331C27.4163 327.208 28.0422 325.876 29.1574 325.818C29.8343 325.782 31.0086 325.768 31.6549 325.966C32.3012 326.163 32.9332 326.546 33.6325 326.458C34.6927 326.325 35.4185 325.398 36.444 325.262C37.8447 325.085 39.7815 324.941 40.8519 323.841C42.1751 322.473 42.1649 320.85 43.0293 319.357C43.3392 318.817 44.4177 318.058 44.4136 317.43C44.4096 316.802 43.4636 316.574 43.433 316.006C43.3596 314.675 43.6715 313.365 43.0252 312.059C42.7337 311.475 42.0873 311.531 41.6694 311.078C40.8192 310.159 40.9619 308.854 39.3248 308.722C38.5786 308.664 38.1016 307.975 37.4288 307.943C37.2147 307.949 36.1259 308.002 36.128 308.004Z" fill="#6163A1" stroke="white" stroke-miterlimit="10"/>
<path d="M85.6525 147.726C85.0409 147.084 84.9675 145.27 84.6719 144.403C84.1948 143.007 82.4109 142.226 81.2345 143.444C80.2029 144.51 80.2477 145.939 78.7635 146.731C77.8093 147.239 76.7553 147.028 75.8358 147.443C73.7277 148.393 70.4228 151.938 70.2108 154.19C70.1027 155.329 71.3851 160.233 72.1048 161.14C72.5839 161.738 73.3586 161.991 73.8194 162.639C74.111 163.047 74.8225 164.748 75.5014 164.728C77.161 164.684 76.8185 161.293 78.6004 161.666C80.5678 162.079 79.9928 164.172 80.5943 165.454C80.7105 165.699 81.7075 166.325 81.7911 166C81.9664 165.302 82.8778 165.352 83.4221 165.029C84.0011 164.68 84.4701 163.803 84.8024 163.251C85.6892 161.782 86.988 160.213 87.3488 158.504C87.6118 157.268 86.7372 156.094 87.0981 154.886C87.6281 153.122 89.4202 152.137 88.829 150.032C88.2805 148.098 86.7209 148.838 85.6525 147.726Z" fill="#6163A1" stroke="white" stroke-width="2" stroke-miterlimit="10"/>
<path d="M154.78 182.98C153.809 182.245 152.741 183.162 151.646 183.036C149.177 182.747 148.111 181.194 145.721 182.103C145.487 182.191 145.338 182.001 145.124 181.975C144.378 181.89 144.29 182.647 144.166 183.13C143.942 184.064 143.774 185.009 143.662 185.962C143.574 186.616 143.776 187.286 143.611 187.938C143.063 190.131 139.393 191.997 140.734 194.439C140.967 194.859 141.442 195.094 141.754 195.435C142.738 196.548 143.568 197.357 145.167 196.749C146.082 196.4 146.543 195.334 147.475 195.059C148.476 194.766 149.405 195.579 150.453 195.124C151.238 194.783 151.577 193.296 151.677 193.268C153.026 192.906 155.779 193.354 155.929 191.305C155.991 190.466 155.114 189.84 154.949 189.024C154.588 187.176 156.627 184.38 154.78 182.98Z" fill="#6163A1" stroke="white" stroke-width="2" stroke-miterlimit="10"/>
<path d="M164.079 240.542C164.315 237.876 165.018 236.2 166.647 234.063C167.033 233.557 167.298 233.036 167.856 232.681C168.945 231.99 170.454 232.59 171.543 231.812C173.455 230.445 174.081 228.15 175.84 226.745C176.566 226.165 177.861 225.591 178.833 225.732C179.351 225.808 179.792 226.033 180.273 225.666C180.839 225.232 182.069 223.661 183.162 223.123C182.66 222.682 181.993 222.397 181.423 222.431C181.015 222.453 180.532 222.794 180.128 222.602C179.582 222.343 180.075 221.097 180.181 220.745C180.57 219.449 180.835 218.446 179.628 217.467C178.532 216.576 176.454 217.567 175.165 217.427C173.074 217.204 172.301 215.617 170.845 214.465C170.246 213.991 169.214 213.718 168.825 213.046C168.317 212.157 169.72 211.636 169.757 210.789C169.781 210.255 168.972 209.776 169.216 209.172C168.853 209.212 168.466 209.252 168.03 209.276C167.243 209.32 166.515 209.009 165.74 208.961C164.464 208.883 163.165 209.471 161.991 209.914C160.376 210.512 158.729 213.052 156.796 212.787C156.027 212.681 156.184 211.353 155.369 211.176C153.057 210.68 149.399 212.063 147.55 210.265C146.908 209.639 147.399 208.624 146.798 208.15C146.156 207.639 144.504 207.873 144.211 206.816C143.856 205.534 145.734 204.308 143.285 203.971C141.318 203.7 141.788 205.676 140.91 206.579C140.274 207.233 138.679 207.741 137.782 207.835C134.288 208.196 135.497 205.919 133.044 205.225C129.804 204.308 126.063 204.962 122.767 204.029C120.387 203.358 123.378 202.048 123.554 200.878C123.882 198.396 123.32 195.879 121.963 193.757C119.607 189.969 113.88 192.561 110.438 191.193C109.203 190.705 107.906 189.997 107.349 188.703C107.074 188.068 107.514 187.665 106.862 187.059C106.35 186.584 105.51 186.176 104.823 186.562C103.794 187.141 102.968 188.056 101.916 188.608C100.666 189.266 99.2288 189.856 98.1544 190.801C96.9311 191.879 96.0116 193.205 94.8148 194.309C93.7465 195.294 92.4498 196.053 91.6139 197.24C90.986 198.129 90.8433 199.295 90.4539 200.286C89.2775 203.276 88.2255 206.523 88.4151 209.788C88.5476 212.021 90.9636 213.46 91.1695 215.769C91.355 217.852 90.3825 219.357 89.8728 221.297C89.3896 223.145 89.0736 224.903 88.1113 226.599C88.0542 226.697 87.991 226.819 87.9197 226.952C88.6822 227.606 90.1949 228.493 90.5538 229.344C91.1063 230.662 90.2683 231.115 89.6343 231.936C89.3835 232.263 89.8504 232.899 89.8382 233.264C89.8198 233.589 89.6526 234.061 89.8382 234.38C90.2826 235.131 90.9269 234.547 91.4692 234.946C92.0931 235.403 91.2409 236.686 92.1909 237.075C92.5987 237.243 93.4978 236.599 93.7995 236.928C94.2277 237.394 93.1736 238.546 93.7995 239.16C94.4254 239.774 95.6956 239.194 96.3582 239.916C96.9494 240.56 95.7568 241.768 96.2705 242.639C96.7007 243.365 97.873 243.536 98.3745 244.732C98.5784 245.242 98.4765 246.251 98.3745 247.284C98.5478 247.517 98.7273 248.043 98.87 248.33C99.0494 248.689 99.8588 249.054 100.309 249.437C100.76 249.819 100.984 249.572 101.461 249.283C101.938 248.994 102.289 249.062 102.746 248.861C103.091 248.668 103.392 248.41 103.633 248.101C103.952 248.031 104.267 247.944 104.577 247.842C104.939 247.71 105.074 247.015 105.074 247.015C105.074 247.015 105.211 246.249 104.96 245.884C104.709 245.519 104.432 245.498 104.228 245.069C104.024 244.64 104.34 244.405 104.86 243.953C105.38 243.5 105.472 243.953 105.472 243.953C105.472 243.953 105.58 245.127 105.439 245.627C105.298 246.127 105.602 245.978 105.79 246.225C106.204 246.763 106.582 247.327 106.921 247.914C107.302 248.605 108.587 247.77 109.003 247.77C109.419 247.77 109.806 247.371 110.057 247.156C110.308 246.941 110.338 246.323 110.275 245.97C110.212 245.617 109.947 245.647 109.492 245.43C109.037 245.212 109.125 244.987 109.168 244.656C109.229 244.416 109.367 244.202 109.561 244.044L110.542 244.244C110.625 243.916 110.686 243.583 110.723 243.247C110.738 242.922 111.217 242.798 111.57 242.515C111.922 242.232 111.963 242.715 112.169 243.071C112.375 243.428 112.324 243.703 112.189 244.232C112.055 244.76 111.459 245.332 111.146 246.008C110.832 246.684 111.021 246.66 111.184 247.178C111.347 247.696 111.561 248.358 111.963 248.851C112.365 249.343 113.121 249.797 112.819 250.411C112.518 251.025 113.26 251.608 113.827 251.793C114.209 251.906 114.583 252.042 114.948 252.202C115.474 252.435 115.867 253.226 116.312 253.539C116.986 253.934 117.728 254.204 118.501 254.337C119.178 254.434 120.336 254.157 120.673 253.926C121.009 253.695 120.95 252.247 120.995 251.909C121.04 251.57 122.489 251.283 122.489 251.283C122.489 251.283 123.633 251.344 124.394 251.717C125.154 252.09 124.787 252.746 125.574 253.284C126.361 253.822 126.549 253.483 126.74 253.196C126.932 252.909 127.342 251.673 127.645 251.324C127.949 250.976 128.514 251.324 128.532 251.671C128.551 252.018 129.244 253.037 129.266 253.864C129.289 254.691 127.772 254.582 127.458 254.845C127.144 255.108 127.185 256.44 127.37 256.795C127.556 257.149 128.593 257.791 128.932 257.927C129.27 258.062 129.917 257.349 130.155 256.731C130.394 256.113 131.018 256.621 131.65 256.904C132.282 257.187 132.145 257.578 132.139 258.13C132.133 258.682 131.476 258.268 130.744 258.395C130.012 258.523 130.133 259.079 130.235 259.392C130.337 259.705 131.311 260.13 131.835 260.359C132.359 260.588 132.922 261.106 133.811 261.294C134.7 261.481 134.767 261.118 134.957 260.742C135.146 260.365 135.099 259.801 135.811 259.468C136.522 259.135 136.504 258.658 136.626 257.618C136.749 256.577 135.864 257.265 135.65 257.618C135.436 257.971 134.901 256.775 135.071 256.302C135.24 255.83 135.313 255.196 135.478 254.805C135.559 254.604 135.587 254.388 135.562 254.173C135.537 253.959 135.458 253.755 135.334 253.577C135.081 253.272 134.926 252.716 135.162 252.437C135.399 252.158 136.033 251.623 136.408 251.492C136.783 251.36 137.289 250.537 137.264 250.192C137.24 249.847 136.626 249.706 136.147 249.498C135.668 249.291 135.075 248.984 134.867 248.743C134.659 248.502 135.058 248.105 135.478 248.015C135.898 247.926 136.702 248.356 137.456 248.253C138.21 248.149 138.261 246.813 138.433 246.341C138.604 245.868 138.361 245.145 137.896 244.696C137.432 244.248 137.099 244.383 136.184 244.248C135.268 244.112 135.191 244.395 134.553 244.379C133.915 244.363 133.403 245.093 132.857 245.912C132.31 246.731 132.235 246.088 131.837 245.99C131.44 245.892 131.898 245.378 132.42 244.764C132.942 244.15 132.94 244.092 133.413 243.731C133.886 243.37 134.636 243.345 135.262 243.227C135.838 243.083 136.384 242.841 136.875 242.513C137.146 242.332 137.546 241.853 137.894 241.538C138.332 241.175 138.811 240.861 139.322 240.604C139.813 240.354 140.041 240.604 140.288 240.765C140.535 240.926 140.545 242.007 140.616 242.388C140.688 242.768 141.668 243.939 142.329 244.407C142.989 244.876 142.906 243.979 143.23 243.297C143.554 242.615 143.448 242.091 143.422 241.654C143.395 241.218 143.46 240.259 143.33 239.631C143.231 239.105 143.035 238.601 142.751 238.144C142.547 237.847 142.16 237.516 142.139 237.119C142.119 236.722 142.606 236.222 143.101 235.781C143.597 235.341 143.786 235.909 144.158 235.903C144.529 235.897 144.633 236.479 144.535 237.021C144.437 237.564 144.007 238.666 144.06 239.15C144.113 239.635 144.755 240.147 145.03 240.316C145.305 240.486 145.791 240.303 146.023 240.153C146.255 240.004 146.188 239.27 146.327 238.919C146.465 238.568 146.826 239.421 147.008 239.774C147.189 240.127 147.075 240.51 147.326 241.345C147.577 242.18 148.4 241.628 148.69 241.383C148.979 241.138 148.961 240.44 149.036 239.76C149.112 239.081 149.414 239.25 149.827 239.021C150.241 238.791 149.854 241.327 149.811 241.929C149.768 242.531 150.209 242.792 150.523 243.125C150.837 243.458 151.675 243.632 152.472 243.757C153.269 243.883 154.142 243.6 154.468 243.48C154.794 243.361 155.717 242.882 156.315 242.651C156.912 242.42 157.098 242.304 157.819 242.009C158.541 241.714 158.755 241.81 158.886 242.224C159.016 242.639 159.255 243.103 159.669 243.255C160.083 243.406 160.262 243.255 160.7 243.213C161.139 243.171 161.024 242.691 160.8 242.017C160.576 241.343 161.353 241.245 161.603 241.208C161.854 241.17 161.989 241.728 161.989 242.228C161.989 242.729 161.862 243.424 161.86 243.907C161.858 244.389 162.24 244.63 162.827 244.788C163.414 244.945 163.275 244.836 163.508 244.788C163.712 244.756 163.787 244.258 164.042 242.854C163.975 242.084 163.988 241.309 164.079 240.542Z" fill="#6163A1" stroke="white" stroke-miterlimit="10"/>
<path d="M184.232 223.031C183.916 222.872 183.551 222.935 183.168 223.123C183.608 223.509 183.922 224.014 183.928 224.536C183.928 224.014 183.608 223.509 183.168 223.123C182.075 223.661 180.846 225.232 180.279 225.666C179.798 226.033 179.357 225.808 178.839 225.732C177.867 225.591 176.572 226.165 175.846 226.745C174.087 228.15 173.461 230.445 171.549 231.812C170.46 232.59 168.951 231.99 167.862 232.681C167.304 233.036 167.047 233.557 166.653 234.063C165.022 236.2 164.321 237.876 164.085 240.542C164.002 241.314 163.998 242.092 164.074 242.864C164.119 242.617 164.168 242.346 164.225 242.041C164.609 239.998 164.812 242.768 164.812 242.768C165.442 243.078 165.994 243.52 166.429 244.062C167.061 244.905 165.758 244.774 165.245 245.204C164.731 245.635 165.832 246.6 166.201 246.753C166.57 246.907 167.316 246.841 167.854 246.833C168.393 246.825 168.262 246.327 168.262 245.968C168.262 245.609 168.874 245.607 169.4 245.23C169.926 244.854 169.648 244.433 169.83 243.943C170.011 243.452 170.307 243.41 170.645 243.054C170.984 242.697 170.939 242.418 171.424 241.752C171.909 241.086 172.413 241.309 172.58 241.752C172.747 242.194 173.265 241.77 173.934 241.77C174.603 241.77 174.12 240.972 174.062 240.556C174.005 240.139 174.527 239.033 175.066 238.762C175.604 238.49 176.27 238.598 176.974 238.526C177.798 238.455 178.602 238.241 179.349 237.892C180.165 237.494 180.684 236.132 181.259 235.245C181.834 234.358 181.796 233.104 181.63 232.38C181.421 231.666 181.408 230.909 181.592 230.188C181.814 229.263 182.038 229.59 183.076 229.316C184.114 229.043 183.975 228.519 184.542 227.921C185.054 227.369 185.865 226.886 186.536 226.249C186.435 226.142 186.342 226.028 186.256 225.91C185.592 224.977 185.31 223.581 184.232 223.031Z" fill="#6163A1" stroke="white" stroke-miterlimit="10"/>
<path d="M191.617 205.441C189.423 205.64 189.184 208.443 187.404 208.252C185.806 208.08 186.234 203.997 185.125 203.234C184.379 202.722 183.325 203.433 182.534 203.393C181.606 203.352 180.846 202.596 179.916 202.498C177.043 202.229 173.895 205.774 172.003 207.466C171.276 208.118 169.893 208.154 169.296 209.023C169.264 209.07 169.237 209.12 169.216 209.173C170.611 209.017 171.622 208.852 173.449 209.478C171.614 208.852 170.611 209.017 169.216 209.173C168.972 209.771 169.781 210.255 169.757 210.789C169.72 211.636 168.317 212.157 168.825 213.046C169.208 213.718 170.252 213.991 170.845 214.465C172.301 215.617 173.074 217.204 175.166 217.428C176.454 217.567 178.532 216.576 179.628 217.467C180.835 218.446 180.57 219.449 180.181 220.745C180.075 221.097 179.582 222.339 180.128 222.603C180.536 222.802 181.021 222.453 181.423 222.431C181.993 222.397 182.66 222.682 183.162 223.123C183.545 222.935 183.91 222.872 184.226 223.031C185.311 223.577 185.592 224.979 186.24 225.888C186.326 226.007 186.419 226.12 186.52 226.227C186.595 226.155 186.668 226.083 186.74 226.009C187.443 225.256 186.799 223.892 186.799 223.892C186.799 223.892 187.555 222.357 187.782 222.046C188.008 221.735 188.526 220.87 188.787 220.382C189.048 219.893 188.073 219.371 187.739 219.048C187.404 218.725 187.808 218.177 188.12 217.613C188.432 217.049 188.599 217.306 188.705 216.584C188.811 215.863 188.277 215.916 187.953 214.391C187.629 212.866 188.538 214.069 189.26 214.776C189.981 215.484 189.727 216.57 190.483 217.94C191.239 219.309 191.898 217.029 192.018 216.409C192.138 215.789 192.997 214.814 192.983 214.326C192.968 213.837 192.304 213.14 191.892 212.765C191.48 212.39 192.214 211.192 192.214 211.192C192.214 211.192 193.372 211.557 193.725 211.086C194.077 210.616 193.61 209.149 193.347 208.279C193.084 207.41 192.713 206.746 193.052 205.602C193.064 205.56 193.078 205.522 193.091 205.483C192.603 205.407 192.108 205.393 191.617 205.441Z" fill="#6163A1" stroke="white" stroke-miterlimit="10"/>
<path d="M85.6525 147.726C85.0409 147.084 84.9675 145.27 84.6719 144.403C84.1948 143.007 82.4109 142.226 81.2345 143.444C80.2029 144.51 80.2477 145.939 78.7635 146.731C77.8093 147.239 76.7553 147.028 75.8358 147.443C73.7277 148.393 70.4228 151.938 70.2108 154.19C70.1027 155.329 71.3851 160.233 72.1048 161.14C72.5839 161.738 73.3586 161.991 73.8194 162.639C74.111 163.047 74.8225 164.748 75.5014 164.728C77.161 164.684 76.8185 161.293 78.6004 161.666C80.5678 162.079 79.9928 164.172 80.5943 165.454C80.7105 165.699 81.7075 166.325 81.7911 166C81.9664 165.302 82.8778 165.352 83.4221 165.029C84.0011 164.68 84.4701 163.803 84.8024 163.251C85.6892 161.782 86.988 160.213 87.3488 158.504C87.6118 157.268 86.7372 156.094 87.0981 154.886C87.6281 153.122 89.4202 152.137 88.829 150.032C88.2805 148.098 86.7209 148.838 85.6525 147.726Z" fill="#6163A1" stroke="white" stroke-width="2" stroke-miterlimit="10"/>
<path d="M154.78 182.98C153.809 182.245 152.741 183.162 151.646 183.036C149.177 182.747 148.111 181.194 145.721 182.103C145.487 182.191 145.338 182.001 145.124 181.975C144.378 181.89 144.29 182.647 144.166 183.13C143.942 184.064 143.774 185.009 143.662 185.962C143.574 186.616 143.776 187.286 143.611 187.938C143.063 190.131 139.393 191.997 140.734 194.439C140.967 194.859 141.442 195.094 141.754 195.435C142.738 196.548 143.568 197.357 145.167 196.749C146.082 196.4 146.543 195.334 147.475 195.059C148.476 194.766 149.405 195.579 150.453 195.124C151.238 194.783 151.577 193.296 151.677 193.268C153.026 192.906 155.779 193.354 155.929 191.305C155.991 190.466 155.114 189.84 154.949 189.024C154.588 187.176 156.627 184.38 154.78 182.98Z" fill="#6163A1" stroke="white" stroke-width="2" stroke-miterlimit="10"/>
<path d="M105.739 177.731C104.246 176.575 103.166 178.907 101.802 178.262C100.709 177.741 99.9487 176.509 98.8742 175.909C98.23 175.546 97.447 175.417 96.8456 174.98C96.2442 174.544 95.6774 173.842 94.9679 173.595C92.2787 172.652 94.7742 177.959 91.3776 177.169C90.5193 176.97 90.1197 175.927 89.3511 175.748C88.1747 175.475 86.8148 176.41 85.6629 175.574C84.0584 174.412 85.2551 172.47 84.0522 171.324C83.2367 170.555 79.4099 169.403 78.3028 169.076C76.3884 168.513 74.7207 169.598 72.7839 169.391C71.7278 169.277 70.5412 168.545 69.4484 168.882C68.2883 169.241 67.7949 171.117 66.4289 171.075C65.9519 171.057 62.1475 169.341 61.8743 169.028C61.436 168.539 61.3463 167.67 60.7795 167.291C59.9742 166.753 58.7978 167.054 57.9088 166.626C56.7264 166.052 55.9333 163.915 54.1514 163.853C53.4623 163.827 52.9159 165.009 52.3491 164.877C51.8536 164.762 51.2481 164.194 50.718 164.385C50.4958 164.465 50.0901 167.927 49.9759 168.392C49.8251 169.016 49.0504 169.209 48.8281 169.759C48.6936 170.09 49.032 170.24 48.8648 170.613C48.9855 170.819 49.052 171.051 49.0585 171.288C49.1115 171.721 48.2307 171.996 47.6844 172.311C47.138 172.626 47.1971 173.34 47.0625 173.696C46.9279 174.053 46.1736 174.448 45.25 174.514C44.3265 174.58 43.5089 175.22 42.9156 175.544C42.3224 175.869 41.0685 175.943 40.4915 175.991C39.9145 176.039 39.1112 176.023 38.1408 176.113C37.1703 176.202 36.7524 176.537 36.1632 176.886C35.574 177.235 35.4618 177.869 35.2498 178.387C35.0378 178.905 35.1519 179.603 35.1274 180.273C35.103 180.943 34.5444 181.024 34.1264 181.736C33.7085 182.448 34.1631 182.448 34.5485 182.51C35.1269 182.57 35.6957 182.699 36.2427 182.892C36.8339 183.142 37.8737 182.856 38.3263 182.48C38.7789 182.103 39.5231 181.882 39.8248 182.219C40.1266 182.555 40.2713 182.988 40.6913 183.098C41.1113 183.207 41.1174 183.098 41.2051 182.629C41.2927 182.161 41.4457 182.484 42.0879 182.502C42.6602 182.528 43.2301 182.415 43.7474 182.175C44.3305 181.93 44.667 181.577 45.0951 181.302C45.5232 181.026 45.6415 181.302 45.8759 181.571C46.1104 181.84 45.9228 182.488 45.5905 182.637C45.2582 182.787 44.5141 182.653 44.1878 183.05C43.8616 183.447 43.8025 183.937 43.4579 184.1C43.0666 184.274 42.6561 184.402 42.2347 184.483C41.7474 184.595 40.7219 184.16 39.937 184.084C39.152 184.009 38.732 184.346 38.2366 184.782C37.7412 185.219 37.47 186.206 37.6066 186.808C37.7432 187.41 38.6954 186.931 39.1439 186.608C39.5564 186.325 40.0109 186.106 40.4915 185.958C41.0318 185.773 41.2642 186.397 41.7331 186.407C42.2021 186.417 42.359 186.481 42.675 186.895C42.8525 187.1 42.9552 187.357 42.9666 187.625C42.9666 187.625 42.4447 188.484 42.1511 189.082C41.8575 189.68 42.2958 189.864 42.4956 190.677C42.6954 191.49 41.8656 190.906 41.4028 190.796C40.94 190.687 40.7912 190.398 40.8096 189.826C40.8279 189.254 40.359 188.805 39.9757 188.592C39.5924 188.378 39.0195 189.297 38.7524 189.503C38.4853 189.708 38.5485 190.19 38.5913 190.499C38.6342 190.808 38.1163 192.128 37.5169 192.363C36.9175 192.599 37.0154 192.13 37.0949 191.524C37.1744 190.918 36.9766 190.501 36.6239 190.368C36.2712 190.234 35.0214 190.814 34.7217 191.219C34.422 191.624 34.1631 192.656 33.7778 192.87C33.3925 193.083 32.9317 192.371 32.3506 192.345C31.7696 192.32 30.0081 192.798 29.2741 193.276C28.5401 193.755 27.7287 194.66 27.5921 195.005C27.4555 195.35 26.7297 196.201 25.8469 196.578C24.9641 196.954 25.6817 195.98 25.539 195.433C25.3963 194.887 24.7684 195.362 23.8754 196.231C22.9824 197.1 24.0385 197.497 24.0242 198.083C24.0099 198.669 24.485 198.37 26.1038 198.589C26.1038 198.589 27.0681 199.187 27.4331 199.333C27.798 199.478 28.6258 199.317 29.2292 199.155C29.8327 198.994 29.8654 199.221 30.1651 199.317C30.4648 199.412 31.0336 199.598 31.3883 199.572C31.7431 199.546 32.2242 199.201 32.6116 198.838C32.999 198.475 33.2232 198.838 33.5963 199.141C33.9694 199.444 34.4853 199.986 34.8094 200.116C35.1336 200.246 35.8288 199.847 36.3079 199.739C36.787 199.632 36.4649 200.459 36.4649 200.459L35.8859 201.583L35.0703 202.091C35.0703 202.091 34.473 201.649 34.1101 201.571C33.7088 201.498 33.2964 201.508 32.8991 201.599C32.475 201.689 32.6952 202.715 32.1936 202.835C31.6921 202.955 30.6564 201.773 30.2242 201.563C29.792 201.354 28.5932 201.866 28.322 202.105C28.0508 202.345 28.0365 202.879 27.743 203.056C27.4494 203.234 27.4698 204.009 27.3658 204.252C27.2202 204.517 27.0211 204.749 26.7807 204.936C26.5402 205.123 26.2635 205.26 25.9672 205.339C25.0987 205.604 25.8143 205.205 24.9784 204.089C24.1424 202.973 23.5064 205.008 23.6348 205.484C23.7633 205.961 23.7653 206.995 23.3943 207.659C23.0232 208.323 23.066 208.57 23.1679 209.3C23.2075 209.548 23.3161 209.78 23.4819 209.972C23.9714 210.344 24.4197 210.766 24.8194 211.23C25.3596 211.877 25.2883 212.707 25.5533 213.436C26.7766 216.811 26.0997 221.024 30.4301 222.156C31.898 222.541 32.7095 221.622 33.9307 221.024C35.7085 220.15 36.2284 218.883 37.5781 217.559C38.3712 216.779 39.6291 216.257 40.1755 215.278C41.2601 213.337 42.9381 210.893 45.4988 211.018C46.3347 211.062 49.609 212.842 50.188 213.466C50.7018 214.026 51.4398 215.52 52.1656 215.817C54.0352 216.584 54.3369 211.65 56.5103 213.769C59.1444 216.337 57.1076 221.709 61.0894 223.246C64.3107 224.488 69.4973 225.672 72.9612 224.678C74.8736 224.129 76.7024 223.282 78.6189 222.684C79.8625 222.297 80.7881 221.434 82.2336 221.775C85.4223 222.529 85.669 224.939 87.7995 226.888L87.8974 226.974C87.9688 226.84 88.0319 226.719 88.089 226.621C89.0513 224.925 89.3674 223.167 89.8506 221.319C90.3603 219.373 91.3327 217.874 91.1472 215.791C90.9433 213.484 88.5253 212.045 88.3928 209.81C88.1991 206.545 89.2511 203.3 90.4316 200.307C90.821 199.311 90.9637 198.15 91.5917 197.261C92.4276 196.065 93.7243 195.316 94.7926 194.331C95.9893 193.227 96.9129 191.901 98.1321 190.822C99.2065 189.87 100.644 189.279 101.894 188.63C102.946 188.077 103.771 187.162 104.801 186.584C105.49 186.198 106.33 186.606 106.84 187.081L106.876 187.119C107.406 186.523 107.821 185.838 108.1 185.097C108.671 183.568 106.982 178.678 105.739 177.731Z" fill="#6163A1" stroke="white" stroke-miterlimit="10"/>
<path d="M78.7635 146.731C77.8093 147.239 76.7553 147.028 75.8358 147.442C73.7277 148.393 70.4228 151.938 70.2108 154.19C70.1027 155.329 71.3851 160.233 72.1048 161.14C72.5839 161.738 73.3586 161.991 73.8194 162.639C74.111 163.047 74.8225 164.748 75.5014 164.728C77.161 164.684 76.8185 161.293 78.6004 161.666C80.5678 162.079 79.9928 164.172 80.5943 165.453C80.7105 165.699 81.7075 166.325 81.7911 166C81.9664 165.302 82.8778 165.352 83.4221 165.029C84.0011 164.68 84.4701 163.803 84.8024 163.251C85.3569 162.334 86.0705 161.377 86.6169 160.37C86.0158 160.236 85.4223 160.071 84.8391 159.876C85.4223 160.071 86.0158 160.236 86.6169 160.37C86.9514 159.786 87.1979 159.157 87.3488 158.504C87.6118 157.268 86.7372 156.094 87.0981 154.886C87.6281 153.122 89.4202 152.137 88.829 150.032C88.2887 148.104 86.729 148.836 85.6607 147.732C85.0491 147.09 84.9757 145.276 84.68 144.408C84.203 143.013 82.419 142.232 81.2427 143.45C81.0279 143.676 80.8423 143.928 80.6901 144.199C80.9368 144.797 81.1631 145.367 81.3405 145.85C81.1631 145.367 80.9327 144.807 80.6901 144.199C80.1498 145.112 79.9195 146.115 78.7635 146.731Z" fill="#6163A1" stroke="white" stroke-width="2" stroke-miterlimit="10"/>
<path d="M154.78 182.98C153.809 182.245 152.741 183.162 151.646 183.036C149.177 182.747 148.111 181.194 145.721 182.103C145.487 182.191 145.338 182.001 145.124 181.975C144.378 181.89 144.29 182.647 144.166 183.13C143.942 184.064 143.774 185.009 143.662 185.962C143.574 186.616 143.776 187.286 143.611 187.938C143.063 190.131 139.393 191.997 140.734 194.439C140.967 194.859 141.442 195.094 141.754 195.435C142.738 196.548 143.568 197.357 145.167 196.749C146.082 196.4 146.543 195.334 147.475 195.059C148.476 194.766 149.405 195.579 150.453 195.124C151.238 194.783 151.577 193.296 151.677 193.268C153.026 192.906 155.779 193.354 155.929 191.305C155.991 190.466 155.114 189.84 154.949 189.024C154.588 187.176 156.627 184.38 154.78 182.98Z" fill="#6163A1" stroke="white" stroke-width="2" stroke-miterlimit="10"/>
<path d="M94.9779 172.389C94.721 171.657 94.14 171.193 93.7098 170.585C93.1879 169.835 93.2592 169.046 92.9819 168.234C92.721 167.473 92.197 166.767 91.9625 166.012C91.5956 164.816 92.3316 163.48 91.4549 162.441C90.46 161.261 88.3865 160.797 86.6046 160.364C86.0582 161.361 85.3446 162.328 84.7901 163.245C84.4578 163.797 83.9888 164.674 83.4098 165.023C82.8736 165.346 81.9623 165.296 81.7788 165.994C81.6952 166.319 80.6983 165.693 80.5821 165.447C79.9704 164.172 80.5555 162.079 78.5881 161.66C76.8062 161.287 77.1487 164.678 75.4891 164.722C74.8102 164.742 74.0987 163.041 73.8071 162.633C73.3464 161.985 72.5716 161.736 72.0925 161.134C71.3728 160.227 70.0904 155.323 70.1985 154.184C70.4024 151.932 73.7154 148.387 75.8235 147.436C76.743 147.022 77.797 147.237 78.7512 146.725C79.9072 146.109 80.1376 145.106 80.6697 144.187C79.6768 141.749 78.3414 138.54 78.3761 136.448C78.4005 134.959 80.0703 132.703 79.8766 131.449C79.7216 130.432 78.005 130.265 78.321 129.083C78.6799 127.739 79.842 127.823 80.9715 127.263C82.2437 126.631 83 124.641 82.9001 123.292C82.7778 121.635 81.3017 120.652 80.2497 119.542C79.7523 119.019 79.4342 118.346 78.9449 117.815C78.1009 116.906 76.9449 116.346 76.1497 115.403C75.6258 114.781 75.3668 113.964 74.9387 113.286C74.2924 112.266 72.4738 111.434 71.2688 111.229C68.3432 110.731 66.0638 112.026 63.2238 112.226C62.0128 112.311 60.6366 111.753 59.4092 111.695C58.5387 111.656 57.5743 111.713 56.6385 111.715C56.4421 112.051 56.1424 112.316 55.7822 112.475C55.2277 112.674 53.8433 112.429 53.2806 112.371C52.7179 112.313 51.9249 112.288 51.6782 112.415C51.4315 112.543 51.3254 113.376 51.3499 113.611C51.3744 113.846 52.1247 114.381 52.2409 114.716C52.3571 115.05 51.5416 115.497 50.9687 115.338C50.3958 115.178 50.3815 113.974 50.3815 113.974C50.3815 113.974 50.253 113.631 50.0818 113.288C49.9105 112.945 49.3804 111.709 48.9197 111.267C48.4589 110.824 48.198 110.121 47.9003 109.658C47.6026 109.196 47.4925 108.747 47.2214 108.097C46.9502 107.447 46.7178 107.136 46.5078 106.646C46.4284 106.416 46.2962 106.206 46.1213 106.033C45.9464 105.861 45.7334 105.729 45.4986 105.649C44.9338 105.416 44.7463 105.94 44.7116 106.383C44.6769 106.825 44.1183 106.867 43.5984 106.658C43.0785 106.449 43.3517 105.715 43.1315 105.328C42.9113 104.942 42.4098 104.756 41.9083 104.814C41.4067 104.872 41.2966 105.105 40.9969 105.534C40.6972 105.962 40.9521 106.341 40.8706 106.907C40.789 107.473 40.4628 107.581 40.055 108.051C39.6473 108.522 39.2273 108.891 38.6829 108.873C38.1386 108.855 38.0326 108.195 38.2263 107.619C38.3077 107.436 38.3149 107.23 38.2463 107.043C38.1777 106.855 38.0386 106.701 37.8572 106.61C37.5942 106.443 36.9622 106.148 36.6339 105.759C36.3057 105.37 36.6013 104.846 36.4301 104.284C36.2588 103.722 35.5983 103.429 34.9622 103.249C34.3261 103.07 33.9427 102.918 33.7715 102.585C33.6002 102.252 34.0814 101.864 34.0773 101.443C34.0732 101.022 33.0865 100.753 32.4646 100.893C31.8428 101.032 32.0263 101.798 32.1914 102.151C32.3566 102.504 32.8031 102.733 33.0192 103.058C33.2353 103.383 33.0192 103.959 33.0192 104.194C33.1609 104.668 33.4265 105.098 33.7899 105.442C34.0936 105.653 34.1976 106.219 34.1976 106.219C33.8339 106.508 33.5031 106.834 33.2108 107.192C32.9152 107.613 33.2944 107.93 33.5166 108.087C33.7863 108.328 33.9669 108.649 34.0304 109C34.0304 109.243 33.9672 109.834 33.9978 110.535C34.0284 111.237 33.5126 111.303 33.2067 111.028C32.9009 110.753 32.9254 110.23 32.9356 109.363C32.9458 108.496 31.9773 107.968 31.6654 107.968C31.3535 107.968 30.9437 108.602 30.752 109.094C30.5604 109.586 31.1354 110.069 31.2434 110.727C31.3515 111.384 30.5828 111.923 29.9345 112.664C29.2861 113.406 29.0701 112.559 28.7948 112.112C28.7158 111.986 28.6857 111.836 28.71 111.689C28.7343 111.543 28.8114 111.41 28.9273 111.315L29.5023 109.122L29.959 108.229C29.959 108.229 29.5512 107.477 29.2148 107.631C28.8784 107.784 28.4951 107.701 28.3993 107.348C28.3034 106.995 28.807 106.502 29.1312 106.14C29.4554 105.777 29.8754 105.294 29.7918 104.776C29.7082 104.258 29.4064 104.296 28.9273 103.873C28.4482 103.45 28.4217 103.732 28.1933 103.698C27.9253 103.676 27.6571 103.737 27.4268 103.873C27.1984 104.003 26.7051 104.437 26.4889 104.567C26.2728 104.696 25.5878 104.966 25.2167 104.884C24.8457 104.802 24.7968 104.344 24.6051 104.015C24.4135 103.686 23.6102 103.815 23.4287 105.53C23.2473 107.244 24.2809 106.481 24.6051 106.819C24.9293 107.158 25.2901 107.876 24.9415 108.205C24.5929 108.534 24.2707 107.736 23.8977 107.525C23.5246 107.314 23.0332 107.806 23.1535 108.639C23.2738 109.473 23.7284 109.05 23.9935 109.134C24.2585 109.218 24.9293 109.931 25.2534 110.166C25.5703 110.395 25.9122 110.588 26.2728 110.743C26.5848 110.87 26.8009 111.235 26.8621 111.646C26.9232 112.056 26.5378 112.292 26.2606 112.82C25.9833 113.348 26.3931 113.418 25.6734 113.653C24.9537 113.888 24.4685 113.318 24.0302 113.573C23.5918 113.828 23.7386 113.838 23.9547 114.57C24.1709 115.302 23.9547 115.25 23.969 115.9C23.9832 116.55 23.3574 115.9 23.0821 115.615C22.8069 115.33 22.654 114.993 22.2483 114.755C21.8425 114.518 22.0158 114.943 21.8731 115.314C21.7304 115.684 21.6142 115.89 21.2982 115.924C20.9822 115.958 21.025 115.302 20.921 114.945C20.817 114.588 21.1758 114.472 21.3614 114.269C21.6114 113.96 21.7839 113.598 21.865 113.213C21.9853 112.722 22.2177 112.535 22.2605 112.301C22.3033 112.068 22.1667 111.199 22.1565 110.92C22.1463 110.641 22.0648 110.001 22.0036 109.477C21.9424 108.952 21.8303 108.717 21.4266 108.125C21.0229 107.533 20.9047 107.489 20.5846 107.742C20.2645 107.996 20.081 108.446 19.973 109.377C19.8649 110.308 20.0769 109.937 20.0871 110.751C20.0973 111.564 19.8058 111.408 19.3002 112.132C18.7946 112.856 18.9862 111.879 18.9271 111.402C18.8679 110.926 19.2859 110.268 18.8088 109.044C18.3318 107.82 18.5234 108.845 18.4011 109.034C18.2788 109.224 17.7283 109.497 17.1778 110.537C16.6273 111.578 16.3847 110.769 16.1217 111.169C15.8587 111.57 15.5753 111.486 15.4693 111.929C15.3633 112.371 16.3093 112.606 16.5315 113.015C16.7537 113.424 16.5886 114.369 16.4662 115.16C16.3439 115.952 15.769 115.8 15.2879 115.975C14.8067 116.151 14.8516 115.102 14.2685 114.58C13.6854 114.058 13.5651 114.857 13.1859 115.248C12.8066 115.639 12.5742 115.846 12.4539 116.312C12.3336 116.779 12.7862 117.809 13.0023 118.366C13.2184 118.922 12.142 119.761 11.8178 120.076C11.4937 120.391 11.7404 120.985 11.6608 121.384C11.5813 121.782 11.4794 122.498 11.3713 123.268C11.2632 124.037 11.9972 124.41 12.4804 124.653C12.9636 124.896 13.1451 124.294 13.1145 123.317C13.0839 122.341 13.6813 122.175 14.1339 121.896C14.5865 121.617 14.6395 121.824 14.876 122.295C15.1125 122.765 14.8006 122.967 15.2206 123.69C15.6406 124.414 15.924 123.413 16.4071 122.819C16.8903 122.225 16.7354 123.204 17.1288 124.141C17.5223 125.078 16.7822 124.761 16.1094 124.703C15.4366 124.645 14.6823 124.438 14.1767 124.565C13.6711 124.693 13.2756 125.795 13.2776 126.306C13.2796 126.816 14.0931 127.025 14.8882 127.348C15.6833 127.671 16.66 127.348 17.1717 127.229C17.6834 127.109 17.8975 126.218 18.5642 125.02C19.2308 123.822 19.4734 123.824 19.4734 123.824C19.8952 124.242 20.237 124.731 20.4827 125.267C20.8334 126.086 20.5133 125.825 20.1198 126.146C19.7263 126.467 19.7997 127.143 19.3287 127.625C18.8577 128.108 18.7721 128.054 18.6906 128.692C18.5596 129.423 18.7045 130.175 19.0983 130.809C19.5754 131.527 19.8914 130.767 20.4582 130.045C21.025 129.324 20.8068 129.039 20.9781 128.746C21.1494 128.453 21.7936 128.148 22.0097 127.878C22.3196 127.459 22.5566 126.992 22.7111 126.497C22.7021 125.941 22.6338 125.388 22.5072 124.846C22.4236 124.543 21.9322 123.708 21.6346 123.252C21.3369 122.795 21.1963 122.255 21.2962 122.012C21.3961 121.768 21.9424 121.892 22.3991 122.062C22.8558 122.231 23.392 121.663 23.5449 121.36C23.6836 121.06 23.9053 120.804 24.1851 120.62C24.4563 120.471 24.6826 121.362 24.7376 121.802C24.7618 122.362 24.7194 122.923 24.6112 123.473C24.5378 123.872 24.7458 125.696 24.707 126.264C24.6683 126.832 24.7396 128.313 24.7396 128.313C24.7396 128.313 25.6061 128.65 25.9466 128.17C26.2871 127.689 26.4889 127.173 26.6745 127.336C26.86 127.5 27.6429 127.266 27.7937 127.045C27.9919 126.719 28.108 126.351 28.1322 125.973C28.1669 125.528 28.2158 124.601 28.2525 124.292C28.2892 123.983 28.5685 123.295 28.6256 122.805C28.6827 122.315 28.699 121.334 28.7173 120.943C28.7357 120.552 29.1251 120.122 29.1251 120.122C29.1251 120.122 29.4778 120.776 29.8305 121.318C30.1832 121.86 30.3565 121.739 30.6623 121.675C30.9682 121.611 30.805 121.017 30.9029 120.596C31.0008 120.176 31.3453 120.425 31.4208 120.656C31.5167 121.116 31.5754 121.583 31.5961 122.052C31.6226 122.492 31.751 122.711 31.6572 123.082C31.5635 123.453 31.0762 123.282 30.9743 123.618C30.8723 123.955 31.0986 124.521 31.6308 125.243C32.1629 125.965 32.1323 126.007 32.0711 126.525C32.01 127.043 31.2556 127.253 30.9702 127.558C30.6848 127.863 30.277 128.953 30.4075 129.332C30.538 129.71 31.1598 129.93 31.6654 129.896C32.171 129.862 32.8887 129.607 33.9346 129.683C34.9805 129.758 34.2241 129.882 33.8673 130.34C33.5105 130.799 33.9081 130.966 33.8082 131.429C33.7083 131.891 32.8703 132.302 32.5503 132.322C32.2302 132.342 31.5411 131.572 31.0905 131.058C30.6399 130.544 29.6368 130.705 29.6368 130.705C29.6368 130.705 28.4258 131.357 28.0547 132.258C27.6837 133.159 28.2769 132.788 28.6664 133.113C29.0558 133.438 29.5104 133.711 29.4227 134.044C29.2765 134.571 29.2213 135.118 29.2596 135.663C29.3254 136.119 29.545 136.54 29.8835 136.859C29.8835 136.859 29.6287 137.84 29.068 138.015C28.5073 138.191 27.7102 138.32 27.4676 138.613C27.225 138.906 27.598 140.037 27.7448 140.384C27.8916 140.73 28.9151 140.982 28.9151 140.982C28.9151 140.982 28.5196 142.686 28.7765 143.254C28.8506 143.413 28.9804 143.54 29.1423 143.613C29.3043 143.687 29.4877 143.701 29.6593 143.653C30.0601 143.219 30.3827 142.723 30.6134 142.184C31.0884 141.163 30.8866 141.105 31.2373 140.872C31.588 140.639 32.0772 140.708 32.3688 140.423C32.6603 140.138 33.117 139.786 33.6532 139.295C34.1894 138.805 34.744 139.042 35.1049 139.237C35.4657 139.433 34.9642 139.801 34.6441 140.071C34.324 140.34 33.7837 140.97 33.4106 141.209C33.0375 141.448 32.4157 141.807 32.4157 141.807C32.151 142.094 31.9204 142.41 31.7286 142.748C31.592 143.083 31.7286 143.637 31.1884 144.516C30.6481 145.395 30.697 145.563 29.9426 145.291C29.1883 145.02 29.2026 145.527 29.2026 145.527C29.0238 146.08 29.0238 146.674 29.2026 147.227C29.5104 148.064 30.1914 148.224 30.5074 148.423C30.8234 148.623 31.5268 148.379 32.0548 147.731C32.5829 147.084 32.5237 146.988 33.0049 146.852C33.4861 146.717 33.5859 147.267 33.8469 147.474C34.1079 147.682 34.428 147.887 34.5952 147.991C34.7623 148.094 35.2068 148.87 35.2802 149.286C35.3536 149.703 35.0192 149.763 34.5666 149.884C34.114 150.006 33.8082 149.685 33.3433 149.486C33.0638 149.351 32.7595 149.271 32.4483 149.253C32.1241 149.213 31.6715 149.717 31.5309 149.97C31.3581 150.262 31.1188 150.511 30.8316 150.698C30.5584 150.869 30.1037 150.51 29.5104 149.918C28.9172 149.326 28.7194 149.884 28.7194 149.884C28.7194 149.884 28.3605 150.606 28.701 151.156C29.0415 151.706 29.2637 151.617 29.9956 151.635C30.7276 151.653 30.6338 151.744 30.4421 152.149C30.2505 152.554 30.4768 153.345 30.7541 153.744C31.0313 154.142 31.7225 154.113 31.9202 153.917C32.118 153.722 32.2383 153.261 32.7174 152.388C33.1966 151.515 33.3678 151.938 33.9407 152.189C34.5136 152.44 33.7225 154.049 33.3963 154.368C33.0701 154.687 32.5258 154.966 32.2608 155.189C31.9957 155.412 31.4208 156.584 31.327 156.923C31.2332 157.262 31.2495 159.007 31.2495 159.25C31.2495 159.493 31.9345 160.528 32.2689 160.468C32.6032 160.408 33.4922 159.67 33.8857 159.082C34.2792 158.494 34.5564 158.596 34.7725 158.582C34.9886 158.568 35.0681 159.25 34.9764 159.525C34.8846 159.8 34.2934 160.721 34.1058 161.257C33.9183 161.793 33.5921 162.14 33.219 162.551C32.8459 162.962 32.7847 162.643 32.5034 162.567C32.222 162.491 31.6634 162.384 31.5084 162.597C31.3535 162.81 31.0273 163.372 30.7765 163.478C30.5257 163.584 29.8754 163.251 29.2372 163.267C28.5991 163.283 28.1791 163.845 28.1791 163.845C28.0457 164.273 27.977 164.718 27.9752 165.166C27.9915 165.836 28.6297 166.323 28.6297 166.323C28.9801 166.122 29.3128 165.893 29.6246 165.639C29.8427 165.41 30.6827 165.041 30.9009 164.985C31.119 164.929 31.7164 165.41 31.957 165.563C32.1223 165.656 32.3106 165.703 32.5013 165.699C32.3628 166.13 32.2692 166.573 32.222 167.022C32.222 167.449 32.9539 167.83 33.2414 167.919C33.3919 167.951 33.5487 167.932 33.6869 167.865C33.8251 167.799 33.9367 167.69 34.0039 167.555C34.065 167.327 34.1283 166.596 34.4545 166.187C34.7807 165.778 35.6248 167.961 35.8286 168.36C36.0325 168.759 37.1212 168.36 37.6635 168.049C37.8646 167.929 38.0909 167.855 38.3254 167.833C38.5599 167.811 38.7965 167.841 39.0173 167.921C39.3313 168.043 39.1559 169.157 38.9989 169.596C38.8419 170.034 37.0967 169.869 36.7134 169.841C36.3301 169.813 35.2251 169.474 34.85 169.397C34.4749 169.319 34.1731 170.569 34.1731 170.569C34.1731 170.569 35.2374 171.663 35.6003 171.765C35.9632 171.866 36.6197 171.743 37.2028 171.948C37.7859 172.154 37.5249 172.628 37.9754 173.098C38.426 173.569 38.8929 173.397 39.1804 173.248C39.4679 173.098 40.0795 172.409 40.42 172.229C40.7605 172.05 41.2192 172.006 41.4394 172.363C41.6596 172.72 41.9062 173.302 42.4791 173.647C43.052 173.992 43.2111 173.87 43.521 173.786C43.8309 173.702 44.2182 173.29 45.1051 172.76C45.992 172.229 45.9961 172.47 46.4793 172.235C46.9625 172 46.9053 171.896 47.2112 171.498C47.4815 171.1 47.8542 170.779 48.2917 170.567C48.5894 170.395 48.7647 170.433 48.8748 170.567C49.0379 170.194 48.7035 170.044 48.8381 169.714C49.0603 169.163 49.8351 168.97 49.986 168.346C50.1001 167.882 50.5058 164.419 50.7281 164.339C51.2561 164.14 51.8616 164.716 52.3591 164.831C52.9259 164.963 53.4723 163.781 54.1614 163.807C55.9433 163.869 56.7364 166 57.9189 166.58C58.8078 167.008 59.9842 166.707 60.7895 167.246C61.3563 167.624 61.446 168.494 61.8843 168.982C62.1616 169.295 65.9619 171.011 66.439 171.029C67.805 171.077 68.2984 169.201 69.4584 168.836C70.5431 168.499 71.7378 169.235 72.7939 169.345C74.7307 169.544 76.3984 168.468 78.3129 169.03C79.4199 169.357 83.2549 170.509 84.0622 171.278C85.2631 172.425 84.0623 174.366 85.6729 175.528C86.8248 176.364 88.1847 175.429 89.361 175.702C90.1297 175.881 90.5293 176.924 91.3876 177.123C94.7843 177.921 92.2887 172.606 94.9779 173.549C95.0391 173.571 95.0982 173.599 95.1594 173.627C95.1671 173.207 95.1058 172.789 94.9779 172.389Z" fill="#6163A1" stroke="white" stroke-miterlimit="10"/>
<path d="M154.78 182.98C153.809 182.245 152.741 183.162 151.646 183.036C149.177 182.747 148.111 181.194 145.721 182.103C145.487 182.191 145.338 182.001 145.124 181.975C144.378 181.89 144.29 182.647 144.166 183.13C143.942 184.064 143.774 185.009 143.662 185.962C143.574 186.616 143.776 187.286 143.611 187.938C143.063 190.131 139.393 191.997 140.734 194.439C140.967 194.859 141.442 195.094 141.754 195.435C142.738 196.548 143.568 197.357 145.167 196.749C146.082 196.4 146.543 195.334 147.475 195.059C148.476 194.766 149.405 195.579 150.453 195.124C151.238 194.783 151.577 193.296 151.677 193.268C153.026 192.906 155.779 193.354 155.929 191.305C155.991 190.466 155.114 189.84 154.949 189.024C154.588 187.176 156.627 184.38 154.78 182.98Z" fill="#6163A1" stroke="white" stroke-width="2" stroke-miterlimit="10"/>
<path d="M80.05 111.668C81.8156 110.472 84.2459 109.754 85.7587 108.163C86.6088 107.27 87.5303 106.215 88.6924 105.625C90.3459 104.786 91.5977 106.473 93.1921 105.635C94.9984 104.688 94.5295 102.904 95.7874 101.636C96.8884 100.528 99.1617 99.2443 100.666 98.9154C102.234 98.5685 103.09 99.635 104.54 98.2157C105.908 96.886 103.977 95.1876 104.885 93.1423C105.451 91.8625 106.567 90.7501 107.011 89.4584C107.27 88.7068 106.854 87.9353 107.082 87.2655C107.339 86.516 108.016 86.0017 108.287 85.2162C108.593 84.3252 108.014 83.3105 108.271 82.4114C108.679 81.016 110.155 80.0193 110.289 78.576C110.422 77.1806 107.986 76.5446 107.82 75.3964C107.708 74.599 111.423 74.3399 111.125 73.0581C110.632 70.8812 102.701 69.0312 100.642 68.3036C99.3431 67.8451 98.7294 66.1826 97.5469 65.5466C95.9322 64.6755 91.4815 66.0251 90.7944 64.4622C90.2093 63.1286 91.1227 61.4142 91.2817 60.0766C91.5305 57.9734 91.6895 56.3906 91.139 54.3154C90.9066 53.4383 91.0207 52.3718 91.7037 51.684C93.8343 49.5391 98.603 49.4214 97.6305 45.2172C97.3797 44.1407 95.7263 44.1587 94.923 43.6623C93.9546 43.0643 94.0484 41.5652 93.2736 40.8316C92.4989 40.098 91.3246 40.1079 90.5661 39.2767C88.6558 37.1755 90.6252 33.1507 88.0298 31.7513C84.9146 30.0688 82.833 33.5454 80.2988 31.8888C77.8869 30.32 82.8656 27.2142 80.5822 26.4068C78.784 25.7689 77.7421 29.6103 75.7482 28.5358C74.1008 27.6467 75.9969 23.8851 76.052 22.5893C76.1009 21.4151 75.3955 20.3965 74.7329 19.4197C73.6972 19.7745 72.6941 20.0795 71.9622 20.6158C70.8694 21.4231 67.7786 23.6478 66.8652 24.7123C65.9519 25.7769 64.7143 27.7843 64.2148 28.4023C63.7153 29.0202 61.4787 30.9001 60.6061 31.7214C59.7335 32.5427 58.6326 33.1168 57.5215 34.0896C56.4103 35.0625 54.5917 36.0452 52.9546 37.2792C51.3174 38.5132 47.246 40.9731 46.3102 41.5133C45.3744 42.0536 44.3896 42.8549 44.0675 43.457C43.6418 44.3607 43.377 45.3288 43.2846 46.3196C43.203 47.3383 43.9288 47.7669 44.2469 48.3031C44.5649 48.8393 44.3223 49.2739 44.1959 49.8879C44.0695 50.5019 43.9554 50.9245 44.4284 51.9791C44.9014 53.0336 44.5731 52.8462 44.3998 53.211C44.2265 53.5758 43.8881 53.8569 44.0879 54.8058C44.2877 55.7547 44.2693 56.1793 44.4141 57.1362C44.5588 58.0931 44.6893 58.2426 44.9707 58.6432C45.252 59.0439 46.4998 60.0746 46.4998 60.0746C46.4998 60.0746 47.6435 60.4613 48.0676 60.6507C48.4916 60.8401 49.7781 61.3923 49.98 61.7012C50.1818 62.0102 50.1288 62.8475 49.5579 62.9392C48.9871 63.0309 48.4427 62.6242 47.8861 62.3531C47.4031 62.139 46.9535 61.8592 46.5507 61.5218C45.9574 61.0613 45.1481 60.4613 44.5487 60.2919C43.9493 60.1224 43.7127 59.7775 43.3519 59.4725C42.991 59.1675 43.1113 58.8167 43.0359 58.4658C42.9227 57.6411 42.8649 56.8101 42.8626 55.978C42.8687 55.0929 42.7799 54.2096 42.5975 53.3426C42.4161 52.5731 41.8065 52.7286 41.8065 52.7286L41.2316 53.2669C40.7334 53.5692 40.1858 53.7857 39.6127 53.9068C38.7972 54.0443 38.8319 53.3785 38.2957 52.8702C37.7595 52.3618 36.6647 53.5778 36.5281 54.0144C36.3915 54.451 36.6912 54.5766 36.9542 55.1826C37.2172 55.7886 37.1703 56.1454 37.2355 57.2339C37.3008 58.3223 37.1193 59.2014 37.5209 60.0407C37.9537 60.888 38.566 61.6355 39.3171 62.2335C39.9124 62.6741 39.8309 62.5943 40.4303 62.997C41.0297 63.3997 41.5149 64.1931 41.6801 64.6077C41.8452 65.0224 42.1653 65.4051 42.1633 65.7639C42.1612 66.1228 41.992 67.1275 41.9594 67.6179C41.9268 68.1083 41.5047 69.0592 41.1541 69.4638C40.8034 69.8685 40.1163 70.9609 40.5791 72.0553C41.0419 73.1498 40.4303 72.6035 40.6851 73.1318C40.94 73.6601 42.4528 73.2574 42.8829 73.4129C43.3131 73.5684 44.1939 74.609 44.6873 74.9379C45.1807 75.2668 46.4366 75.3565 46.7689 75.4283C47.1012 75.5001 48.296 76.2257 48.769 76.5088C49.2419 76.7918 49.7883 77.3679 49.8352 77.7686C49.8821 78.1693 49.4764 78.3667 49.1706 78.4185C48.8648 78.4703 47.6517 78.4464 47.1318 78.5062C46.6119 78.566 46.3917 78.3966 45.8209 79.2298C45.25 80.0631 46.2001 80.0272 46.6364 80.4379C47.0476 80.8284 47.4072 81.2677 47.7068 81.7456C48.1573 82.3895 47.4498 82.7722 47.405 83.5497C47.3601 84.3272 47.8902 84.0521 48.298 84.2394C48.7057 84.4268 49.3174 84.4687 49.9127 84.6023C50.508 84.7358 50.5243 84.7558 50.9321 84.6322C51.3398 84.5086 51.87 83.8348 52.347 83.7211C52.8241 83.6075 52.8139 84.2235 52.9117 84.5185C53.0096 84.8136 52.6202 84.999 51.6885 85.5392C50.7567 86.0794 51.6151 85.8781 52.0392 86.2648C52.4632 86.6516 52.4469 86.6874 52.5387 87.5147C52.6304 88.342 51.5662 87.5805 51.5662 87.5805C51.2575 87.3393 50.9248 87.1289 50.5732 86.9526C50.2674 86.8489 49.5376 87.2476 49.2562 87.4569C48.9748 87.6662 48.6446 88.029 48.2919 89.0298C47.9391 90.0305 47.8841 89.6976 47.3785 89.7554C46.8729 89.8132 46.6058 89.1573 44.9319 89.4364C43.2581 89.7155 44.2469 89.4045 43.7291 89.2072C43.2112 89.0098 42.9503 89.2072 42.3019 89.0995C41.6536 88.9919 41.9676 89.6298 41.6903 90.2179C41.413 90.8059 41.9268 91.3322 42.1266 91.715C42.3264 92.0977 42.5955 93.0885 42.7239 93.4652C42.8524 93.842 42.4548 93.8918 42.0858 94.2168C41.7168 94.5417 40.5893 95.0301 40.5893 95.0301C40.5893 95.0301 40.6057 96.6249 40.8258 97.0236C41.046 97.4223 41.6291 96.7943 42.1164 96.589C42.6036 96.3837 42.5241 96.7884 42.5343 97.1871C42.5445 97.5858 42.8687 98.0741 43.2336 98.4748C43.5986 98.8755 43.7637 98.9094 44.2061 98.427C44.6485 97.9446 44.3733 98.0622 44.3631 97.6436C44.3529 97.2249 44.3244 97.1312 44.5527 96.9C44.781 96.6688 45.1644 96.8183 45.46 96.5751C45.7138 96.3135 45.9374 96.0253 46.1267 95.7159C46.1267 95.7159 46.2918 94.8607 46.6384 94.5676C46.8509 94.3899 47.0787 94.2305 47.3194 94.0912C47.3194 94.0912 47.7414 95.0241 48.353 95.2135C48.9647 95.4029 49.4234 94.757 49.4234 94.757L50.4428 93.8978C50.9243 93.7473 51.4469 93.7874 51.8985 94.0095C52.5835 94.3862 51.5763 94.9564 51.1869 95.2992C50.995 95.5045 50.7551 95.6611 50.4876 95.7557C50.2348 95.8574 49.5355 95.8056 49.1869 95.9332C48.8383 96.0607 48.6507 96.7305 48.6507 96.7305C48.6507 96.7305 47.6129 97.0455 46.9646 97.2588C46.3163 97.4721 46.353 97.8569 46.4019 98.2755C46.4733 98.8216 46.4835 99.3738 46.4325 99.9221C46.3673 100.353 45.8433 100.54 45.462 100.674C45.0808 100.807 44.7811 101.87 44.8178 102.809C44.8545 103.748 45.9269 103.104 46.2184 103.161C46.6955 103.252 47.18 103.299 47.6659 103.301C48.0003 103.252 48.3318 103.186 48.6588 103.102C48.9936 102.8 49.3568 102.529 49.7435 102.294C50.1655 102.079 50.4407 102.237 50.5264 102.47C50.612 102.703 51.293 102.847 51.7191 102.615C52.1452 102.384 52.398 101.806 52.7385 101.094C53.0789 100.383 53.8944 100.414 54.3022 100.297C54.71 100.179 54.5713 100.981 54.6386 101.327C54.6786 101.468 54.6756 101.618 54.6299 101.757C54.5843 101.896 54.498 102.019 54.3817 102.111C54.1391 102.324 53.8129 102.394 53.7823 103.562C53.7517 104.73 54.5713 104.282 54.4674 104.573C54.3634 104.864 53.7884 104.884 53.397 104.796C53.0055 104.708 52.7262 104.477 52.4857 104.485C52.2451 104.493 52.1717 105.055 51.9005 105.352C51.6293 105.649 50.7017 105.733 50.3898 105.613C50.0778 105.494 49.456 104.772 48.9911 104.381C48.8453 104.266 48.6754 104.183 48.4934 104.138C48.3113 104.093 48.1215 104.088 47.9371 104.122C47.9371 104.122 47.4845 105.302 47.8005 106.068C48.1165 106.833 48.455 106.59 48.8566 106.897C49.2582 107.204 49.4682 107.649 49.825 107.922C50.1818 108.195 50.663 108.52 50.9464 108.919C51.2298 109.317 51.7395 110.296 51.978 110.595C52.2165 110.894 52.9974 110.836 53.9271 110.693C54.8568 110.549 55.1055 110.354 55.4725 110.013C55.8394 109.672 55.9801 109.252 56.4796 108.548C56.8512 108.054 57.3294 107.645 57.8803 107.352C58.18 107.152 58.0067 107.605 58.0984 107.972C58.1902 108.339 57.8354 109.567 57.5031 110.165C57.1708 110.763 56.869 110.98 56.8079 111.279C56.7642 111.434 56.6954 111.58 56.604 111.713C57.5357 111.713 58.5042 111.654 59.3747 111.694C60.598 111.751 61.9782 112.31 63.1893 112.224C66.0293 112.024 68.3087 110.731 71.2343 111.227C72.4331 111.426 74.2517 112.264 74.9042 113.284C75.3323 113.962 75.5912 114.779 76.1152 115.401C76.2731 115.586 76.4441 115.759 76.6269 115.92C77.6871 114.395 78.6229 112.64 80.05 111.668Z" fill="#6163A1" stroke="white" stroke-miterlimit="10"/>
<path d="M154.78 182.98C153.809 182.245 152.741 183.162 151.646 183.036C149.177 182.747 148.111 181.194 145.721 182.103C145.487 182.191 145.338 182.001 145.124 181.975C144.378 181.89 144.29 182.647 144.166 183.13C143.942 184.064 143.774 185.009 143.662 185.962C143.574 186.616 143.776 187.286 143.611 187.938C143.063 190.131 139.393 191.997 140.734 194.439C140.967 194.859 141.442 195.094 141.754 195.435C142.738 196.548 143.568 197.357 145.167 196.749C146.082 196.4 146.543 195.334 147.475 195.059C148.476 194.766 149.405 195.579 150.453 195.124C151.238 194.783 151.577 193.296 151.677 193.268C153.026 192.906 155.779 193.354 155.929 191.305C155.991 190.466 155.114 189.84 154.949 189.024C154.588 187.176 156.627 184.38 154.78 182.98Z" fill="#6163A1" stroke="white" stroke-width="2" stroke-miterlimit="10"/>
<path d="M111.555 100.634C112.281 100.388 112.983 100.335 113.555 99.7825C114.605 98.7678 114.01 95.1257 115.988 94.2845C116.395 94.109 117.083 94.2984 117.484 94.3821C118.389 94.5815 119.225 94.8167 119.878 95.5184C120.736 96.4394 121.189 98.2674 122.691 98.4588C123.554 98.5704 124.652 97.0634 125.289 96.6647C127.026 95.5882 129.187 95.5085 131.138 95.9351C131.921 96.1065 131.953 96.8002 132.581 97.1311C133.986 97.8747 135.862 97.0115 135.939 99.1725C135.99 100.568 131.593 102.137 134.231 103.149C135.862 103.781 138.053 103.06 139.829 103.588C141.395 104.054 142.887 105.183 144.482 105.474C145.473 105.659 146.894 105.462 147.756 106.03C148.765 106.696 149.25 108.249 150.421 108.675C151.711 109.146 153.094 108.775 154.394 109.273C156.129 109.954 157.784 110.814 159.332 111.839C160.148 112.375 160.808 113.444 161.93 113.234C163.294 112.975 162.244 110.527 162.374 109.556C162.613 107.762 165.526 107.095 166.986 107.15C169.092 107.23 166.957 109.367 168.183 109.838C169.239 110.236 170.003 108.783 170.974 108.719C172.421 108.624 173.987 109.104 175.424 109.287C177.596 109.564 179.804 109.373 181.949 109.844C184.212 110.34 185.985 112.668 188.279 112.589C191.608 112.473 191.415 109.624 193.217 107.732C193.78 107.134 195.188 107.053 195.941 106.736C196.063 106.686 196.181 106.632 196.302 106.58C196.134 106.257 195.992 105.982 195.906 105.783C195.557 104.985 194.707 104.605 194.071 103.656C193.435 102.707 192.936 101.555 193.086 100.574C193.237 99.5931 193.376 98.8655 193.266 98.2575C193.156 97.6494 192.799 97.2408 191.769 96.577C190.74 95.9131 191.307 95.9052 191.184 95.2712C191.02 94.2695 190.792 93.2788 190.501 92.3049C190.069 90.8856 190.128 91.065 190.094 89.8609C190.059 88.6569 189.278 87.9352 189.201 87.0362C189.123 86.1371 188.181 85.6667 187.041 84.644C185.902 83.6214 187.431 83.2964 187.019 81.2392C186.607 79.1819 186.35 80.1826 184.833 80.0112C183.317 79.8398 183.965 78.9885 183.584 78.1194C183.202 77.2502 183.176 75.0455 182.888 74.1085C182.601 73.1716 182.674 72.9643 182.385 72.6254C182.095 72.2865 180.405 71.5031 180.118 71.0147C179.83 70.5263 179.045 69.0331 178.95 68.4132C178.828 67.2031 178.819 65.9847 178.923 64.7731C179.047 63.7086 178.43 63.4674 178.067 63.2481C177.704 63.0288 176.203 62.7976 175.71 62.8673C175.216 62.9371 174.715 62.2932 173.547 61.3662C172.379 60.4393 171.017 59.1076 169.877 58.7747C168.737 58.4418 168.886 58.1388 168.562 57.6365C168.238 57.1341 167.746 56.7514 166.586 55.4636C165.426 54.1758 164.319 53.4023 163.742 52.7365C163.165 52.0707 163.131 51.2554 162.745 50.8726C162.248 50.3118 161.839 49.6816 161.532 49.0027C161.355 48.5143 161.365 47.0232 161.296 46.4311C161.226 45.8391 160.982 43.9852 161.016 43.5167C161.099 42.5506 161.231 41.5892 161.412 40.6361C161.616 39.6533 160.941 38.9357 160.24 38.0725C159.538 37.2093 157.214 33.958 156.115 32.8436C155.016 31.7293 155.326 31.4841 155.153 30.8502C154.843 29.7373 154.454 28.6469 153.989 27.5869C153.552 26.6918 152.482 25.6911 152.101 25.1947C151.719 24.6983 151.363 22.5533 151.03 21.2396C150.698 19.9259 149.295 17.3544 148.362 15.3051C147.428 13.2558 147.799 13.1122 149.14 11.8005C150.482 10.4888 149.047 10.12 148.052 9.59376C147.057 9.06749 146.947 8.4834 146.753 7.36506C146.559 6.24672 146.58 5.65865 145.664 5.15829C144.749 4.65793 145.179 3.60936 145.179 3.60936C145.179 3.60936 144.928 2.45913 144.714 2.09631C144.5 1.7335 143.966 1.26304 143.672 1.18729C143.379 1.11154 142.582 2.29965 141.723 3.04919C140.865 3.79874 140.522 4.47652 140.074 5.60682C139.625 6.73712 139.15 8.07474 138.074 9.35056C136.997 10.6264 136.047 13.178 135.45 13.8139C134.853 14.4499 134.787 15.2094 134.431 15.7636C134.074 16.3177 132.628 17.0693 132.223 17.4261C131.817 17.783 129.515 18.4767 128.553 18.983C127.153 19.6476 125.715 20.2333 124.247 20.7373C123.217 21.0802 120.577 20.9705 118.873 21.2935C117.168 21.6164 116.084 20.6854 114.263 19.3598C112.442 18.0341 110.628 17.765 108.458 17.1271C106.289 16.4892 105.843 17.1829 104.764 17.4939C103.686 17.8049 101.539 18.9232 99.8833 19.2501C98.2278 19.5771 96.1625 19.4176 94.3194 19.5811C92.4764 19.7445 89.4467 18.1238 87.0756 17.7311C84.7045 17.3384 81.1937 17.6255 80.4618 17.6534C79.7299 17.6813 77.7645 18.1179 76.2517 18.8216C75.7592 19.0438 75.2549 19.2401 74.741 19.4096C75.4036 20.3944 76.109 21.4031 76.0601 22.5792C76.005 23.875 74.1089 27.6367 75.7563 28.5258C77.7502 29.6003 78.792 25.7588 80.5902 26.3967C82.8737 27.1941 77.895 30.3099 80.3069 31.8788C82.8411 33.5294 84.9227 30.0588 88.0379 31.7412C90.6333 33.1367 88.6639 37.1655 90.5742 39.2666C91.3326 40.0979 92.5049 40.0839 93.2817 40.8215C94.0585 41.5591 93.9627 43.0542 94.9311 43.6522C95.7344 44.1486 97.3878 44.1307 97.6386 45.2072C98.6111 49.4114 93.8424 49.529 91.7118 51.674C91.0288 52.3617 90.9147 53.4282 91.1471 54.3054C91.6996 56.3806 91.5385 57.9634 91.2898 60.0665C91.1308 61.3981 90.2174 63.1125 90.8025 64.4521C91.4896 66.015 95.9403 64.6654 97.555 65.5366C98.7375 66.1725 99.3512 67.8351 100.65 68.2936C102.701 69.0212 110.64 70.8731 111.139 73.054C111.437 74.3358 107.722 74.6009 107.835 75.3923C108 76.5406 110.436 77.1745 110.304 78.5719C110.169 80.0192 108.685 81.0119 108.285 82.4073C108.028 83.3064 108.607 84.3211 108.301 85.2122C108.03 85.9976 107.353 86.5119 107.097 87.2615C106.868 87.9253 107.284 88.6968 107.025 89.4543C106.581 90.7441 105.465 91.8584 104.899 93.1382C103.991 95.1835 105.918 96.882 104.554 98.2116C104.006 98.7458 103.535 98.9273 103.094 98.9651C105.466 100.783 108.34 101.724 111.555 100.634Z" fill="#6163A1" stroke="white" stroke-miterlimit="10"/>
<path d="M154.78 182.98C153.809 182.245 152.741 183.162 151.646 183.036C149.177 182.747 148.111 181.194 145.721 182.103C145.487 182.191 145.338 182.001 145.124 181.975C144.378 181.89 144.29 182.647 144.166 183.13C143.942 184.064 143.774 185.009 143.662 185.962C143.574 186.616 143.776 187.286 143.611 187.938C143.063 190.131 139.393 191.997 140.734 194.439C140.967 194.859 141.442 195.094 141.754 195.435C142.738 196.548 143.568 197.357 145.167 196.749C146.082 196.4 146.543 195.334 147.475 195.059C148.476 194.766 149.405 195.579 150.453 195.124C151.238 194.783 151.577 193.296 151.677 193.268C153.026 192.906 155.779 193.354 155.929 191.305C155.991 190.466 155.114 189.84 154.949 189.024C154.588 187.176 156.627 184.38 154.78 182.98Z" fill="#6163A1" stroke="white" stroke-width="2" stroke-miterlimit="10"/>
<path d="M108.774 178.13C109.423 177.63 110.666 177.777 111.109 177.006C111.594 176.163 111.262 174.959 111.829 174.085C112.281 173.388 113.794 172.114 113.906 171.312C114.088 170.027 112.95 168.408 113.521 167.196C114.412 165.306 116.605 167.044 117.684 165.731C117.955 165.404 117.007 164.459 116.836 164.136C116.328 163.205 117.431 161.991 116.85 160.926C116.85 160.911 113.969 161.507 113.384 161.295C112.189 160.863 112.395 159.513 111.753 158.772C111.033 157.93 109.637 158.024 109.154 156.86C108.369 154.978 109.474 152.498 109.731 150.68C109.955 149.085 108.689 147.538 108.832 145.963C108.956 144.598 111.184 144.323 110.819 143.053C110.556 142.138 109.362 141.857 108.817 141.151C108.35 140.553 109.156 139.443 108.348 138.942C107.586 138.468 104.047 139.469 104.882 137.27C105.15 136.566 107.28 136.335 107.93 135.851C108.803 135.205 110.065 132.356 110.581 132.212C111.6 131.931 112.691 132.412 113.765 132.013C114.785 131.646 115.341 130.494 116.324 130.209C117.819 129.776 118.724 130.833 120.616 129.898C124.983 127.743 116.661 124.47 120.901 122.431C122.275 121.769 125.643 122.133 127.099 122.498C127.866 122.698 129.05 123.206 129.841 123.009C131.268 122.652 131.04 120.206 133.67 120.559C136.51 120.939 137.087 125.979 141.548 123.656C142.343 123.244 144.323 121.095 144.521 120.204C144.914 118.424 143.54 116.649 144.973 114.905C146.158 113.462 148.162 113.235 149.393 111.736C150.054 110.938 150.119 109.676 150.425 108.68H150.411C149.24 108.253 148.755 106.7 147.746 106.034C146.883 105.466 145.462 105.663 144.472 105.478C142.869 105.179 141.385 104.059 139.819 103.592C138.043 103.064 135.858 103.792 134.221 103.154C131.582 102.141 135.98 100.576 135.929 99.1766C135.852 97.0157 133.976 97.8789 132.571 97.1353C131.941 96.8004 131.911 96.1067 131.128 95.9392C129.177 95.5126 127.016 95.5924 125.278 96.6689C124.642 97.0675 123.543 98.5686 122.681 98.463C121.178 98.2636 120.726 96.4436 119.868 95.5226C119.215 94.8209 118.379 94.5797 117.474 94.3863C117.066 94.3026 116.387 94.1132 115.978 94.2886C114 95.1299 114.595 98.772 113.545 99.7866C112.976 100.339 112.271 100.385 111.545 100.638C108.33 101.728 105.455 100.793 103.084 98.9733C102.34 99.0371 101.641 98.7022 100.662 98.9195C99.1575 99.2524 96.8843 100.532 95.7833 101.641C94.5254 102.908 94.9943 104.693 93.1879 105.639C91.5936 106.477 90.3337 104.79 88.6884 105.63C87.5263 106.228 86.6047 107.274 85.7545 108.167C84.2438 109.762 81.8136 110.484 80.0459 111.672C78.6025 112.645 77.6748 114.399 76.6514 115.932C77.3813 116.588 78.2579 117.096 78.9348 117.826C79.4302 118.358 79.7503 119.022 80.2396 119.552C81.2957 120.662 82.7718 121.645 82.89 123.302C82.9899 124.651 82.2335 126.641 80.9613 127.273C79.838 127.833 78.6759 127.749 78.3109 129.093C77.9949 130.275 79.7116 130.442 79.8665 131.459C80.0602 132.713 78.3904 134.969 78.366 136.459C78.3313 138.55 79.6667 141.759 80.6596 144.197C80.8118 143.926 80.9973 143.675 81.2121 143.448C82.3885 142.23 84.1724 143.007 84.6495 144.407C84.9451 145.274 85.0124 147.088 85.6302 147.73C86.6985 148.842 88.2581 148.102 88.7984 150.03C89.3897 152.135 87.5976 153.12 87.0675 154.884C86.7046 156.092 87.5813 157.276 87.3183 158.502C87.1674 159.156 86.9209 159.784 86.5864 160.368C88.3683 160.801 90.4417 161.265 91.4367 162.445C92.3133 163.484 91.5773 164.82 91.9443 166.016C92.1747 166.771 92.6987 167.477 92.9637 168.239C93.241 169.05 93.1675 169.833 93.6915 170.589C94.1217 171.205 94.7109 171.661 94.9596 172.393C95.0908 172.805 95.1514 173.235 95.1391 173.667C95.765 173.962 96.291 174.58 96.8354 174.974C97.4368 175.411 98.2197 175.541 98.8639 175.903C99.9384 176.501 100.699 177.735 101.792 178.256C103.156 178.902 104.238 176.569 105.729 177.725C106.136 178.046 106.611 178.814 107.025 179.747C107.568 179.168 108.152 178.627 108.774 178.13Z" fill="#6163A1" stroke="white" stroke-miterlimit="10"/>
<path d="M201.792 180.745C201.765 180.108 201.67 179.103 201.619 178.421C201.578 177.786 201.589 177.149 201.651 176.515C201.706 175.849 200.797 175.351 200.279 175.67C199.93 175.873 199.667 176.19 199.535 176.565C199.427 176.808 198.624 178.289 198.534 178.772C198.444 179.254 198.157 179.396 197.663 179.502C197.17 179.607 196.644 179.677 196.336 179.725C196.028 179.773 195.486 180.478 195.197 181.174C194.907 181.87 194.52 181.772 193.953 181.904C193.386 182.035 193.327 181.375 192.917 181.066C192.507 180.757 192.228 179.888 192.085 179.244C191.943 178.6 192.085 178.447 192.558 178.026C193.04 177.619 193.374 177.07 193.508 176.461C193.68 175.782 193.806 175.63 193.192 174.536C192.579 173.441 192.848 172.957 192.848 172.957C192.848 172.957 192.569 171.348 192.291 171.173C192.014 170.997 191.36 169.841 191.36 169.841L191.7 169.044C191.7 169.044 192.499 167.738 192.515 166.755C192.532 165.772 192.036 166.398 191.939 165.958C191.841 165.517 192.416 165.009 192.55 164.413C192.676 163.783 192.93 163.184 193.298 162.653C193.665 162.156 194.142 160.685 194.226 159.81C194.303 159.013 194.526 158.237 194.885 157.517C195.164 157.011 195.784 155.723 195.957 154.952C196.15 153.931 196.054 152.878 195.68 151.906C195.258 150.774 195.368 149.799 195.584 148.662C195.8 147.526 195.753 146.492 196.273 145.933C196.793 145.375 196.644 144.903 196.634 144.277C196.624 143.651 195.59 143.571 195.003 143.316C194.416 143.061 194.491 142.917 194.145 142.624C193.798 142.331 194.049 141.191 194.145 140.513C194.24 139.835 194.514 138.269 194.679 137.613C194.844 136.957 194.966 135.482 195.001 134.774C195.035 134.066 195.543 133.919 196.565 133.506C197.586 133.093 197.307 130.163 197.478 128.853C197.649 127.544 197.195 114.327 197.313 113.567C197.457 112.356 197.531 111.137 197.535 109.917C197.547 109 196.817 107.583 196.312 106.594C196.191 106.646 196.073 106.7 195.951 106.75C195.199 107.059 193.79 107.148 193.227 107.746C191.425 109.638 191.618 112.487 188.289 112.603C185.995 112.682 184.212 110.354 181.959 109.858C179.812 109.387 177.604 109.578 175.435 109.301C173.997 109.118 172.431 108.638 170.984 108.733C170.013 108.797 169.249 110.258 168.193 109.852C166.97 109.381 169.102 107.244 166.996 107.164C165.536 107.109 162.623 107.784 162.384 109.57C162.254 110.541 163.304 112.989 161.94 113.248C160.818 113.462 160.154 112.393 159.342 111.853C157.795 110.828 156.139 109.968 154.404 109.287C153.11 108.789 151.732 109.154 150.445 108.689C150.139 109.686 150.074 110.942 149.413 111.745C148.19 113.244 146.178 113.472 144.993 114.915C143.566 116.659 144.934 118.433 144.541 120.214C144.337 121.105 142.363 123.254 141.568 123.666C137.107 125.989 136.53 120.949 133.69 120.568C131.06 120.216 131.283 122.662 129.862 123.018C129.07 123.218 127.886 122.699 127.119 122.508C125.664 122.143 122.296 121.779 120.921 122.44C116.681 124.48 124.999 127.753 120.636 129.908C118.744 130.843 117.839 129.786 116.344 130.219C115.362 130.504 114.803 131.656 113.786 132.023C112.711 132.412 111.631 131.935 110.601 132.222C110.083 132.366 108.821 135.213 107.951 135.86C107.3 136.345 105.17 136.576 104.903 137.28C104.069 139.473 107.608 138.476 108.369 138.952C109.184 139.453 108.369 140.559 108.838 141.161C109.382 141.863 110.577 142.158 110.84 143.063C111.205 144.333 108.976 144.608 108.852 145.973C108.709 147.548 109.975 149.091 109.751 150.69C109.494 152.516 108.389 154.996 109.174 156.87C109.657 158.034 111.054 157.94 111.773 158.781C112.407 159.523 112.202 160.873 113.404 161.305C113.988 161.516 116.86 160.92 116.87 160.936C117.451 162.001 116.348 163.215 116.856 164.146C117.027 164.461 117.975 165.406 117.704 165.741C116.626 167.054 114.432 165.316 113.541 167.206C112.97 168.418 114.108 170.036 113.926 171.322C113.814 172.12 112.295 173.397 111.849 174.095C111.282 174.968 111.614 176.172 111.129 177.016C110.687 177.787 109.443 177.64 108.795 178.14C108.179 178.635 107.601 179.173 107.064 179.749C107.879 181.591 108.505 184.081 108.14 185.081C107.861 185.822 107.447 186.507 106.917 187.103C107.512 187.689 107.098 188.087 107.368 188.709C107.924 189.993 109.221 190.703 110.456 191.199C113.898 192.561 119.631 189.969 121.982 193.763C123.339 195.885 123.901 198.402 123.572 200.883C123.403 202.054 120.406 203.363 122.785 204.035C126.082 204.968 129.823 204.314 133.062 205.231C135.509 205.925 134.306 208.202 137.801 207.841C138.698 207.747 140.292 207.243 140.928 206.585C141.807 205.682 141.336 203.706 143.303 203.977C145.75 204.314 143.874 205.54 144.229 206.822C144.522 207.879 146.174 207.645 146.816 208.156C147.428 208.63 146.926 209.645 147.568 210.271C149.418 212.065 153.073 210.685 155.387 211.182C156.213 211.359 156.054 212.687 156.814 212.792C158.747 213.058 160.394 210.528 162.009 209.92C163.183 209.477 164.482 208.889 165.758 208.967C166.533 209.015 167.261 209.326 168.048 209.282C168.484 209.258 168.864 209.218 169.235 209.178C169.255 209.126 169.282 209.076 169.314 209.029C169.911 208.16 171.294 208.124 172.022 207.472C173.914 205.779 177.061 202.235 179.934 202.504C180.864 202.592 181.624 203.357 182.552 203.399C183.343 203.433 184.387 202.727 185.143 203.24C186.252 204.003 185.824 208.086 187.423 208.257C189.202 208.457 189.441 205.644 191.635 205.447C192.127 205.399 192.623 205.414 193.111 205.49C193.453 204.402 193.985 203.519 194.106 203.078C194.226 202.638 194.171 201.501 194.489 201.216C194.875 200.884 195.218 200.507 195.508 200.092C195.996 199.438 195.649 199.053 195.945 198.254C196.24 197.455 196.634 197.684 196.795 197.457C196.956 197.229 196.987 196.364 197.08 195.431C197.174 194.498 197.706 194.875 197.949 194.435C198.191 193.994 198.041 193.179 197.949 192.615C197.857 192.05 198.002 191.102 198.163 190.256C198.324 189.411 198.962 188.861 199.166 188.036C199.397 187.151 199.712 186.289 200.108 185.462C200.499 184.613 201.093 183.696 201.415 183.036C201.709 182.308 201.838 181.527 201.792 180.745ZM155.931 191.311C155.781 193.36 153.028 192.906 151.679 193.274C151.577 193.302 151.238 194.789 150.455 195.13C149.407 195.585 148.478 194.771 147.477 195.065C146.545 195.34 146.084 196.406 145.169 196.755C143.57 197.353 142.741 196.556 141.756 195.441C141.444 195.09 140.969 194.855 140.736 194.445C139.395 192.003 143.065 190.133 143.613 187.944C143.778 187.292 143.576 186.622 143.664 185.968C143.776 185.015 143.944 184.07 144.168 183.136C144.292 182.653 144.372 181.896 145.126 181.981C145.34 182.007 145.489 182.197 145.723 182.109C148.113 181.2 149.179 182.753 151.648 183.042C152.737 183.168 153.811 182.245 154.782 182.986C156.629 184.382 154.59 187.172 154.953 189.04C155.11 189.85 155.993 190.476 155.931 191.315V191.311Z" fill="#6163A1" stroke="white" stroke-miterlimit="10"/>
<path d="M98.3685 244.754C97.867 243.558 96.6946 243.386 96.2645 242.661C95.7507 241.79 96.9434 240.582 96.3521 239.938C95.6895 239.216 94.4234 239.796 93.7934 239.182C93.1634 238.568 94.2175 237.416 93.7934 236.949C93.4917 236.621 92.5906 237.264 92.1848 237.097C91.2348 236.698 92.087 235.424 91.4631 234.968C90.9187 234.569 90.2745 235.153 89.8321 234.402C89.6445 234.083 89.8117 233.604 89.8321 233.285C89.8525 232.921 89.3856 232.289 89.6282 231.958C90.2623 231.127 91.1002 230.674 90.5477 229.366C90.1726 228.471 88.5375 227.542 87.8157 226.882C85.6852 224.933 85.4385 222.523 82.2498 221.769C80.8043 221.428 79.8787 222.291 78.6351 222.678C76.7186 223.276 74.8898 224.125 72.9774 224.672C69.5115 225.668 64.3269 224.472 61.1056 223.24C57.1238 221.703 59.1606 216.331 56.5265 213.763C54.3531 211.644 54.0514 216.578 52.1818 215.811C51.456 215.514 50.718 214.017 50.2042 213.46C49.6313 212.836 46.357 211.056 45.515 211.012C42.9543 210.877 41.2763 213.331 40.1917 215.272C39.6453 216.251 38.3874 216.774 37.5943 217.553C36.2446 218.877 35.7247 220.145 33.9469 221.018C32.7236 221.616 31.9081 222.535 30.4463 222.15C26.1159 221.018 26.7928 216.805 25.5695 213.43C25.3045 212.701 25.3758 211.872 24.8355 211.224C24.4358 210.76 23.9876 210.338 23.4981 209.966C23.7632 210.293 24.124 210.564 24.3381 210.963C24.6786 211.606 23.9609 211.323 23.0353 211.325C22.1097 211.327 22.4114 211.018 22.0281 210.947C21.6448 210.875 21.3635 211.084 20.7274 211.636C20.0913 212.189 20.5683 212.92 20.5948 213.594C20.6213 214.268 21.3512 214.013 21.8854 213.873C22.4196 213.734 22.3951 213.622 22.9191 213.309C23.2484 213.089 23.6081 212.915 23.9874 212.795C24.5318 212.595 24.542 212.994 24.7622 213.237C24.9823 213.48 24.6194 213.749 24.2749 214.16C23.9303 214.571 23.7081 214.359 23.1494 214.407C22.5908 214.455 22.4379 214.664 21.8283 214.746C21.2187 214.828 21.3655 214.856 21.0679 215.49C20.7702 216.124 21.3431 215.777 21.4328 216.807C21.5225 217.838 20.6621 216.987 20.4134 216.668C20.0455 216.202 19.5509 215.847 18.9863 215.643C18.2645 215.392 18.3543 216.122 18.236 216.502C18.1178 216.883 18.3665 217.856 18.4684 218.297C18.5703 218.737 18.9149 219.658 18.9027 219.993C18.8905 220.328 18.4113 220.651 18.1707 220.99C17.9302 221.329 17.4674 221.955 17.3552 222.457C17.2431 222.959 17.6081 223.226 17.8323 223.653C18.0566 224.08 17.6284 224.407 17.5163 224.849C17.4042 225.292 16.3705 225.581 15.8241 225.778C15.2777 225.975 15.8424 227.142 16.7314 227.859C17.6203 228.577 17.7508 227.873 18.2972 227.742C18.9408 227.553 19.5573 227.285 20.1321 226.944C20.7743 226.589 20.8151 226.707 21.4328 226.811C22.0506 226.914 21.5062 227.526 21.1841 227.935C20.8313 228.37 20.4077 228.745 19.9302 229.045C19.6142 229.211 18.3441 229.671 17.5163 229.95C16.6886 230.229 16.448 230.497 16.3175 231.188C16.187 231.88 16.7926 232.366 16.974 232.969C17.1555 233.571 18.1116 233.668 18.7661 233.668C19.4205 233.668 19.7712 233.389 20.2789 233.152C20.7865 232.915 20.7539 233.69 20.7539 233.69C20.703 234.081 20.5637 234.457 20.3461 234.789C20.0097 235.261 19.8711 235.255 19.6468 235.739C19.4226 236.224 20.0954 236.441 20.0077 236.908C19.92 237.374 19.6815 237.637 19.5225 238.223C19.3635 238.809 18.5928 238.861 18.0138 238.949C17.4347 239.037 17.1391 238.056 16.8272 237.532C16.5421 237.083 16.3011 236.609 16.1075 236.116C15.9954 235.761 15.292 234.785 15.1941 234.392C15.0962 233.999 15.1941 233.395 15.1839 232.761C15.1737 232.127 15.0167 231.824 14.7333 231.579C14.6737 231.519 14.6008 231.473 14.5201 231.445C14.4395 231.417 14.3533 231.408 14.2683 231.417C14.1833 231.427 14.1017 231.456 14.03 231.502C13.9582 231.547 13.8982 231.609 13.8546 231.681C13.6732 232 13.714 232.941 13.5427 233.712C13.3715 234.484 13.3205 233.74 12.9188 233.461C12.5172 233.182 12.3378 232.887 11.822 232.697C11.3062 232.508 10.2766 233.387 10.1318 233.72C9.98707 234.053 10.8617 234.625 10.8617 234.625L10.9106 235.985C10.9106 235.985 11.2776 237.151 11.4958 237.699C11.7139 238.247 12.1788 238.271 12.7394 238.606C13.3001 238.941 13.5427 238.175 13.3511 237.675C13.1594 237.175 13.3735 236.627 13.7588 235.865C14.1442 235.104 14.1972 236.557 14.4174 237.033C14.6375 237.51 14.9291 237.653 15.2696 238.106C15.5255 238.469 15.7532 238.851 15.9505 239.248C15.9659 239.606 15.8543 239.958 15.6345 240.245C15.2696 240.697 15.977 241.413 15.977 241.413C15.977 241.413 16.976 242.222 17.3165 242.366C17.657 242.509 18.2177 242.27 18.8517 242.342C19.4858 242.414 19.5102 243.153 19.1433 243.319C18.7763 243.484 17.7304 243.177 17.2186 243.319C16.7069 243.46 16.5112 244.439 16.3664 244.82C16.2216 245.2 16.3175 246.512 16.4398 247.324C16.5621 248.135 16.293 249.253 16.6824 249.897C17.0718 250.541 17.2186 250.515 17.2431 250.944C17.2676 251.372 16.342 251.659 15.8792 252.064C15.4163 252.469 16.3175 253.113 16.5356 253.78C16.7538 254.448 17.6325 254.614 18.0484 254.976C18.4643 255.339 19.8833 254.907 20.2157 254.777C20.548 254.648 21.655 253.966 22.336 253.966C23.0169 253.966 22.7988 254.205 21.7243 255.421C20.6499 256.637 22.4073 256.135 23.0659 256.587C23.7244 257.04 24.0404 256.326 24.65 255.421C25.2596 254.516 24.9415 254.372 24.9905 253.705C25.0394 253.037 25.8447 252.393 26.0629 252.036C26.281 251.679 25.7469 250.964 25.4044 250.583C25.0618 250.202 26.0874 250.37 26.6276 250.154C27.1679 249.939 26.9192 249.158 26.5298 248.845C26.1404 248.532 26.7011 247.914 27.1149 247.961C27.5288 248.009 28.0405 248.438 28.5053 248.559C28.9702 248.681 29.747 249.299 29.747 249.299C29.4182 249.795 29.0601 250.273 28.6746 250.728C28.2362 251.205 28.2852 251.777 28.0161 252.467C27.835 252.935 27.6805 253.413 27.5532 253.898C27.4085 254.398 28.1649 255.208 28.1649 255.208L29.7245 255.806L30.8459 256.234L32.6502 256.258C32.6502 256.258 32.1629 257.235 31.5044 257.735C30.8459 258.236 30.4565 257.536 30.4565 257.536C30.4565 257.536 29.5064 257.371 29.3596 257.967C29.2128 258.563 29.7246 259.3 29.3351 259.96C28.9457 260.62 28.3157 260.159 27.9956 259.484C27.5454 258.604 27.1544 257.696 26.8254 256.767C26.4829 255.718 24.332 257.365 24.332 257.365C24.332 257.365 23.5327 257.823 23.2065 257.985C22.8803 258.146 22.7988 258.26 23.4512 260.213C24.1036 262.167 22.7703 259.579 22.3543 259.286C21.9384 258.993 21.916 259.763 21.5123 259.747C21.1086 259.731 21.284 259.065 20.7722 258.551C20.2605 258.036 19.7977 257.59 19.3553 257.41C18.9129 257.231 18.2136 257.56 17.6284 257.367C17.0433 257.173 16.0402 257.295 15.9158 257.54C15.7772 257.838 15.7054 258.161 15.7054 258.488C15.7054 258.815 15.7772 259.138 15.9158 259.436C16.3236 260.255 16.7314 260.034 17.2451 260.12C17.7589 260.205 18.4358 260.158 18.8313 260.297C19.2268 260.437 19.6264 260.66 19.8079 260.945C19.9894 261.23 20.4032 261.986 21.3084 262.394C22.2136 262.803 21.7611 262.344 22.3156 262.105C22.8702 261.866 23.1678 262.131 23.912 262.304C24.6561 262.478 24.4155 262.703 24.8335 263.393C25.2514 264.083 24.9803 264.168 25.1597 264.916C25.3391 265.663 25.7387 265.488 26.4258 265.596C27.1129 265.703 27.4921 266.238 27.5512 267.169C27.6103 268.099 26.9926 267.216 26.3116 267.194C25.6307 267.173 25.4227 266.899 24.9008 266.596C24.3885 266.318 23.8254 266.141 23.2433 266.074C22.7478 266.022 22.9843 266.18 22.9599 266.698C22.9354 267.216 22.6438 267.035 21.8426 266.698C21.0414 266.361 20.4664 265.257 20.2116 265.151C19.9567 265.045 19.0515 264.073 19.0515 264.073C19.0515 264.073 19.2697 263.042 18.9577 262.558C18.6458 262.073 17.5632 262.185 16.8761 262.687C16.189 263.19 15.4836 263.433 15.6753 263.995C15.8669 264.557 16.3012 264.713 17.1493 265.307C17.9974 265.901 18.6376 266.582 19.6305 267.553C20.6234 268.524 20.8354 267.914 22.0465 268.57C23.2575 269.226 22.8967 269.315 22.7621 270.145C22.6275 270.974 21.4247 269.945 20.4664 269.81C19.5082 269.674 19.2044 269.427 18.2421 269.1C17.2798 268.773 17.2227 268.185 16.923 267.683C16.6233 267.18 16.238 267.005 15.8649 266.561C15.4918 266.116 15.0494 265.428 14.7232 265.129C14.397 264.83 14.1115 264.202 13.9749 263.933C13.8383 263.664 13.7608 262.751 13.8689 262.139C13.9769 261.527 14.4805 261.457 14.6538 261.142C14.8271 260.827 14.2746 260.357 13.7609 260.295C13.2471 260.233 13.2104 259.862 13.1757 259.175C13.1411 258.487 13.0819 258.377 12.8169 257.933C12.5518 257.488 11.5263 257.518 11.3286 257.987C11.1308 258.455 10.717 258.648 10.6538 259.021C10.5906 259.394 10.3276 259.795 10.3418 260.118C10.3275 260.6 10.2137 261.075 10.0074 261.513C9.81486 261.83 9.68871 262.181 9.63636 262.546C9.62209 262.835 9.43248 263.897 9.68733 264.569C9.94218 265.241 10.2236 264.934 11.665 265.452C13.1064 265.97 11.0534 266.188 10.8495 266.776C10.6456 267.364 9.83008 267.601 9.616 267.888C9.40193 268.175 9.98504 268.739 9.98504 268.739C9.98504 268.739 11.0493 269.118 11.4122 269.497C11.7751 269.876 11.7791 270.278 11.8994 270.759C12.0197 271.239 12.295 271.197 12.6803 271.285C13.0932 271.351 13.5137 271.356 13.928 271.299C14.3704 271.265 14.3133 270.753 14.4377 270.242C14.5621 269.732 14.8924 269.995 15.2757 269.89C15.659 269.784 15.769 270.356 15.9729 271.006C16.1768 271.656 16.4704 271.486 17.0433 271.789C17.6162 272.092 17.3104 272.405 17.1514 272.8C16.9923 273.195 17.182 273.727 17.8833 274.1C18.5846 274.473 18.4174 273.885 18.5601 273.564C18.7029 273.243 19.1555 273.436 19.6061 273.763C20.0566 274.09 20.444 273.92 21.0067 273.803C21.5694 273.685 21.551 273.372 21.8222 272.806C22.0934 272.24 22.071 271.909 22.3177 271.506C22.5644 271.104 23.1658 271.064 24.0465 271.054C24.9273 271.044 24.6439 271.632 25.0659 272.415C25.488 273.199 24.4421 273.326 23.9568 273.97C23.4716 274.614 23.1148 274.305 22.3971 274.568C21.6795 274.831 21.4369 274.742 20.9822 274.919C20.5276 275.097 20.3074 275.517 19.8833 275.746C19.4592 275.976 19.2941 276.65 19.2065 277.042C19.1188 277.435 19.5021 277.509 19.8446 277.698C20.1871 277.887 20.4929 277.822 21.1861 277.913C21.8793 278.005 21.6979 278.432 21.6979 278.432C21.6979 278.432 21.3125 279.006 21.0128 279.171C20.7131 279.337 20.1504 279.307 19.7895 279.436C19.4287 279.566 19.498 279.791 19.8038 280.106C20.1096 280.421 20.5316 280.214 20.9618 280.146C21.392 280.078 21.8304 280.146 22.234 280.122C22.6377 280.098 22.6826 279.658 23.1373 279.458C23.5919 279.259 24.3931 279.323 25.0333 279.406C25.6735 279.49 25.4207 280.038 25.0088 280.266C24.597 280.493 23.7958 280.521 23.7958 280.521L22.8457 281.187C22.8457 281.187 22.0832 281.366 21.5307 281.476C20.9782 281.585 20.8966 281.751 20.4827 281.761C20.0689 281.771 19.9873 282.058 19.7202 282.325C19.4532 282.592 18.9679 282.692 19.0209 282.999C19.0739 283.306 19.0556 284.261 19.1677 284.972C19.2798 285.684 20.0138 285.544 20.7294 285.371C21.0649 285.272 21.4148 285.227 21.7652 285.237C21.8005 285.836 21.7752 286.437 21.6897 287.032C21.5823 287.539 21.6349 288.065 21.8406 288.543C21.94 288.739 22.0928 288.905 22.2823 289.023C22.4718 289.14 22.6907 289.204 22.915 289.208C23.3003 289.19 23.8243 288.469 23.8243 288.469C23.8243 288.469 24.7153 287.954 25.0619 287.57C25.4085 287.185 25.7 287.004 26.0058 287.149C26.3116 287.295 26.33 288.058 26.33 288.058C26.7169 288.115 27.1103 288.119 27.4982 288.068C27.9365 287.972 27.8407 287.42 27.8203 286.998C27.8 286.575 27.8998 286.059 27.9182 285.493C27.9398 285.085 27.9875 284.68 28.0609 284.279C28.0609 284.279 28.6012 283.499 28.5726 283.104C28.5441 282.71 28.5441 282.325 29.0864 281.809C29.6287 281.292 29.7103 280.957 29.7103 280.957L31.2455 281.007C31.2455 281.007 31.7817 281.34 33.5085 280.947C35.2354 280.555 33.8877 280.618 35.1232 279.891C36.3587 279.163 35.6207 279.207 35.6207 279.207C35.3904 278.835 35.1037 278.499 34.7705 278.21C34.3404 277.889 34.5565 277.965 35.0417 277.433C35.2639 277.188 35.423 277.754 35.847 277.762C36.2711 277.77 36.1977 277.256 36.1223 276.693C36.0468 276.131 36.0427 276.255 36.5055 275.856C36.9684 275.457 37.1498 276.201 37.4719 276.508C37.7941 276.815 38.5362 277.323 38.7931 277.86C39.0499 278.396 38.9011 279.131 39.0806 279.229C39.26 279.327 39.7921 279.48 40.1305 279.285C40.469 279.09 40.7197 278.719 41.103 278.717C41.4863 278.715 41.5536 279.484 41.7697 279.727C41.9858 279.971 42.2855 280.694 42.4996 281.175C42.6303 281.43 42.8202 281.652 43.0542 281.822C43.2882 281.993 43.5598 282.108 43.8472 282.157C44.3447 282.199 44.1694 281.593 44.52 280.822C44.8707 280.05 44.4038 280.062 44.1979 279.901C43.992 279.739 43.5863 279.452 43.2458 279.181C42.9053 278.91 43.099 278.515 43.1398 278.266C43.1805 278.017 43.5353 278.266 44.1347 278.047C44.7341 277.828 44.1612 277.483 44.1898 276.998C44.2183 276.514 44.9808 276.109 44.9808 276.109C45.107 276.161 45.2137 276.25 45.2867 276.363C45.3596 276.477 45.3952 276.609 45.3886 276.743C45.3886 277.236 45.4599 277.457 45.6312 277.65C45.8024 277.844 46.1552 277.501 46.4345 277.323C46.7138 277.146 47.5232 277.447 47.937 277.808C48.3509 278.169 48.3163 278.531 48.5487 278.583C48.7811 278.635 49.4131 278.003 49.6761 277.702C49.9391 277.401 50.459 276.839 50.8097 276.364C51.1604 275.89 50.5712 275.222 50.2409 274.927C49.9106 274.632 49.6537 274.903 49.2378 275.027C48.8219 275.15 48.6261 275.051 48.2857 274.897C47.9452 274.744 47.933 274.221 47.8779 273.661C47.81 273.346 47.8562 273.017 48.0084 272.73C48.1389 272.381 48.7648 272.694 49.0849 272.531C49.3768 272.389 49.6255 272.174 49.8066 271.909C49.9575 271.676 49.776 270.819 49.6985 270.567C49.6708 270.428 49.6747 270.284 49.7099 270.147C49.7452 270.009 49.8108 269.88 49.9024 269.77C50.0279 269.635 50.1643 269.509 50.3102 269.395C50.7023 269.61 51.1059 269.803 51.5192 269.975C51.927 270.125 52.1798 269.515 52.4183 269.333C52.6568 269.152 52.4631 268.745 51.9962 268.319C51.5294 267.892 50.8362 267.567 50.2837 267.023C49.7312 266.479 50.4631 266.642 50.7995 266.642C51.1359 266.642 51.8189 267.041 51.9922 267.19C52.4658 267.537 52.9048 267.927 53.3031 268.355C53.6599 268.801 53.7904 268.911 54.3755 268.925C54.9607 268.939 54.9872 268.484 55.3297 268.209C55.6722 267.934 56.4102 267.262 56.5387 267.165C56.6671 267.067 57.4582 266.192 58.0168 265.859C58.5754 265.526 58.7243 264.689 59.0158 264.663C59.3074 264.637 59.6825 265.061 60.0944 264.922C60.5062 264.782 60.706 264.601 61.2646 264.583C61.8232 264.565 62.1555 264.33 62.547 264.073C62.8586 263.866 63.0893 263.563 63.2015 263.212C63.3481 262.752 63.374 262.264 63.2769 261.792C63.1872 261.272 63.0954 261.096 63.073 260.568C63.0506 260.04 63.2503 259.635 63.5623 259.173C63.8742 258.71 64.2433 258.868 64.5226 258.712C64.8019 258.557 65.4992 257.961 65.7459 257.813C66.1218 257.603 66.5187 257.431 66.9304 257.299C67.2505 257.217 67.5318 257.861 67.3178 258.23C67.1037 258.599 66.7775 258.629 66.5858 258.971C66.3942 259.314 66.0741 259.553 66.121 260.07C66.1679 260.586 66.3249 261.326 66.6083 261.499C66.8917 261.673 67.0303 261.342 67.4013 260.913C67.7724 260.484 68.3086 260.692 68.8285 260.644C69.3484 260.596 69.7358 261.342 70.1252 262.149C70.5146 262.956 69.9947 262.498 69.8499 262.861C69.7052 263.223 69.801 263.241 70.011 263.558C70.221 263.875 70.1415 264.113 69.8071 264.856C69.4727 265.6 69.0629 266.092 68.4635 266.451C67.8641 266.81 67.7989 266.65 67.3932 266.688C66.9874 266.726 67.0058 265.911 66.9406 265.341C66.8987 264.661 66.7112 263.997 66.3901 263.393C65.9375 262.492 65.4991 263.393 65.2076 263.664C64.916 263.935 63.8478 264.487 63.8151 264.994C63.7825 265.5 64.123 265.791 64.4635 266.26C64.8039 266.728 65.0628 266.766 65.5644 267.368C66.0659 267.97 65.2566 268.207 65.1913 268.729C65.1261 269.252 65.0792 269.664 64.755 269.76C64.4308 269.856 63.9925 269.537 63.7356 269.808C63.4787 270.079 63.0241 270.677 62.3268 271.042C61.6295 271.407 61.9863 270.946 61.76 270.709C61.5337 270.472 61.8416 270.077 62.019 269.664C62.1973 269.203 62.3491 268.733 62.4736 268.255C62.602 267.812 62.4247 267.495 61.8253 266.941C61.2259 266.387 61.55 267.21 61.1117 267.384C60.6734 267.557 59.9944 268.181 59.9455 268.636C59.8961 269.163 59.9016 269.693 59.9618 270.219C60.027 271.016 58.9913 270.599 58.7487 270.994C58.5061 271.389 58.5693 271.817 58.5693 272.324C58.5693 272.83 58.0841 272.657 57.711 273.149C57.3379 273.641 58.1819 274.588 58.6753 274.849C59.1687 275.111 59.1952 274.909 59.1952 274.909C59.5976 274.693 60.0314 274.537 60.4817 274.449C61.0811 274.363 60.9037 275.103 61.0342 275.366C61.1647 275.629 61.5072 275.525 61.9191 275.515C62.0031 275.513 62.086 275.495 62.163 275.462C62.2399 275.429 62.3095 275.381 62.3676 275.322C62.4257 275.263 62.4713 275.193 62.5017 275.116C62.5322 275.039 62.5468 274.958 62.5449 274.875C62.5633 274.558 62.2391 273.992 62.2432 273.597C62.2527 273.291 62.2779 272.986 62.3186 272.682C62.5309 272.677 62.7411 272.724 62.9303 272.818C63.2228 272.984 63.5528 273.075 63.8905 273.085C64.4104 273.145 64.441 273.165 64.6021 272.686C64.7631 272.208 64.6959 271.937 65.383 271.821C66.07 271.706 66.1108 272.196 66.1108 272.196C66.1108 272.196 66.1108 273.059 65.9069 273.556C65.703 274.052 66.1332 274.65 66.5084 274.66C66.8231 274.664 67.1354 274.716 67.434 274.814C67.9131 274.935 68.5635 275.81 69.0956 276.689C69.6277 277.568 69.6848 277.168 68.7755 277.86C67.8662 278.551 68.6124 279.159 69.1037 279.486L70.1496 280.18C70.1496 280.18 70.1394 280.615 69.4096 281.404C68.6797 282.193 68.9202 282.526 68.9202 282.526C68.9202 282.526 70.2047 282.877 70.5309 282.698C70.8571 282.518 71.7542 281.687 71.9193 281.382C72.0845 281.077 71.956 280.264 71.8051 279.899C71.6003 279.496 71.3687 279.108 71.1119 278.735L71.6074 277.987C71.9625 277.832 72.3414 277.736 72.7287 277.702C73.2608 277.68 73.3587 277.57 73.7481 277.433C74.1375 277.295 74.7104 277.086 75.3791 276.805C76.0479 276.524 75.7196 276.087 75.9908 275.671C76.2619 275.254 76.054 274.475 75.8297 274.223C75.6054 273.972 75.1854 273.795 74.531 273.865C73.8765 273.934 73.5116 274.04 72.9815 274.086C72.4514 274.132 72.4392 273.835 72.3454 273.42C72.2516 273.005 72.5982 272.864 72.3454 272.609C72.0926 272.354 71.5299 272.354 71.2547 272.011C71.176 271.912 71.1321 271.792 71.1295 271.667C71.1269 271.542 71.1658 271.42 71.2404 271.319C71.4507 271.216 71.682 271.16 71.9173 271.155C72.3046 271.155 72.5166 270.938 72.8551 270.557C73.1935 270.177 73.5157 270.306 74.056 270.729C74.5962 271.152 74.7022 271.451 75.0019 271.726C75.3016 272.001 76.0988 272.24 76.7695 272.419C77.4403 272.599 77.7992 272.326 78.1804 271.987C78.5617 271.648 79.0653 271.341 79.2467 270.773C79.4282 270.205 79.2874 269.742 79.212 269.343C79.1366 268.945 78.7574 268.546 78.4822 268.281C78.2069 268.016 77.6462 267.773 77.0366 267.284C76.427 266.796 76.6738 266.525 76.6982 266.048C76.7227 265.572 76.3455 265.233 76.0009 264.95C75.6564 264.667 75.1956 264.93 74.7634 264.804C74.3104 264.669 73.8848 264.458 73.5054 264.18C73.2078 263.941 73.5401 263.449 73.5401 263.449C73.5401 263.449 74.3148 263.026 74.8796 262.972C75.4443 262.918 75.5871 262.552 75.9439 262.193C76.3007 261.834 76.2089 261.134 76.2089 261.134C76.2089 261.134 75.2099 260.935 74.9387 260.977C74.6676 261.019 74.2353 261.643 73.9193 261.948C73.6033 262.253 73.3199 261.989 73.008 261.694C72.6961 261.399 72.8265 260.977 72.8979 260.498C72.9085 260.334 72.98 260.179 73.099 260.063C73.218 259.947 73.3763 259.877 73.5442 259.866C73.8052 259.831 74.3292 260.022 75.0203 259.954C75.7114 259.886 75.7359 259.412 76.0009 258.941C76.266 258.471 75.7277 258.226 75.5932 257.945C75.4586 257.664 74.9489 258.011 73.9621 257.115C72.9754 256.22 74.6451 256.607 74.9489 256.392C75.2527 256.177 75.638 256.214 76.1844 256.392C76.7308 256.569 77 256.944 78.1763 256.902C79.3527 256.86 79.3772 256.653 79.265 256.236C79.1529 255.82 79.1305 255.166 79.0143 254.586C78.898 254.006 79.4343 253.878 79.6911 253.503C79.948 253.129 80.7105 252.867 81.1529 252.979C81.5954 253.091 81.5444 253.192 81.7829 253.647C82.0215 254.101 81.9868 254.566 82.0032 254.901C82.0195 255.236 82.2926 255.676 82.4965 255.876C82.7004 256.075 83.2672 256.224 83.7382 256.32C84.2091 256.416 83.9624 256.886 83.7157 257.303C83.469 257.719 83.1469 258.152 83.1469 258.152C83.1469 258.152 83.4548 258.499 83.679 258.529C83.9033 258.559 84.2907 258.401 84.8575 258.662C85.4242 258.924 84.9879 259.402 84.8575 259.765C84.727 260.128 84.2193 259.964 83.6811 260.116C83.1428 260.267 83.5995 261.033 83.7972 261.264C83.995 261.495 84.6454 261.95 84.7677 262.141C84.89 262.332 85.9156 263.164 86.3029 263.536C86.6903 263.909 87.5262 264.398 87.7912 264.768C88.0563 265.139 87.3835 265.213 86.568 265.059C85.7525 264.906 84.9655 265.335 84.8085 265.781C84.6515 266.228 84.4925 267.83 84.2641 269.106C84.0358 270.382 84.2071 270.009 84.4966 270.434C84.7861 270.858 85.573 270.998 85.7973 270.894C86.0216 270.791 86.0297 269.918 86.097 269.541C86.1643 269.164 86.5191 268.999 86.6801 268.767C86.8412 268.536 87.1919 268.606 87.6159 268.949C88.04 269.292 88.0726 269.906 88.6088 270.316C89.145 270.727 89.4243 270.336 89.5997 269.995C89.775 269.654 89.6445 269.182 89.4957 268.787C89.3469 268.393 88.8249 267.709 88.46 267.113C88.095 266.517 88.2561 266.515 88.2051 266.232C88.1542 265.949 88.5558 265.869 88.8412 265.861C89.1267 265.853 89.3611 265.175 89.3611 265.175L89.6282 264.443C89.6282 264.443 90.3846 263.915 90.9901 263.897C91.5956 263.879 91.141 264.24 91.0819 264.844C91.0228 265.448 91.4549 265.486 91.4549 265.486C91.4549 265.486 92.9983 264.928 93.4183 264.623C93.8383 264.318 94.1176 263.71 94.2338 263.128C94.35 262.546 94.823 262.283 95.4347 261.876C96.0463 261.469 96.1074 260.947 96.6987 260.403C97.2899 259.858 96.6457 258.63 96.8149 258.092C96.959 257.534 96.9998 256.954 96.9352 256.382C96.8335 256.104 96.703 255.837 96.5458 255.584C96.1278 255.499 95.6941 255.521 95.2879 255.65C94.7109 255.87 94.5743 256.137 94.1074 256.236C93.6405 256.336 93.9035 255.594 93.9035 255.594C94.3347 255.508 94.7328 255.305 95.0534 255.01C95.5101 254.548 94.5621 254.456 94.5947 254.051C94.6273 253.647 94.9066 253.711 95.3878 253.768C95.8689 253.826 95.8587 253.649 96.4622 253.013C97.0657 252.377 95.6202 252.658 94.7782 252.654C93.9361 252.65 94.0646 252.604 93.4265 252.81C92.7883 253.015 92.5641 252.985 91.8974 253.174C91.2307 253.364 91.4183 253.735 91.3673 253.95C91.3129 254.359 91.3511 254.775 91.4794 255.168C91.7357 255.676 91.849 256.241 91.8076 256.806C91.7383 257.584 91.5039 257.604 90.9738 257.666C90.4437 257.727 90.1277 257.52 89.4834 257.466C88.8392 257.412 88.8147 257.789 88.6272 258.044C88.4396 258.3 87.883 258.022 87.5384 257.725C87.1939 257.428 87.5058 257.275 87.5772 256.946C87.6485 256.617 88.1236 256.384 88.4253 256.093C88.7271 255.802 88.095 255.441 87.83 255.198C87.5649 254.955 87.3712 255.088 87.0145 255.178C86.6577 255.268 86.4701 254.695 86.0705 254.181C85.6709 253.667 85.1816 253.601 84.6719 253.079C84.1622 252.556 84.4191 252.371 84.7535 252.281C85.0878 252.192 85.3508 251.825 85.4568 251.364C85.5629 250.904 85.3304 250.168 85.5588 249.736C85.7871 249.303 86.307 249.066 86.6108 248.938C86.9146 248.811 86.988 249.393 87.1755 250.043C87.3631 250.692 87.6669 250.956 88.2336 251.261C88.8551 251.592 89.5045 251.87 90.1746 252.092C91.1675 252.455 90.5436 251.767 90.7659 251.424C90.9881 251.081 91.3469 250.374 91.7526 250.16C92.1583 249.947 92.8128 249.839 92.929 249.734C93.2466 249.424 93.5208 249.075 93.7445 248.695C93.8882 248.42 94.0824 248.174 94.3174 247.967C94.3174 247.967 94.929 247.768 95.2695 247.844C95.61 247.92 95.661 248.338 95.9586 248.671C96.2563 249.004 96.6783 248.727 96.9209 248.587C97.1636 248.448 97.29 247.959 97.5856 247.475C97.8812 246.991 98.028 247.156 98.238 247.212C98.2936 247.238 98.3399 247.279 98.3705 247.331C98.4704 246.273 98.5805 245.264 98.3685 244.754ZM57.0627 234.755C56.82 235.072 56.4082 235.183 56.1615 235.504C55.4745 236.399 55.2033 237.159 54.0432 237.663C52.5202 238.325 50.4835 239.29 48.773 239.16C47.6068 239.073 46.7341 238.265 45.5272 238.413C44.1897 238.576 42.8115 239.18 41.4721 238.853C40.4527 238.604 39.5046 237.548 40.0306 236.517C40.2528 236.084 40.7259 235.863 40.6178 235.321C40.4547 234.523 39.7065 233.772 39.0398 233.327C38.6993 233.104 38.1937 232.729 37.7777 232.667C36.2344 232.45 33.2781 233.702 33.5432 230.859C33.6839 229.336 34.9133 227.317 36.0203 226.235C36.4281 225.836 37.0112 225.589 37.372 225.132C38.0367 224.299 38.7869 222.84 40.0225 222.666C41.417 222.467 42.0144 224.46 43.4028 224.604C44.2672 224.698 45.0338 224.07 45.8799 223.944C47.2418 223.745 49.4763 223.896 50.7465 224.428C51.5457 224.763 54.716 227.706 54.9362 228.569C55.189 229.566 54.2756 231.43 55.2073 232.227C55.5254 232.5 55.6681 232.46 56.0412 232.556C56.5774 232.711 57.5887 234.069 57.0627 234.755Z" fill="#6163A1" stroke="white" stroke-miterlimit="10"/>
<path d="M56.0494 232.574C55.6763 232.478 55.5336 232.518 55.2155 232.245C54.2838 231.447 55.1972 229.577 54.9444 228.587C54.7242 227.723 51.5539 224.781 50.7547 224.446C49.4845 223.914 47.25 223.756 45.8881 223.962C45.0501 224.087 44.2754 224.715 43.411 224.622C42.0225 224.472 41.4252 222.489 40.0306 222.684C38.787 222.857 38.0367 224.317 37.3802 225.15C37.0193 225.606 36.4363 225.854 36.0285 226.252C34.9215 227.335 33.692 229.354 33.5514 230.877C33.2863 233.72 36.2426 232.472 37.7859 232.685C38.1937 232.743 38.7074 233.122 39.0479 233.345C39.7146 233.78 40.4628 234.541 40.6259 235.338C40.734 235.873 40.261 236.094 40.0388 236.535C39.5128 237.565 40.4649 238.622 41.4802 238.871C42.8197 239.198 44.1979 238.594 45.5354 238.43C46.7342 238.283 47.6149 239.09 48.7811 239.178C50.4916 239.308 52.5284 238.343 54.0514 237.681C55.2114 237.176 55.4786 236.417 56.1697 235.522C56.4164 235.201 56.8282 235.089 57.0708 234.772C57.5887 234.069 56.5774 232.711 56.0494 232.574Z" fill="#6163A2" stroke="white" stroke-miterlimit="10"/>
<path d="M85.6525 147.726C85.0409 147.084 84.9675 145.27 84.6719 144.403C84.1948 143.007 82.4109 142.226 81.2345 143.444C80.2029 144.51 80.2477 145.939 78.7635 146.731C77.8093 147.239 76.7553 147.028 75.8358 147.443C73.7277 148.393 70.4228 151.938 70.2108 154.19C70.1027 155.329 71.3851 160.233 72.1048 161.14C72.5839 161.738 73.3586 161.991 73.8194 162.639C74.111 163.047 74.8225 164.748 75.5014 164.728C77.161 164.684 76.8185 161.293 78.6004 161.666C80.5678 162.079 79.9928 164.172 80.5943 165.454C80.7105 165.699 81.7075 166.325 81.7911 166C81.9664 165.302 82.8778 165.352 83.4221 165.029C84.0011 164.68 84.4701 163.803 84.8024 163.251C85.6892 161.782 86.988 160.213 87.3488 158.504C87.6118 157.268 86.7372 156.094 87.0981 154.886C87.6281 153.122 89.4202 152.137 88.829 150.032C88.2805 148.098 86.7209 148.838 85.6525 147.726Z" fill="#6163A1" stroke="white" stroke-miterlimit="10"/>
<path d="M154.78 182.98C153.809 182.245 152.741 183.162 151.646 183.036C149.177 182.747 148.111 181.194 145.721 182.103C145.487 182.191 145.338 182.001 145.124 181.975C144.378 181.89 144.29 182.647 144.166 183.13C143.942 184.064 143.774 185.009 143.662 185.962C143.574 186.616 143.776 187.286 143.611 187.938C143.063 190.131 139.393 191.997 140.734 194.439C140.967 194.859 141.442 195.094 141.754 195.435C142.738 196.548 143.568 197.357 145.167 196.749C146.082 196.4 146.543 195.334 147.475 195.059C148.476 194.766 149.405 195.579 150.453 195.124C151.238 194.783 151.577 193.296 151.677 193.268C153.026 192.906 155.779 193.354 155.929 191.305C155.991 190.466 155.114 189.84 154.949 189.024C154.588 187.176 156.627 184.38 154.78 182.98Z" fill="#6163A2" stroke="white" stroke-miterlimit="10"/>
<path d="M49.731 68.3893L52.4243 73.5623L56.6629 74.7764L60.3327 73.5623L64.8384 74.0946L67.2646 74.8182L71.2056 72.9424L74.7388 68.3893L73.9049 64.3166L69.3707 65.4549L66.7202 63.0727L67.128 57.481L59.7884 55.7546L57.7496 61.0692L58.7017 64.3166L56.1185 65.2874L53.672 64.3166L50.9543 62.0919L49.731 65.2874L45.5168 66.4715L49.731 68.3893Z" fill="#6163A1" stroke="white" stroke-miterlimit="10"/>
<path d="M57.1339 75.2827L56.4978 81.9429L53.2582 83.2805L50.4283 84.3829L47.4354 83.5596L47.7371 81.7555L45.8472 79.2398L49.1989 78.4264L50.3366 76.5486L47.89 75.2827L44.1162 74.4355L43.3252 72.739H41.1131L40.6788 70.2871L42.5321 67.4145L42.0917 63.8262L39.1171 61.5756L37.27 58.6033L37.2047 55.7547L36.5503 54.0223L38.3179 52.8801L39.1171 53.8648L41.8267 52.7385L42.5321 59.626L45.5169 61.2148L49.5802 62.9471L50.2897 63.8262L49.7311 65.2874L45.5169 66.4716L49.7311 68.3893L52.4243 73.5623L57.1339 75.2827Z" fill="#6163A1" stroke="white" stroke-miterlimit="10"/>
</svg>
