<svg width="18" height="15" viewBox="0 0 18 15" fill="none" xmlns="http://www.w3.org/2000/svg">
<path d="M1.80002 2.70004V4.50006C1.80002 4.99507 1.39502 5.40007 0.900012 5.40007V5.40007C0.402949 5.40007 0 5.80302 0 6.30009V8.10011C0 8.59717 0.402949 9.00012 0.900012 9.00012V9.00012C1.39502 9.00012 1.80002 9.40513 1.80002 9.90013V11.7002C1.80002 13.1852 3.01504 14.4002 4.50006 14.4002H6.30008C6.79715 14.4002 7.2001 13.9972 7.2001 13.5002V13.5002C7.2001 13.0031 6.79715 12.6002 6.30008 12.6002H4.50006C4.00505 12.6002 3.60005 12.1952 3.60005 11.7002V9.90013C3.60005 8.78414 2.91225 7.81554 1.94276 7.40826C1.85822 7.37274 1.80002 7.29179 1.80002 7.2001V7.2001C1.80002 7.1084 1.85822 7.02745 1.94276 6.99194C2.91225 6.58465 3.60005 5.61605 3.60005 4.50006V2.70004C3.60005 2.20503 4.00505 1.80002 4.50006 1.80002H6.30008C6.79715 1.80002 7.2001 1.39708 7.2001 0.900012V0.900012C7.2001 0.402949 6.79715 0 6.30008 0H4.50006C3.01504 0 1.80002 1.21502 1.80002 2.70004Z" fill="#949494"/>
<path d="M17.0996 5.40007C16.6046 5.40007 16.1996 4.99507 16.1996 4.50006V2.70004C16.1996 1.21502 14.9846 0 13.4996 0H11.6996C11.2025 0 10.7996 0.402949 10.7996 0.900012V0.900012C10.7996 1.39708 11.2025 1.80002 11.6996 1.80002H13.4996C13.9946 1.80002 14.3996 2.20503 14.3996 2.70004V4.50006C14.3996 5.61605 15.0874 6.58465 16.0569 6.99194C16.1414 7.02745 16.1996 7.1084 16.1996 7.2001V7.2001C16.1996 7.29179 16.1414 7.37275 16.0569 7.40821C15.0874 7.81476 14.3996 8.77557 14.3996 9.90013V11.7002C14.3996 12.1952 13.9946 12.6002 13.4996 12.6002H11.6996C11.2025 12.6002 10.7996 13.0031 10.7996 13.5002V13.5002C10.7996 13.9972 11.2025 14.4002 11.6996 14.4002H13.4996C14.9846 14.4002 16.1996 13.1852 16.1996 11.7002V9.90013C16.1996 9.40513 16.6046 9.00012 17.0996 9.00012V9.00012C17.5967 9.00012 17.9997 8.59717 17.9997 8.10011V6.30008C17.9997 5.80302 17.5967 5.40007 17.0996 5.40007V5.40007Z" fill="#949494"/>
</svg>
