<svg width="15" height="15" viewBox="0 0 15 15" fill="none" xmlns="http://www.w3.org/2000/svg">
<path d="M13.5211 8.39309V6.6023L11.9171 6.1139C11.8357 5.85055 11.7256 5.59677 11.6011 5.35257L12.3911 3.86823L11.127 2.60414L9.64269 3.39419C9.39849 3.2697 9.14951 3.15957 8.88137 3.07817L8.39297 1.47412H6.60218L6.11378 3.07817C5.85043 3.15957 5.59665 3.2697 5.35245 3.39419L3.86811 2.60414L2.60402 3.86823L3.39407 5.35257C3.26958 5.59677 3.15945 5.84576 3.07805 6.1139L1.474 6.6023V8.39309L3.07805 8.88149C3.15945 9.14484 3.26958 9.39861 3.39407 9.64281L2.60402 11.1272L3.86811 12.3912L5.35245 11.6012C5.59665 11.7257 5.84564 11.8358 6.11378 11.9172L6.60218 13.5213H8.39297L8.88137 11.9172C9.14472 11.8358 9.39849 11.7257 9.64269 11.6012L11.127 12.3912L12.3911 11.1272L11.6011 9.64281C11.7256 9.39861 11.8357 9.14963 11.9171 8.88149L13.5211 8.39309Z" stroke="#949494" stroke-width="1.5" stroke-linejoin="round"/>
<path d="M7.50242 9.07295C8.3698 9.07295 9.07295 8.3698 9.07295 7.50242C9.07295 6.63504 8.3698 5.93188 7.50242 5.93188C6.63504 5.93188 5.93188 6.63504 5.93188 7.50242C5.93188 8.3698 6.63504 9.07295 7.50242 9.07295Z" stroke="#949494" stroke-width="1.5" stroke-linejoin="round"/>
</svg>
