<svg width="18" height="18" viewBox="0 0 18 18" fill="none" xmlns="http://www.w3.org/2000/svg">
<path d="M16.9936 10.2679V7.71936H14.988C14.8283 6.97206 14.5345 6.27585 14.1321 5.65629L15.5501 4.23832L13.7489 2.43713L12.3309 3.85509C11.7114 3.45269 11.0152 3.15888 10.2679 2.9992V1H7.71936V3.00559C6.97206 3.16527 6.27585 3.45908 5.65629 3.86148L4.23832 2.44351L2.43713 4.24471L3.85509 5.66268C3.45269 6.28224 3.15888 6.97844 2.9992 7.72575H1V10.2743H3.00559C3.16527 11.0216 3.45908 11.7178 3.86148 12.3373L2.44351 13.7553L4.24471 15.5565L5.66268 14.1385C6.28224 14.5409 6.97844 14.8347 7.72575 14.9944V17H10.2743V14.9944C11.0216 14.8347 11.7178 14.5409 12.3373 14.1385L13.7553 15.5565L15.5565 13.7553L14.1385 12.3373C14.5409 11.7178 14.8347 11.0216 14.9944 10.2743H17L16.9936 10.2679Z" stroke="#949494" stroke-width="1.5" stroke-linecap="round" stroke-linejoin="round"/>
<path d="M8.99713 10.5045C9.82964 10.5045 10.5045 9.82964 10.5045 8.99713C10.5045 8.16463 9.82964 7.48975 8.99713 7.48975C8.16463 7.48975 7.48975 8.16463 7.48975 8.99713C7.48975 9.82964 8.16463 10.5045 8.99713 10.5045Z" stroke="#949494" stroke-width="1.5" stroke-linecap="round" stroke-linejoin="round"/>
</svg>
