<svg width="300" height="300" viewBox="0 0 300 300" fill="none" xmlns="http://www.w3.org/2000/svg">
<circle cx="150" cy="150" r="150" fill="#FFCC00"/>
<path d="M132.766 108.844C132.766 111.188 131.919 113.466 130.227 115.68C128.664 117.893 126.385 119.26 123.391 119.781C120.917 120.302 118.638 120.237 116.555 119.586C114.471 118.805 112.648 117.698 111.086 116.266C109.654 114.833 108.482 113.206 107.57 111.383C106.659 109.43 106.203 107.477 106.203 105.523C106.073 100.055 107.18 95.0417 109.523 90.4844C111.867 85.9271 115.057 82.0208 119.094 78.7656C123.13 75.3802 127.818 72.776 133.156 70.9531C138.495 69.1302 144.094 68.2188 149.953 68.2188C156.073 68.2188 161.737 69 166.945 70.5625C172.284 72.125 176.906 74.5339 180.812 77.7891C184.719 80.9141 187.779 84.8854 189.992 89.7031C192.336 94.3906 193.508 99.8594 193.508 106.109C193.508 109.104 192.857 112.294 191.555 115.68C190.383 119.065 188.755 122.516 186.672 126.031C184.719 129.417 182.505 132.867 180.031 136.383C177.557 139.768 175.083 143.023 172.609 146.148C167.531 152.789 163.69 159.56 161.086 166.461C158.612 173.232 157.375 180.979 157.375 189.703H143.312C142.922 180.849 143.703 172.906 145.656 165.875C147.609 158.714 151.125 151.292 156.203 143.609C157.766 141.266 159.458 138.661 161.281 135.797C163.104 132.802 164.732 129.677 166.164 126.422C167.727 123.167 168.964 119.846 169.875 116.461C170.786 112.945 171.242 109.495 171.242 106.109C171.112 96.0833 168.898 88.7917 164.602 84.2344C160.305 79.6771 155.161 77.3984 149.172 77.3984C146.047 77.3984 143.052 77.9193 140.188 78.9609C137.453 79.8724 135.044 81.1745 132.961 82.8672C130.878 84.4297 129.185 86.2526 127.883 88.3359C126.711 90.4193 126.125 92.5677 126.125 94.7812C126.125 95.9531 126.451 96.9297 127.102 97.7109C127.883 98.4922 128.664 99.3385 129.445 100.25C130.227 101.161 130.943 102.333 131.594 103.766C132.375 105.068 132.766 106.76 132.766 108.844ZM149.953 200.836C152.036 200.836 153.99 201.227 155.812 202.008C157.766 202.789 159.393 203.896 160.695 205.328C162.128 206.63 163.234 208.193 164.016 210.016C164.927 211.708 165.383 213.466 165.383 215.289C165.383 217.112 164.927 218.87 164.016 220.562C163.234 222.385 162.128 223.948 160.695 225.25C159.393 226.552 157.766 227.594 155.812 228.375C153.99 229.156 152.036 229.547 149.953 229.547C145.656 229.547 142.01 228.115 139.016 225.25C136.021 222.385 134.523 219.065 134.523 215.289C134.523 213.466 134.914 211.708 135.695 210.016C136.477 208.193 137.583 206.63 139.016 205.328C140.448 203.896 142.076 202.789 143.898 202.008C145.721 201.227 147.74 200.836 149.953 200.836Z" fill="#333333"/>
<path d="M130.227 115.68L127.049 113.25L127.003 113.311L126.959 113.373L130.227 115.68ZM123.391 119.781L122.705 115.84L122.636 115.853L122.567 115.867L123.391 119.781ZM116.555 119.586L115.15 123.331L115.255 123.371L115.362 123.404L116.555 119.586ZM111.086 116.266L108.258 119.094L108.319 119.156L108.383 119.214L111.086 116.266ZM107.57 111.383L103.946 113.074L103.968 113.123L103.993 113.172L107.57 111.383ZM106.203 105.523H110.203V105.476L110.202 105.428L106.203 105.523ZM109.523 90.4844L113.081 92.3138L109.523 90.4844ZM119.094 78.7656L121.605 81.8793L121.635 81.8551L121.664 81.8304L119.094 78.7656ZM133.156 70.9531L131.864 67.1677L133.156 70.9531ZM166.945 70.5625L165.796 74.3938L165.809 74.3977L165.822 74.4014L166.945 70.5625ZM180.812 77.7891L178.252 80.8619L178.282 80.8876L178.314 80.9125L180.812 77.7891ZM189.992 89.7031L186.357 91.3731L186.385 91.433L186.414 91.492L189.992 89.7031ZM191.555 115.68L187.821 114.244L187.797 114.307L187.775 114.371L191.555 115.68ZM186.672 126.031L183.231 123.992L183.219 124.012L183.207 124.032L186.672 126.031ZM180.031 136.383L183.261 138.743L183.282 138.714L183.302 138.685L180.031 136.383ZM172.609 146.148L169.473 143.666L169.452 143.692L169.432 143.719L172.609 146.148ZM161.086 166.461L157.344 165.049L157.336 165.068L157.329 165.088L161.086 166.461ZM157.375 189.703V193.703H161.375V189.703H157.375ZM143.312 189.703L139.316 189.879L139.485 193.703H143.312V189.703ZM145.656 165.875L149.51 166.946L149.513 166.937L149.515 166.927L145.656 165.875ZM156.203 143.609L152.875 141.391L152.871 141.397L152.866 141.404L156.203 143.609ZM161.281 135.797L164.656 137.944L164.677 137.911L164.698 137.877L161.281 135.797ZM166.164 126.422L162.558 124.691L162.529 124.75L162.503 124.811L166.164 126.422ZM169.875 116.461L173.737 117.501L173.742 117.483L173.747 117.465L169.875 116.461ZM171.242 106.109H175.242V106.083L175.242 106.057L171.242 106.109ZM140.188 78.9609L141.452 82.7557L141.504 82.7386L141.554 82.7201L140.188 78.9609ZM132.961 82.8672L135.361 86.0672L135.423 86.0206L135.483 85.9716L132.961 82.8672ZM127.883 88.3359L124.491 86.2159L124.442 86.2943L124.397 86.3749L127.883 88.3359ZM127.102 97.7109L124.029 100.272L124.145 100.411L124.273 100.539L127.102 97.7109ZM131.594 103.766L127.952 105.421L128.047 105.628L128.164 105.824L131.594 103.766ZM155.812 202.008L154.237 205.684L154.282 205.704L154.327 205.722L155.812 202.008ZM160.695 205.328L157.736 208.019L157.864 208.16L158.005 208.288L160.695 205.328ZM164.016 210.016L160.339 211.591L160.409 211.755L160.494 211.912L164.016 210.016ZM164.016 220.562L160.494 218.666L160.409 218.823L160.339 218.987L164.016 220.562ZM160.695 225.25L158.005 222.29L157.934 222.354L157.867 222.422L160.695 225.25ZM155.812 228.375L154.327 224.661L154.282 224.679L154.237 224.698L155.812 228.375ZM139.016 225.25L136.251 228.141L139.016 225.25ZM135.695 210.016L139.327 211.692L139.35 211.642L139.372 211.591L135.695 210.016ZM139.016 205.328L141.706 208.288L141.777 208.224L141.844 208.157L139.016 205.328ZM128.766 108.844C128.766 110.152 128.313 111.598 127.049 113.25L133.404 118.109C135.526 115.335 136.766 112.223 136.766 108.844H128.766ZM126.959 113.373C126.084 114.613 124.796 115.477 122.705 115.84L124.076 123.722C127.975 123.044 131.245 121.174 133.494 117.986L126.959 113.373ZM122.567 115.867C120.655 116.269 119.081 116.185 117.748 115.768L115.362 123.404C118.195 124.289 121.178 124.335 124.215 123.695L122.567 115.867ZM117.959 115.841C116.331 115.23 114.955 114.386 113.789 113.317L108.383 119.214C110.342 121.01 112.611 122.379 115.15 123.331L117.959 115.841ZM113.914 113.437C112.788 112.311 111.868 111.035 111.148 109.594L103.993 113.172C105.095 115.377 106.519 117.356 108.258 119.094L113.914 113.437ZM111.195 109.691C110.505 108.212 110.203 106.834 110.203 105.523H102.203C102.203 108.119 102.813 110.647 103.946 113.074L111.195 109.691ZM110.202 105.428C110.087 100.581 111.063 96.2365 113.081 92.3138L105.966 88.655C103.296 93.8468 102.059 99.528 102.204 105.619L110.202 105.428ZM113.081 92.3138C115.166 88.2589 117.997 84.7884 121.605 81.8793L116.583 75.652C112.117 79.2533 108.568 83.5953 105.966 88.655L113.081 92.3138ZM121.664 81.8304C125.297 78.7838 129.544 76.4134 134.449 74.7385L131.864 67.1677C126.092 69.1386 120.964 71.9766 116.523 75.7009L121.664 81.8304ZM134.449 74.7385C139.355 73.0632 144.516 72.2188 149.953 72.2188V64.2188C143.671 64.2188 137.634 65.1973 131.864 67.1677L134.449 74.7385ZM149.953 72.2188C155.732 72.2188 161.004 72.9562 165.796 74.3938L168.095 66.7312C162.47 65.0438 156.414 64.2188 149.953 64.2188V72.2188ZM165.822 74.4014C170.684 75.8244 174.805 77.9897 178.252 80.8619L183.373 74.7162C179.007 71.078 173.884 68.4256 168.069 66.7236L165.822 74.4014ZM178.314 80.9125C181.704 83.6249 184.388 87.087 186.357 91.3731L193.627 88.0331C191.169 82.6838 187.733 78.2032 183.311 74.6656L178.314 80.9125ZM186.414 91.492C188.432 95.5269 189.508 100.362 189.508 106.109H197.508C197.508 99.357 196.24 93.2543 193.57 87.9143L186.414 91.492ZM189.508 106.109C189.508 108.522 188.983 111.223 187.821 114.244L195.288 117.116C196.73 113.366 197.508 109.687 197.508 106.109H189.508ZM187.775 114.371C186.702 117.47 185.196 120.676 183.231 123.992L190.113 128.07C192.315 124.355 194.063 120.66 195.335 116.988L187.775 114.371ZM183.207 124.032C181.32 127.304 179.172 130.654 176.76 134.081L183.302 138.685C185.839 135.081 188.118 131.529 190.137 128.03L183.207 124.032ZM176.802 134.023C174.357 137.369 171.914 140.583 169.473 143.666L175.746 148.631C178.253 145.464 180.758 142.168 183.261 138.743L176.802 134.023ZM169.432 143.719C164.148 150.629 160.102 157.738 157.344 165.049L164.828 167.873C167.278 161.382 170.915 154.95 175.787 148.578L169.432 143.719ZM157.329 165.088C154.664 172.38 153.375 180.606 153.375 189.703H161.375C161.375 181.352 162.56 174.083 164.843 167.834L157.329 165.088ZM157.375 185.703H143.312V193.703H157.375V185.703ZM147.309 189.527C146.933 181.006 147.691 173.495 149.51 166.946L141.802 164.804C139.715 172.317 138.911 180.692 139.316 189.879L147.309 189.527ZM149.515 166.927C151.334 160.261 154.642 153.225 159.54 145.815L152.866 141.404C147.608 149.359 143.885 157.167 141.797 164.823L149.515 166.927ZM159.531 145.828C161.112 143.457 162.821 140.828 164.656 137.944L157.907 133.649C156.096 136.495 154.419 139.075 152.875 141.391L159.531 145.828ZM164.698 137.877C166.614 134.729 168.323 131.447 169.825 128.033L162.503 124.811C161.141 127.907 159.594 130.875 157.864 133.717L164.698 137.877ZM169.77 128.153C171.436 124.682 172.76 121.131 173.737 117.501L166.013 115.421C165.167 118.562 164.017 121.651 162.558 124.691L169.77 128.153ZM173.747 117.465C174.737 113.645 175.242 109.857 175.242 106.109H167.242C167.242 109.132 166.836 112.246 166.003 115.457L173.747 117.465ZM175.242 106.057C175.106 95.6014 172.808 87.1071 167.512 81.4903L161.691 86.9784C164.989 90.4762 167.118 96.5652 167.243 106.161L175.242 106.057ZM167.512 81.4903C162.498 76.1727 156.319 73.3984 149.172 73.3984V81.3984C154.004 81.3984 158.111 83.1815 161.691 86.9784L167.512 81.4903ZM149.172 73.3984C145.593 73.3984 142.134 73.9967 138.821 75.2018L141.554 82.7201C143.97 81.8418 146.501 81.3984 149.172 81.3984V73.3984ZM138.923 75.1662C135.765 76.2188 132.923 77.7443 130.439 79.7627L135.483 85.9716C137.166 84.6047 139.141 83.526 141.452 82.7557L138.923 75.1662ZM130.561 79.6672C128.107 81.5075 126.07 83.6899 124.491 86.2159L131.275 90.4559C132.3 88.8153 133.648 87.3518 135.361 86.0672L130.561 79.6672ZM124.397 86.3749C122.916 89.0077 122.125 91.8264 122.125 94.7812H130.125C130.125 93.309 130.506 91.8308 131.369 90.297L124.397 86.3749ZM122.125 94.7812C122.125 96.7384 122.689 98.6639 124.029 100.272L130.174 95.1502C130.172 95.1475 130.171 95.1487 130.164 95.1277C130.154 95.0993 130.125 94.9958 130.125 94.7812H122.125ZM124.273 100.539C124.976 101.242 125.688 102.013 126.408 102.853L132.482 97.6468C131.64 96.6642 130.79 95.742 129.93 94.8825L124.273 100.539ZM126.408 102.853C126.882 103.406 127.412 104.232 127.952 105.421L135.235 102.11C134.474 100.435 133.571 98.917 132.482 97.6468L126.408 102.853ZM128.164 105.824C128.458 106.314 128.766 107.226 128.766 108.844H136.766C136.766 106.294 136.292 103.821 135.024 101.708L128.164 105.824ZM149.953 204.836C151.523 204.836 152.937 205.127 154.237 205.684L157.388 198.331C155.042 197.326 152.55 196.836 149.953 196.836V204.836ZM154.327 205.722C155.767 206.298 156.876 207.073 157.736 208.019L163.655 202.637C161.911 200.719 159.764 199.28 157.298 198.294L154.327 205.722ZM158.005 208.288C159.002 209.195 159.778 210.282 160.339 211.591L167.692 208.44C166.691 206.104 165.253 204.066 163.386 202.368L158.005 208.288ZM160.494 211.912C161.109 213.055 161.383 214.164 161.383 215.289H169.383C169.383 212.768 168.745 210.362 167.538 208.119L160.494 211.912ZM161.383 215.289C161.383 216.414 161.109 217.523 160.494 218.666L167.538 222.459C168.745 220.216 169.383 217.81 169.383 215.289H161.383ZM160.339 218.987C159.778 220.296 159.002 221.383 158.005 222.29L163.386 228.21C165.253 226.513 166.691 224.474 167.692 222.138L160.339 218.987ZM157.867 222.422C156.999 223.29 155.848 224.053 154.327 224.661L157.298 232.089C159.683 231.135 161.788 229.814 163.524 228.078L157.867 222.422ZM154.237 224.698C152.937 225.256 151.523 225.547 149.953 225.547V233.547C152.55 233.547 155.042 233.057 157.388 232.052L154.237 224.698ZM149.953 225.547C146.644 225.547 144.001 224.483 141.781 222.359L136.251 228.141C140.02 231.746 144.668 233.547 149.953 233.547V225.547ZM141.781 222.359C139.489 220.168 138.523 217.861 138.523 215.289H130.523C130.523 220.269 132.552 224.603 136.251 228.141L141.781 222.359ZM138.523 215.289C138.523 214.058 138.783 212.871 139.327 211.692L132.063 208.339C131.045 210.545 130.523 212.874 130.523 215.289H138.523ZM139.372 211.591C139.933 210.282 140.709 209.195 141.706 208.288L136.325 202.368C134.458 204.066 133.02 206.104 132.019 208.44L139.372 211.591ZM141.844 208.157C142.924 207.076 144.129 206.261 145.474 205.684L142.323 198.331C140.022 199.317 137.971 200.715 136.187 202.5L141.844 208.157ZM145.474 205.684C146.744 205.14 148.218 204.836 149.953 204.836V196.836C147.261 196.836 144.698 197.313 142.323 198.331L145.474 205.684Z" fill="#333333"/>
</svg>
