<svg width="15" height="16" viewBox="0 0 15 16" fill="none" xmlns="http://www.w3.org/2000/svg">
<path d="M13.9872 3.75504C13.9847 3.75258 13.9847 3.74862 13.9872 3.74617V3.74617C13.9896 3.74372 13.9896 3.73975 13.9872 3.7373L11.1631 0.913267C10.9036 0.65373 10.4828 0.65373 10.2233 0.913267V0.913267C9.96373 1.1728 9.96373 1.5936 10.2233 1.85313L10.5344 2.1643C11.0466 2.67644 10.8345 3.60828 10.4788 4.23919C10.2992 4.55777 10.1967 4.92588 10.1967 5.32C10.1967 6.5436 11.1897 7.53667 12.4133 7.53667V7.53667C12.8468 7.53667 13.3 7.82916 13.3 8.26259V13.7433C13.3 14.231 12.901 14.63 12.4133 14.63C11.9257 14.63 11.5267 14.231 11.5267 13.7433V9.75334C11.5267 8.778 10.7287 7.98 9.75333 7.98V7.98C9.26364 7.98 8.86667 7.58303 8.86667 7.09334V1.77333C8.86667 0.798 8.06867 0 7.09333 0H1.77333C0.798 0 0 0.798 0 1.77333V14.96C0 15.5123 0.447715 15.96 1 15.96H7.86667C8.41895 15.96 8.86667 15.5123 8.86667 14.96V9.975C8.86667 9.60773 9.1644 9.31 9.53167 9.31V9.31C9.89894 9.31 10.1967 9.60773 10.1967 9.975V13.7433C10.1967 14.9669 11.1897 15.96 12.4133 15.96C13.6369 15.96 14.63 14.9669 14.63 13.7433V5.32C14.63 4.71047 14.3836 4.15374 13.9872 3.75504ZM7.09333 7.09334V13.1867C7.09333 13.739 6.64562 14.1867 6.09333 14.1867H2.77333C2.22105 14.1867 1.77333 13.739 1.77333 13.1867V2.77333C1.77333 2.22105 2.22105 1.77333 2.77333 1.77333H6.09333C6.64562 1.77333 7.09333 2.22105 7.09333 2.77333V7.09334ZM12.4133 6.20667C11.9257 6.20667 11.5267 5.80767 11.5267 5.32C11.5267 4.83233 11.9257 4.43333 12.4133 4.43333C12.901 4.43333 13.3 4.83233 13.3 5.32C13.3 5.80767 12.901 6.20667 12.4133 6.20667ZM5.32 6.20667C5.32 5.28362 4.08536 4.97496 3.65098 5.78941L2.2949 8.33206C2.05866 8.77502 2.37964 9.31 2.88167 9.31V9.31C3.24894 9.31 3.54667 9.60773 3.54667 9.975V10.1473C3.54667 11.0058 4.68489 11.3081 5.11087 10.5627L7.09333 7.09334H6.20667C5.71697 7.09334 5.32 6.69636 5.32 6.20667V6.20667Z" fill="#ffffff"/>
</svg>
