<svg width="16" height="16" viewBox="0 0 16 16" fill="none" xmlns="http://www.w3.org/2000/svg">
    <path d="M13.2906 7.8549L10.8831 7.10135C9.96819 6.81287 9.34824 5.98276 9.34824 5.04079V4.88183C10.0705 4.58158 10.5761 3.88099 10.5761 3.06266V2.97225C10.5761 1.88309 9.67326 1 8.55976 1H7.44626C6.33276 1 5.42992 1.88309 5.42992 2.97225V3.06266C5.42992 3.88099 5.93551 4.58158 6.65778 4.88772V5.04668C6.65778 5.98865 6.03783 6.81876 5.12296 7.10723L2.71539 7.8608C1.69218 8.17869 1 9.10886 1 10.1569V15H15V10.1569C15 9.10886 14.3078 8.18455 13.2846 7.8608L13.2906 7.8549Z" fill="white" stroke="#689F38" stroke-linecap="round" stroke-linejoin="round"/>
</svg>
