<svg width="12" height="13" viewBox="0 0 12 13" fill="none" xmlns="http://www.w3.org/2000/svg">
    <path d="M10.0697 8.04228L8.21771 7.46261C7.51396 7.24071 7.03708 6.60216 7.03708 5.87757V5.75529C7.59267 5.52433 7.98158 4.98542 7.98158 4.35593V2.3633C7.98158 1.5255 7.28709 0.846191 6.43056 0.846191H5.57402C4.71748 0.846191 4.02299 1.5255 4.02299 2.3633V4.36046C4.02299 4.98994 4.4119 5.52433 4.9675 5.75982V5.8821C4.9675 6.60669 4.49061 7.24523 3.78686 7.46714L1.93489 8.04681C1.1478 8.29136 0.615356 9.0069 0.615356 9.813V11.6154H11.3846V9.813C11.3846 9.0069 10.8521 8.29589 10.0651 8.04681L10.0697 8.04228Z" fill="#949494"/>
    <path d="M6 1.5C7.38071 1.5 8.5 2.61929 8.5 4C8.5 5.38071 7.38071 6.5 6 6.5C4.61929 6.5 3.5 5.38071 3.5 4C3.5 2.61929 4.61929 1.5 6 1.5Z" fill="#949494"/>
</svg>
