<svg width="23" height="19" viewBox="0 0 23 19" fill="none" xmlns="http://www.w3.org/2000/svg">
<path d="M8.17523 12.2622C5.44675 12.2622 0 13.6316 0 16.3498V16.3936C0 17.4982 0.895431 18.3936 2 18.3936H14.3505C15.455 18.3936 16.3505 17.4982 16.3505 16.3936V16.3498C16.3505 13.6316 10.9037 12.2622 8.17523 12.2622ZM4.7462 16.3498C3.40223 16.3498 3.05091 15.4346 4.32134 14.9961C5.45659 14.6043 6.86252 14.306 8.17523 14.306C9.51142 14.306 10.9435 14.6152 12.0884 15.0165C13.3394 15.455 12.9911 16.3498 11.6654 16.3498H4.7462Z" fill="#949494"/>
<path d="M3.82153 6.94937H4.08723C4.08723 9.20777 5.91644 11.037 8.17485 11.037C10.4333 11.037 12.2625 9.20777 12.2625 6.94937H12.5282C12.8041 6.94937 13.0289 6.72455 13.0289 6.44863V6.42819C13.0289 6.15228 12.8041 5.92746 12.5282 5.92746H12.2625C12.2625 4.41504 11.4347 3.11722 10.2187 2.40189V3.3727C10.2187 3.65883 9.99384 3.88365 9.7077 3.88365C9.42157 3.88365 9.19675 3.65883 9.19675 3.3727V1.98291C8.86974 1.90116 8.53251 1.83984 8.17485 1.83984C7.81718 1.83984 7.47995 1.90116 7.15294 1.98291V3.3727C7.15294 3.65883 6.92812 3.88365 6.64199 3.88365C6.35586 3.88365 6.13104 3.65883 6.13104 3.3727V2.40189C4.91497 3.11722 4.08723 4.41504 4.08723 5.92746H3.82153C3.54562 5.92746 3.3208 6.15228 3.3208 6.42819V6.45885C3.3208 6.72455 3.54562 6.94937 3.82153 6.94937ZM10.2187 6.94937C10.2187 8.07346 9.29894 8.99317 8.17485 8.99317C7.05075 8.99317 6.13104 8.07346 6.13104 6.94937H10.2187Z" fill="#949494"/>
<path d="M21.4397 3.30075L22.39 2.45257L21.6236 1.12409L20.4075 1.52264C20.2645 1.41023 20.101 1.31826 19.9273 1.24672L19.6718 0H18.1389L17.8834 1.24672C17.7097 1.31826 17.5462 1.41023 17.3929 1.52264L16.1871 1.12409L15.4207 2.45257L16.371 3.30075C16.3506 3.47447 16.3506 3.65842 16.371 3.83214L15.4207 4.70076L16.1871 6.02924L17.4134 5.64091C17.5462 5.7431 17.6995 5.82486 17.8528 5.89639L18.1389 7.15333H19.6718L19.9477 5.90661C20.1112 5.83507 20.2543 5.75332 20.3973 5.65113L21.6134 6.03945L22.3798 4.71098L21.4295 3.84236C21.4601 3.6482 21.4499 3.47447 21.4397 3.30075ZM18.9053 4.85405C18.2002 4.85405 17.628 4.28178 17.628 3.57667C17.628 2.87155 18.2002 2.29928 18.9053 2.29928C19.6105 2.29928 20.1827 2.87155 20.1827 3.57667C20.1827 4.28178 19.6105 4.85405 18.9053 4.85405Z" fill="#949494"/>
<path d="M18.8033 8.7785L17.9346 9.06463C17.8325 8.98288 17.72 8.92156 17.5974 8.87047L17.4135 7.97119H16.32L16.1361 8.86025C16.0135 8.91134 15.8908 8.98288 15.7886 9.05441L14.9302 8.76828L14.3784 9.71865L15.0529 10.3216C15.0427 10.4544 15.0427 10.577 15.0529 10.6997L14.3784 11.323L14.9302 12.2734L15.8091 11.9975C15.9113 12.069 16.0135 12.1303 16.1259 12.1814L16.3098 13.0807H17.4033L17.5974 12.1917C17.7098 12.1406 17.8222 12.0792 17.9244 12.0077L18.793 12.2836L19.3449 11.3333L18.6704 10.7099C18.6806 10.577 18.6806 10.4544 18.6704 10.3318L19.3449 9.72887L18.8033 8.7785ZM16.8616 11.4354C16.3609 11.4354 15.9522 11.0267 15.9522 10.526C15.9522 10.0252 16.3609 9.61646 16.8616 9.61646C17.3624 9.61646 17.7711 10.0252 17.7711 10.526C17.7711 11.0267 17.3624 11.4354 16.8616 11.4354Z" fill="#949494"/>
</svg>
